/* XPM */
static char *result[] = {
/* columns rows colors chars-per-pixel */
"50 50 157 2 ",
"   c #1D1D1D",
".  c #161616",
"X  c gray9",
"o  c #151515",
"O  c #131313",
"+  c gray4",
"@  c #272727",
"#  c gray11",
"$  c #1B1B1B",
"%  c #1E1E1E",
"&  c #191919",
"*  c gray6",
"=  c #232323",
"-  c gray15",
";  c gray14",
":  c #252525",
">  c gray13",
",  c #0E0E0E",
"<  c #181818",
"1  c gray5",
"2  c #2A2A2A",
"3  c #3F3F3F",
"4  c #2D2D2D",
"5  c gray18",
"6  c #282828",
"7  c gray16",
"8  c gray21",
"9  c #222222",
"0  c gray12",
"q  c #323232",
"w  c gray20",
"e  c #353535",
"r  c #343434",
"t  c gray10",
"y  c #2C2C2C",
"u  c gray8",
"i  c #434343",
"p  c gray17",
"a  c gray22",
"s  c #202020",
"d  c #313131",
"f  c #282829",
"g  c #464747",
"h  c #393939",
"j  c #373737",
"k  c #4C4C4C",
"l  c gray19",
"z  c #515151",
"x  c #3C3C3C",
"c  c gray23",
"v  c #3A3A3A",
"b  c gray24",
"n  c #2F2F2F",
"m  c gray26",
"M  c #1C1C1D",
"N  c #262627",
"B  c #333334",
"V  c #303031",
"C  c #323233",
"Z  c #363637",
"A  c #1F1F20",
"S  c #1E1E1F",
"D  c #1D1E1E",
"F  c #1D1D1E",
"G  c #0C0C0C",
"H  c #0B0B0B",
"J  c #101010",
"K  c #1B1C1C",
"L  c gray7",
"P  c #1F2020",
"I  c #111111",
"U  c #141415",
"Y  c #242525",
"T  c #232324",
"R  c #252526",
"E  c #222223",
"W  c #191A1A",
"Q  c #232424",
"!  c #252626",
"~  c #272728",
"^  c #292A2A",
"/  c #29292A",
"(  c #272828",
")  c #2F3030",
"_  c #2C2D2D",
"`  c #242425",
"'  c #212122",
"]  c #141515",
"[  c #373738",
"{  c #2D2D2E",
"}  c gray25",
"|  c #3F3F40",
" . c #414141",
".. c #3E3E3E",
"X. c #3D3D3E",
"o. c #444444",
"O. c #3A3B3B",
"+. c #484849",
"@. c gray28",
"#. c gray27",
"$. c #4D4D4E",
"%. c #505050",
"&. c #4E4E4E",
"*. c #535353",
"=. c gray32",
"-. c #464646",
";. c #212222",
":. c #1E1F1F",
">. c #2C2D2E",
",. c #262727",
"<. c #101011",
"1. c #171718",
"2. c #2A2B2B",
"3. c #181819",
"4. c #181919",
"5. c #1A1A1B",
"6. c #2A2A2B",
"7. c #1A1B1B",
"8. c #2C2C2D",
"9. c #222323",
"0. c #161617",
"q. c #131314",
"w. c #121213",
"e. c #2B2B2C",
"r. c #151616",
"t. c #161717",
"y. c #1C1D1D",
"u. c #2B2C2C",
"i. c #2F2F30",
"p. c #0E0E0F",
"a. c #111213",
"s. c #2D2E2E",
"d. c #131415",
"f. c #141516",
"g. c #151617",
"h. c #353536",
"j. c #4F5050",
"k. c #4E4F4F",
"l. c gray31",
"z. c gray29",
"x. c #1D1E1F",
"c. c #1B1B1C",
"v. c #171818",
"b. c #202021",
"n. c #131414",
"m. c #121313",
"M. c #090909",
"N. c #151516",
"B. c #0B0C0C",
"V. c #282929",
"C. c #3D3E3E",
"Z. c #404041",
"A. c #2E2E2F",
"S. c #484848",
"D. c #555555",
"F. c #565656",
"G. c gray34",
/* pixels */
"  . X . o . O O + @     #   $   $ % # % & o @ #     #   & & * = = - ; : > > # ,   # # & & #   & < 1 ",
"2 & $ < < # & $ X 3 4 5 6 = 5 > > 4 ; 7 % % 8 % =   % 9 0 = 0 q w w w q e 8 r $ @ = = > 9 ; : > = t ",
"y t $ X u & & X X i 9 : : 2 7 : 9 p 7 : 7 = a s 9 % t 0 s   0 e w q d q w q r > f = ; : ; 9 = > 9 # ",
"5 & < t X $ # u & g @ 6 : 4 : 9 - 9 6 - 7 : h 0 % 9 % 9 9 t = j w q d w q d q - 5 - - = = 9 9 9 9 # ",
"4 % < t < X & o $ k l 6 : 2 : = = s 6 2 = - a ; % > %   0 # : j w q w l d d d : l = = > ; : 9 9 = % ",
"w : s > s - > = - z x c c h v c b x x x h d i d 4 5 n w n w l m c b a c h x v l 3 n n d q w d q r n ",
"# > s 0 s > > > M N B V r V q q d C d Z q 6 s 6 6 6 6 N 2 f s # A S 0 S A S S & & A % % 0 % D F   $ ",
"O 1 1 G H 1 * 1 G + J X . o o . o o H > < X < X & o X * K X < . O . o O . . o L H 2 # % 0 % 0 $ % J ",
"o 1 1 1 1 , * G G , O . . X o . . X J 9 X u L J O O O u P u u X u . u * . o I O J 2 t t . u < < & < ",
"o , * * , 1 1 1 G G U . o o o . . o L = . u o I u . J L > O u J o o * L O o o X o p < t t . t $ o < ",
"< , * 1 1 , G G G G o . o o o o o o L Y & O . O O o I u T < . J X u L I L I o J o 4   X # & < $ o $ ",
"& 1 G G 1 * 1 G , 1 X . . . . o . o u R t u . I . O L < E & < . < o o o o o & o . 4 % & t < # & <   ",
"$ & < < & t & & t W W # K K # $ t t & Q 2 ! - ; @ - @ ~ ! 7 6 7 6 - ^ f 2 2 / ( : ) 5 p p p 5 _ 5 p ",
"% # # t t # % t & L S @ @ - ~ R ` = L 4 % A P 0 0 t F L 7 = ; ' s 9 > A = 9 = # . 9 < & < < < ] X 1 ",
"6 = = 9 9 ; - > 9 0 2 w w r q e e r 9 [ > s # t 9 0 s   h 7 p 2 ; y = % y - : s 0 p & & . o t & t < ",
"2 = ; : ; 9 = 9 > s { w q d q w w d - v > > 0 t 0 > # $ c = : > 2 6 ; 9 7 p ; y : _ & $ < u < t . X ",
"d : - = 9 9 9 > 9 0 n r w d q w d d @ } =   9 0 > 9 $ % | p 7 ; 4 7 : ; = : @ : - n $ . $ < t $ o t ",
"q = = 9 = - 9 9 = > q w q r q l d l 6 c : 0 >   s % t >  .l y @ p : : : = @ 4 = @ _   < t X & < o # ",
" .c v c b ..x b } x X.o.i m i m m m O.+.@.3 m b #. .o.3 $.z %.z &.&.z z *.*.=.&.-.8 d 4 n 4 q n d n ",
"- : : : : : 9 = t 7   > > > s 9 s ;.0 % > :.>.- @ 6 @ ` s 6 A ^ N 6 6 6 @ ,.; # > . & X X & t X X J ",
"2 & $ < X $ < $ . f #   $ < % . o % < t u u ( & $ < X t < $ <   # # # #   %   <.o L L I I O O I L , ",
"y & t < o t t . 1.2.X t < # & X X t $ & # 3./ & t < o t t . 4.0 # # $   # $ # u 1.O u u O L L I I , ",
"5 $ X $ < & $ o 5.4 # t <   < X < o t & < W 6.$ X # < & t o M s # #   $ # $ $ . 7.u O I O O I I I , ",
"n 0 t t &   & t % n s 0 %   # # # $ 0 s # # 8.% t $ $ % $   0 9 % % # #       < % u u u o . u o . O ",
"@ p 7 7 7 y p p - 9 y 2 5 2 y p p y 7 d 4 Y ` 7 7 7 2 6 { p 9.7.  $ # # # $ $ 0.& ;.% 0 s 0 0 % 0 & ",
"I 1 1 G G 1 * G G + q.. . o o . . o G ;.o X o o < u X I % < < o L < O L X o o * G 2 &   $ #   &   J ",
"O 1 1 , 1 1 1 G G G o . o . o . . . * 9.. o I * O O O w.' O O o o X o J X o L O J e.t t X u < < & o ",
"u * * , , 1 1 G G H r.. . o o . o o J : u O o I o . * O ' O o L X O J O L u u . O 4 X & t X $ $ u X ",
"X , , G 1 , G G G H t.. o . o o o o I ! < O . O L o J ] Y < o L X O L I I L o I u 4 # < $ < X t u t ",
"< 1 G G , , G 1 , G & . . . . o . . L @ & u . O < O u & ` & < X < . . X . X & . u l   t t & % & $   ",
"# $ 5.K #     y.%   t # $ # $ $ W 5.4.T 2 6 2.7 u.p y ( ~ { _ 5 y p 4 4 5 y p 7 - n n 4 4 5 n i.l 7 ",
"& o u L L L O I L O L I H p.O O O O L I I H Y @ 7 @ ; - @ ; @ @ - ; $ a.% . . O O o L O . O u , + * ",
"# t . . L o o , O X I L * L . . . o . . X L s.7 2 y : 2 6 % 6 p 9 ; s d.= o . o O < J I < L O J * * ",
"  < L L O . O L u X O . . q.. o o o . . o O i.: ; = @ 7 = 9 @ y : p 2 U = L u J X L I O u . u < I * ",
"# # . O . . O L o J o L o o X . o o . . o O C 5 2 ; p 2 - 9 @ s 7 = 7 f.- X u O X u L O J o L O L * ",
"  % < u X O O L O * X O u 0.o . . . u o u O q q n @ y - @ - - = n : 2 g.! < X o . u o u L . X u O * ",
"$ y 6 6 7 - 7 6 7 2 7 6 - S       # # # # $ h.=.j.k.l.k l.%.z =.z l.z.x.p 7 6 2 N 6 6 7 2 7 7 @ 0 * ",
"& % % %     c.$ v.b.y.# $ . r.0.r.0.r.. q.] :.Y : R Y ; = ;.A ` 9.T 9.. n.. m.w.u u O L O u O I * M.",
"2 t # $ # # t   * @ % % & & % X < % < # O N.7 & # $ # $ t % J %   # #       $ B.u L L I I O O I L + ",
"y & & . u < & & u 6 X & $ #   X X % < & & & 2 & t X u < < t . % # # $ # #     * o L O O O L L J L 1 ",
"y X & & < # $ u t.2 X $ < % o o t o $ t   $ p X < & < # & . & s # $ $   # $ # w.X o u O L I L I I 1 ",
"4 # & $ < X $ o & 5 0 < & $ < . X O $ < X # e.# & t < X & . y.% # #   t $ # # n.X O L I u O I I L , ",
"d $ $ t t 0 t % c.4 0 % %   %   %   0 %     l $ $ & # % $ s % s # % $   $     < & I I L O O L O O J ",
"y 2 V.@ 7 2 p 7 A f 6.7 y 7 p 7 7 7 6 y / 9 7 f f N 6 ~ 4 p > s s 0 s A A 0 0 & b.A 0 A 0 s 0 % 0 t ",
": s s % % s 9 % % O - n 4 8.4 y 4 p u r > = = = ; # 9 O l 6 7 : ; 6 ; = 6 : @ % . @ & M # # $ X $ , ",
"p = = 9 = = : > 9 % y w w r q r e r s a > s   & > 0 s $ c @ 7 2 - 4 ; s 4 - : > % 2 t & X u & < t . ",
"y ; : : ; 9 = 9 9 % n w q d w q q l ; v s > s $ > 9 $ $ x = @ 9 y - = ; @ 7 - y = y < t & o t t o X ",
"d : : 9 = = 9 9 9 0 l w w q q d d d : C.=   9 0 s = t % Z.y 6 ; y @ ; ; > : - : ; A.$ X # < & $ u t ",
"q = 9 9 ; : 9 9 = s w w r r d d q l - c : 0 >   > %   s m l 4 7 p @ @ @ : 2 4 - : 4   & & X t < X $ ",
"-.x x ..3  .3 } o.b } i i  .m  .} 3 8 z.S.i o. .S.-.z.x z *.=.D.z %.D.D.F.G.D.%.o.a q n l l r w e 5 "
};
