/* XPM */
static char *result[] = {
/* columns rows colors chars-per-pixel */
"50 50 232 2 ",
"   c #361C0F",
".  c #292D09",
"X  c #27370A",
"o  c #33241B",
"O  c #372618",
"+  c #323316",
"@  c #372724",
"#  c #3B2B24",
"$  c #2A3428",
"%  c #32332D",
"&  c #481902",
"*  c #542409",
"=  c #492818",
"-  c #582C15",
";  c #4F3017",
":  c #4D371D",
">  c #6F2B06",
",  c #663519",
"<  c #6C391C",
"1  c #773915",
"2  c #733D1D",
"3  c #4B332A",
"4  c #49362A",
"5  c #573824",
"6  c #473934",
"7  c #663C24",
"8  c #2C420C",
"9  c #2C4411",
"0  c #2E4A13",
"q  c #2D403D",
"w  c #79411E",
"e  c #59422A",
"r  c #4C413C",
"t  c #5A4636",
"y  c #69462B",
"u  c #7B4626",
"i  c #644634",
"p  c #764C31",
"a  c #6B5238",
"s  c #755538",
"d  c #7D643C",
"f  c #233948",
"g  c #29444B",
"h  c #38464B",
"j  c #294656",
"k  c #364A57",
"l  c #39525B",
"z  c #094A6C",
"x  c #184B66",
"c  c #17526F",
"v  c #075477",
"b  c #01557A",
"n  c #01597E",
"m  c #175878",
"M  c #28556A",
"N  c #325468",
"B  c #265873",
"V  c #35667A",
"C  c #474745",
"Z  c #554A46",
"A  c #5D5349",
"S  c #494F51",
"D  c #48555A",
"F  c #5B5455",
"G  c #665549",
"H  c #715544",
"J  c #675A56",
"K  c #74644F",
"L  c #766356",
"P  c #4D5D65",
"I  c #656367",
"U  c #766A67",
"Y  c #737071",
"T  c #757475",
"R  c #923C09",
"E  c #8B451A",
"W  c #824B27",
"Q  c #844A25",
"!  c #8B4E26",
"~  c #8D532B",
"^  c #96562A",
"/  c #9B5A2C",
"(  c #895A38",
")  c #965C33",
"_  c #A25C2B",
"`  c #866A3E",
"'  c #9B6339",
"]  c #A6602F",
"[  c #A96837",
"{  c #B46A34",
"}  c #B86D35",
"|  c #BE7137",
" . c #B6723B",
".. c #BD743A",
"X. c #C2753B",
"o. c #C4783C",
"O. c #835D41",
"+. c #9C6A43",
"@. c #8E724B",
"#. c #A57248",
"$. c #AB7448",
"%. c #B77745",
"&. c #BD7A44",
"*. c #957B68",
"=. c #867C79",
"-. c #C47D43",
";. c #BE824F",
":. c #A6865C",
">. c #B88254",
",. c #8E8178",
"<. c #C9844A",
"1. c #D28A4C",
"2. c #C58954",
"3. c #CC8B53",
"4. c #D38E51",
"5. c #CD915B",
"6. c #D69155",
"7. c #D99455",
"8. c #D49359",
"9. c #D8975B",
"0. c #DD9A5C",
"q. c #E19D5D",
"w. c #E4A05F",
"e. c #C99465",
"r. c #DC9D61",
"t. c #E19F60",
"y. c #DBA470",
"u. c #E5A363",
"i. c #E9A666",
"p. c #E9A869",
"a. c #E7B17A",
"s. c #025582",
"d. c #005C83",
"f. c #055988",
"g. c #005C8B",
"h. c #155C8C",
"j. c #015E92",
"k. c #026086",
"l. c #00628C",
"z. c #166389",
"x. c #006594",
"c. c #006995",
"v. c #0B6896",
"b. c #00659C",
"n. c #006C9C",
"m. c #196798",
"M. c #07719E",
"N. c #256687",
"B. c #35748D",
"V. c #006DA3",
"C. c #076BA8",
"Z. c #006CAB",
"A. c #0072A4",
"S. c #0074AB",
"D. c #0B76A8",
"F. c #0178AE",
"G. c #1470AB",
"H. c #1A7BA9",
"J. c #006EB2",
"K. c #006EB8",
"L. c #0076B3",
"P. c #0B73B6",
"I. c #007AB4",
"U. c #0173BB",
"Y. c #007CBB",
"T. c #2E74A3",
"R. c #787C80",
"E. c #0076C2",
"W. c #007CC2",
"Q. c #017CCB",
"!. c #007FD1",
"~. c #0082BD",
"^. c #2C83A8",
"/. c #53869A",
"(. c #6D96A9",
"). c #0083C4",
"_. c #0085CB",
"`. c #008ACD",
"'. c #1A87C3",
"]. c #0082D3",
"[. c #008BD4",
"{. c #0084DC",
"}. c #008DDA",
"|. c #0091DB",
" X c #329BDE",
".X c #0087E2",
"XX c #0089E4",
"oX c #008CED",
"OX c #0093E4",
"+X c #0096EA",
"@X c #008FF0",
"#X c #0091F3",
"$X c #009AF2",
"%X c #0094FB",
"&X c #74AED3",
"*X c #5BACE1",
"=X c #8A8585",
"-X c #918F8F",
";X c #989494",
":X c #AA9B8C",
">X c #A39B98",
",X c #B6A697",
"<X c #9A9EA2",
"1X c #98A9AE",
"2X c #A5A9AB",
"3X c #ADB1B0",
"4X c #ACB2B4",
"5X c #ACB5B7",
"6X c #B3B7B8",
"7X c #D9B594",
"8X c #E8B886",
"9X c #E6BF98",
"0X c #C6B8AA",
"qX c #F0C495",
"wX c #C7C3B9",
"eX c #D3C5B4",
"rX c #D8CAB6",
"tX c #EDCBA6",
"yX c #8AAFC4",
"uX c #88B1C9",
"iX c #8EB7D0",
"pX c #B8BFC2",
"aX c #BBC3C6",
"sX c #BCC5C9",
"dX c #C9CBCA",
"fX c #C8D2D5",
"gX c #CBD6D9",
"hX c #CED9DC",
"jX c #D1DBDE",
"kX c #D3DEE1",
"lX c #D5E1E5",
"zX c #E2E7E9",
/* pixels */
"V.U.Y.W.W.W.~.Y.Y.Y.W.W.U.Y.Y.b.z B h.b.L.L.L.Z.S.Z.A.S.S.S.V.Z.V.V._.[.}.}.}.[.[.].`.).W.Y.I.L.Z.b.",
"L.`.}.}.}.|.}.[.].`.`.).W.).z.F O.*.*.G M S.Y.Y.I.I.I.I.I.S.S.F.A.I.|.OXOX+X+X+XOXOXOXOX|.[.`.W.Y.S.",
"W.}.OXOXOXOXXX}.}.}.[.}.).B O.8.i.a.tXtX:.F v.~.~.Y.I.I.Y.I.I.I.F.I.+X$X$X$X$X$X$X+X+XOXXX}.[._.).L.",
"W.}.}.}.}.}.}.}.}.[.}.Y.S ) t.i.u.u.u.y.qX5.i z.I.I.I.I.I.F.F.F.S.I.OX$X$X$X$X$X+X+XOXOX}.[._.).L.c.",
"U.].[.[.}.[.]._._.)._.M ^ u.p.r.r.2.9.w.q.i.<.h A.F.S.S.S.F.S.S.S.I.OX+X+X+X+XOX+XOXOX}.}._.Y.L.V.x.",
"L._.`._.).W.).~.Y.W.U.C -.u.2.[ ^ E ' 0.8.( $.p n A.A.S.A.A.A.A.V.S.}.XXOXXX}.[.}.}.]._.Y.S.V.S.Y.L.",
"V.I.Y.Y.U.Y.Y.L.I.m.S 2 / +.1 R R R 1 5.2.p ( p v x.c.c.A.n.n.n.c.n.W._.).W.Y.I.U.Y.L.S.V.n.S.I.Y.S.",
"x.V.S.S.S.S.S.V.V.m > R 1 +.E E E w / q.4.~ Q t v f.l.l.x.x.c.c.l.j.Z.S.S.S.Z.S.A.V.V.n.x.c.S.S.S.c.",
"V.V.V.V.A.A.A.c.g.f.k 5 u y.e.$.8.u.8Xu.&.! ~ C g.x.V.S.L.L.Z.Z.Z.V.Z.V.V.b.V.n.c.j.b.c.b.c.n.b.b.V.",
"L.S.S.A.F.A.n.c.x.S.z.W ) 5.e.#.u.8X9X9...[ <.s x S.).`.[.[.[.[.`.`.).).W.Y.Y.I.S.c.V.A.V.S.S.F.S.S.",
"F.F.S.S.F.A.A.n.x.I.m.p [ -.<.<.;.9.4.| 1.i.6.-.( h v.].OXOX|.|.}.[.`.`.).).~.I.S.c.A.A.S.F.F.F.I.S.",
"F.F.A.A.A.A.A.n.c.F.I.Z <.5.+.( W [ 9.-.4.t.7.<.%.p p A N ).|.[.[.`._._.).~.I.I.S.c.n.A.A.A.A.A.A.S.",
"S.A.A.A.A.A.A.c.c.v.j 5 <.&.~ ~ [ 6.t.t.q.<.&.9.;.e.8X9X>.S ).[.`._.`.~.Y.I.L.v.v z v n.A.A.A.A.A.A.",
"c.c.c.n.c.c.c.x.n Z Q 2 -.8.<.3.r.t.t.i.q.o.' 8.i.u.p.8X8X[ B [.).~.~.I.I.L.h.# I =XU j n.A.c.n.c.x.",
"l.l.l.l.l.l.l.v A ' < w -.) +.r.i.t.u.i.1.| W 2.u.0.u.q.0.[ 3 c D.I.I.S.M.B h 6 -XaX2X3 h z.c.l.l.l.",
"g.d.d.d.n d.n C u W ! 2  .&.#.4.u.i.t.4.o.! p r.0.<.6.0.<., ( #.Z m n.c.j  .O.% I I G W -.D d.d.k.d.",
"d.l.g.d.g.g.m = ( -.X.Q 2 { o.-.1.4.1...! W 8.i.u.1.X.o.! < 9.tX7Xi s.f.4 q.>.= # 7 ) 6.u.A s.g.d.s.",
"V.L.I.L.I.Y.j * 2.q.X.| ^ 2 ! / / / ^ 2 w 3.i.w.t.t.<._ - Q 6.a.9X&.N g.p 4.5.( = ~ &.p.9.D V.V.b.f.",
"L.).`._.[.N.7 2 8.t.7.-.o.{ ^ ! ! ! Q / 3.w.t.u.u.r...{ ^ w ..7.q.-.3 r 2 ) ) ( = W $.r.3.C V.S.n.x.",
"S.Y.)._.C.H [ 2 8.u.u.t.7.7.6.4.1.1.1.0.u.u.t.u.t.../ ..| w ~ o.[ 7 ) 4.[ 2 - o @ , ) 2.t.a x.S.V.x.",
"V.I.W.).k [ $.1 4.u.t.u.i.i.t.i.i.i.i.u.u.u.u.q.o.Q / | | { / } < p t.p.9.-.Q @ ; ~ -.8Xr.F V.S.V.x.",
"g.V.L.v.( t.%.< -.t.u.i.t.t.t.t.9.9.0.0.t.u.0...w Q | { ] ..| } 2 %.p.1.-.4.2 @ 5 ^ -.9.-.Z n.S.n.x.",
"g.c.V.c ) 8.3.2 / -.-.[ ] %.7.| ~ Q Q ~ ) / W , u | ..{ ! } | } W 5.7.-.t.6.< @ 3 , W %.t.O.h.V.x.x.",
"s.l.c.m - { 7./ , , 2 ! [ 6.t.7.8.3.%.] Q u Q / ....| } w [ o.{ ] 7.q.t.t.-.2 @ @   , #.-.Z j.x.g.d.",
"f.j.x.c.f Q 6.$.- W { -.i.i.q.q.r.t.i.u.q.7.4.4.7.6.o.] 6 s 7.1.-.7.t.7.{ 7 Z F F J J L J Z j f.g.g.",
"Q.!.!.].P.6 | 4., Q X.7.r.%.*.*.*.@.#.r.i.i.i.p.p.q.o.! h.m.J $.7.t.q./ 7 I R.-X>X2X3X4XpX2XU k U.Q.",
"@X@X#XoX%Xm.Q 1.+.2 -.t.+.I 3X3XJ U U ( ) O.( ` ' #./ y P.@XQ.m.G %.[ 7 F I Y Y T Y T R.R.=X-XJ P.%X",
"@X#X#X#X#XoXk _ %.W  .-.i 3 =.=X3 3 ;X# o 6 o # # o # O m.XX.XoXE.B N.k F F F F F F F F F F J Z P.%X",
"oX@X@X%XoX#XQ.r _ 2 5 3 O U ;XT dX3X=X@ % Z @ A 6 @ Z O F T.].].{.{.{.B C 3 6 6 r Z Z Z Z Z 6 m..X@X",
"oX.XoX!..X!.!.P.C = Z J @ r -X6XzX;X@ o o o o o o o @ o N E.Q.!.Q.Q.W._.m.Z <X<X2X-X;X2X4X3XP Q.oXXX",
"!.!.Q.Q.Q.E.!.P.P 6 @ 3 o   4 T U 4 . + 9 9 9 9 9 9 . O h.J.P.U.E.E.E.E.j.Y fXjXlX1X4XlXgXfXY K..X{.",
"Q.Q.E.E.E.E.E.G.N.M o . 9 X X . . X 9 9 0 0 0 0 0 0 X o h.V.c.V.C.K.C.K.f.Y sXfXjX1X4XkXfXaXR.G.!.Q.",
"E.E.E.K.I.L.J.Z.j.v.% X 0 9 9 0 0 0 0 0 0 0 0 9 0 0 X + f.l.j.j.x.x.b.c.v Y aXfXkX2X4XjXfXaX=Xv.U.J.",
"j.K.Y.U.F.S.V.V.b.b.g . 0 9 9 9 0 0 8 8 8 0 0 0 0 0 X $ s.g.g.g.g.s.c.Z.z.T pXfXhX2X4XkXfXsXT z g.f.",
"A.~.~.~.~.~.~.~.)._.N.X 9 9 X X . $ q q $ + 8 0 0 9 X $ v.A.n.c.c.c.V.L.m ,.aXgXjX1X4XhXfXdX=Xh.c.x.",
"I.`.`.[.`.|.|.|.[.|.'.$ 9 9 9 . @ z.I.I.D.M . 9 0 9 X $ M.S.A.A.n.c.A.F.m ,.aXgXjX2X4XlXfXpX;Xz.L.c.",
"F._.`.`.[.[.|.[.|.|.|.q X 0 9 X g I.I.Y.~.P.% X 9 0 X $ v.A.M.n.c.c.n.A.B =XaXgXhX4X6XlXjXaX;Xz.S.V.",
"A.~._.).`.`.`.`.`.`.[.M . 9 X . m I.I.S.I.I.z.o X 9 X % v.V.n.n.c.l.l.c.N ;XaXhXjX6X4XhXgXaX>XN A.c.",
"V.~.~.).).`.).).~.~.).z.O + + # m S.A.A.A.A.A.% = : e 0 n c.c.c.c.k.n n l >XaXhXjX5X3XkXhXsX>XN c.l.",
"x.I.~.I.~.F.F.S.A.A.A.z.4 ` K e m x.c.x.c.c.x.c 5 @.` t v d.d.l.l.k.b b g >XsXkXkX6X5XlXgXsX>Xk k.d.",
"g.V.V.n.n.n.n.c.x.c.c.m e @.@.e x s.n n s.d.s.s.0 ` :.e z b b b b b v b h 2XfXjXhX5X3XkXkXdX2Xk d.s.",
"j.x.x.l.x.l.l.d.g.x.n.x 5 d @.y x f.g.f.g.s.s.b r d @.y x b v b b s.s.c r ;XdXlXlX4X2XjXhXfX>Xh x.c.",
"S.S.S.S.A.V.A.D.G. XB.C d K d : R.iXyXyXyXyX&X(.e a s y l ^.^.A.b.N.S t y ; G ;XaX1X2XkXfX=.5 = g m ",
"I.I.F.I.S.H.(.5XwXdXL = y e : K 0XrXeXrXeXrXrX,Xe : : : e 6XwX1X(.B.P s 2 * & - a 5 G =.H & * - > t ",
"S.S.A.A.V.H.1X4X6XdX:XL K K ,.eXeXeXeXwXeXeXeX0XK s H H *.6X6X3X(.~.I.B.V P D C A G h h % 6 S N l N.",
"A.A.n.A.A.n.c.M.^. X X*X&X&XiXyXuXuXuXuXuXyXuXuX(././.^.^.^.^.A.S.I.S.I.I.I.I.I.D.M.M.A.C.D.A.A.F.A.",
"A.n.c.c.c.c.x.c.E.oXoXoXoXoXXXoXoXXX.X.X{.!.].E.A.c.x.x.c.c.A.A.S.A.A.n.V.n.n.A.A.c.x.c.n.n.c.n.c.n.",
"x.l.x.l.l.l.l.j.J.!..XXXXXXXXX}..X{.{.].!.Q.E.L.c.l.l.l.c.c.c.n.n.c.x.x.c.c.c.c.c.l.l.c.c.c.c.c.c.l.",
"n k.n k.n n n k.V.K.Q.Q.!.!.!.!.!.!.Q.E.E.K.C.b.j.g.g.d.g.l.l.l.k.l.l.l.l.x.l.l.x.k.k.d.l.g.k.k.k.d.",
"n n n n n b n b j.V.Z.Z.J.Z.Z.Z.Z.J.K.Z.b.j.j.j.j.s.n n n n d.n n d.d.k.l.d.l.l.l.s.n n n n n d.d.n "
};
