/* XPM */
static char *result[] = {
/* columns rows colors chars-per-pixel */
"29 50 213 2 ",
"   c #5D2B0D",
".  c #5E2914",
"X  c #6D350C",
"o  c #743D0E",
"O  c #7D3D0E",
"+  c #642D16",
"@  c #6A2E1A",
"#  c #6D311C",
"$  c #6B3618",
"%  c #71331E",
"&  c #723E17",
"*  c #6A2305",
"=  c #693924",
"-  c #743520",
";  c #7C430F",
":  c #774012",
">  c #7B4313",
",  c #7A461C",
"<  c #764029",
"1  c #7D4D2A",
"2  c #7B4627",
"3  c #7D543A",
"4  c #795948",
"5  c #70584D",
"6  c #892D07",
"7  c #942C06",
"8  c #88370C",
"9  c #933508",
"0  c #9A320A",
"q  c #943508",
"w  c #843F13",
"e  c #973B15",
"r  c #A22D03",
"t  c #A92F03",
"y  c #AC3204",
"u  c #A83507",
"i  c #B33304",
"p  c #BC3604",
"a  c #BC3A08",
"s  c #B83F11",
"d  c #AD3D15",
"f  c #893E24",
"g  c #C43904",
"h  c #CB3C05",
"j  c #CA3F09",
"k  c #D33F05",
"l  c #814614",
"z  c #854A14",
"x  c #8B4E16",
"c  c #844A19",
"v  c #894D19",
"b  c #824418",
"n  c #8C511C",
"m  c #93551C",
"M  c #96591E",
"N  c #99591F",
"B  c #9D4513",
"V  c #AC4415",
"C  c #B84917",
"Z  c #A25F1E",
"A  c #854B27",
"S  c #994B28",
"D  c #8E5524",
"F  c #8E5B2C",
"G  c #875429",
"H  c #965B23",
"J  c #9A5A21",
"K  c #915D2E",
"L  c #844934",
"P  c #855736",
"I  c #8E5F34",
"U  c #845C3E",
"Y  c #8C5F39",
"T  c #825839",
"R  c #984C35",
"E  c #A54E30",
"W  c #AC5838",
"Q  c #B65935",
"!  c #B34925",
"~  c #9B632C",
"^  c #8C6138",
"/  c #946134",
"(  c #9C6533",
")  c #95673B",
"_  c #9D743C",
"`  c #A26223",
"'  c #A4662C",
"]  c #A36C36",
"[  c #A36E3B",
"{  c #AB743B",
"}  c #A87936",
"|  c #B36434",
" . c #CD4109",
".. c #D84105",
"X. c #D4440A",
"o. c #C34E20",
"O. c #815B44",
"+. c #A85C41",
"@. c #8A6545",
"#. c #936544",
"$. c #9D6D43",
"%. c #97694A",
"&. c #997248",
"*. c #936D57",
"=. c #95735B",
"-. c #997759",
";. c #826655",
":. c #A76649",
">. c #A67343",
",. c #AB7742",
"<. c #A3774B",
"1. c #A77949",
"2. c #A67C58",
"3. c #B17A5A",
"4. c #836D62",
"5. c #8B796F",
"6. c #8A756B",
"7. c #957966",
"8. c #987766",
"9. c #8D7F76",
"0. c #997E73",
"q. c #A47D65",
"w. c #C16F51",
"e. c #B1833D",
"r. c #B88A3F",
"t. c #A88237",
"y. c #9E815A",
"u. c #A98346",
"i. c #AA854D",
"p. c #B4824E",
"a. c #B78D47",
"s. c #BD9648",
"d. c #A98959",
"f. c #BA8B5B",
"g. c #B48756",
"h. c #B3955B",
"j. c #B79557",
"k. c #AC9057",
"l. c #8E8077",
"z. c #958375",
"x. c #92837B",
"c. c #BC8D6A",
"v. c #B48C65",
"b. c #B59B64",
"n. c #B99665",
"m. c #A28E7E",
"M. c #AC8E6F",
"N. c #BFA469",
"B. c #BBA478",
"V. c #C79B46",
"C. c #C49553",
"Z. c #C8A854",
"A. c #D5AC51",
"S. c #D2AE4C",
"D. c #C68E6E",
"F. c #C2966A",
"G. c #C5996E",
"H. c #C19366",
"J. c #C69773",
"K. c #D39B7A",
"L. c #C1A764",
"P. c #C5AC67",
"I. c #CBB36D",
"U. c #D1B567",
"Y. c #C8A878",
"T. c #D4BD73",
"R. c #DAB770",
"E. c #E2C050",
"W. c #DEC164",
"Q. c #E6CB73",
"!. c #9C8D85",
"~. c #978B84",
"^. c #9D928E",
"/. c #9D9592",
"(. c #A18E81",
"). c #B08F83",
"_. c #A59488",
"`. c #B79989",
"'. c #A59B96",
"]. c #AA9D95",
"[. c #A69D99",
"{. c #A39791",
"}. c #ACA39E",
"|. c #B7A798",
" X c #ADA4A0",
".X c #AEAAA8",
"XX c #B1AAA6",
"oX c #B3ADAB",
"OX c #BAB2A6",
"+X c #BDB6AB",
"@X c #B5B0AE",
"#X c #BBB6B5",
"$X c #C3AF8F",
"%X c #C4A784",
"&X c #DFAB8C",
"*X c #C6B197",
"=X c #E4AE90",
"-X c #F1BC9F",
";X c #EDB395",
":X c #C0B6AE",
">X c #C0B9AE",
",X c #C2BBB1",
"<X c #C2BCBA",
"1X c #CFC4AE",
"2X c #C9C3BA",
"3X c #C4C0BD",
"4X c #D2C0B1",
"5X c #DAC4AD",
"6X c #C4C3C3",
"7X c #CFCECF",
"8X c #CFC9C3",
"9X c #CFCFD0",
"0X c None",
/* pixels */
"0X0X0X0X0X0X0X0X0X0X0X0X0X0X0X0X0X0X0X0X0X0X0X0X0X0X0X0X0X",
"0X0X0X0X0X0X0X0X0X0X0X0X0X0Xh.+X0X0X0X0X0X0X0X0X0X0X0X0X0X",
"0X0X0X0X0X0X0X0X0X0X0X0X0X*X2X9XoX0X0X0X0X0X0X0X0X0X0X0X0X",
"0X0X0X0X0X0X0X0X0X0X0X0X<XN.9X9X6X0X0X0X0X0X0X0X0X0X0X0X0X",
"0X0X0X0X0X0X0X0X0X0X0X0X1XP.P.R.P.|.0X0X0X0X0X0X0X0X0X0X0X",
"0X0X0X0X0X0X0X0X0X0X0X0X&.N.#.D.} u.0X0X0X0X0X0X0X0X0X0X0X",
"0X0X0X0X0X0X0X0X0X0X0X0Xg.Y.&X;XC.V.0X0X0X0X0X0X0X0X0X0X0X",
"0X0X0X0X0X0X0X0X0X0X0X0Xv.g.r.K.r.e.j.0X0X0X0X0X0X0X0X0X0X",
"0X0X0X0X0X0X0X0X0X0X0X0Xr.p.C.e.V.e.a.B.0X0X0X0X0X0X0X0X0X",
"0X0X0X0X0X0X0X0X0X0X0X0Xg.a.A.Z.B.m.$Xb.P.(.0X0X0X0X0X0X0X",
"0X0X0X0X0X0X0X0X0X0X0X0XC 7.2.].#XXX#X/.z.Q.h.0X0X0X0X0X0X",
"0X0X0X0X0X0X0X0X0X0X0X .C :.h g ).+.X.X.g B T.b.0X0X0X0X0X",
"0X0X0X0X0X0X0X0X0X0XE d Q ].i g p ..g p g g H I.0X0X0X0X0X",
"0X0X0X0X0X0X0X0X0X0X'.h g _.g t g p g k p h O F N.0X0X0X0X",
"0X0X0X0X0X9.0X*X&X%X%X X*.].Q g i Q 0.'.#.h q H P.Y.0X0X0X",
"0X0X0X0XoX^.0X`.c.J.-Xc.].XX<X~.!.6X}..X[.h q M h.h.0X0X0X",
"0X0X0X0X XoX[.3.K.=X3.F.c.Y.2.3 O.6XoX X'.h 8 n I N.0X0X0X",
"0X0X0X0X9.oXoX.X-.7.P >.[ p.g.{ - @X6X[.Q i w x ~ U.0X0X0X",
"0X0X0X5 9..X^.5.^./.7.XX/ ( ~ { < 6.6X0.h g O : M P.0X0X0X",
"0X0X0X0X~.5 0X0X^ , - {.@X!.3 [ < 4 @Xp i y ; n > Q.0X0X0X",
"0X0X0X0Xx.0X0X0X[ 1 9  X'.[.[.A = 5.7.[ n.g.: ` x N.0X0X0X",
"0X0X0X0X0X0X0X0X{ 4 E #X'. XXXs.R.#XB ..k s o N H P.0X0X0X",
"0X0X0X0X0X0X0X0Xp.0Xw.#X6X X[.z.r.S.E. .....h Z _ s.0X0X0X",
"0X0X0X0X0X0X0X0Xf.0X0Xi.2.g.$.A.S.V.h.a ..h p 6 k.e.0X0X0X",
"0X0X0X0X0X0X0X0X1.0X-.<.F.&.[ } &.i.g.i h k y k I.@.0X0X0X",
"0X0X0X0X0X0X0X4 ( 0XF.-.m.K *.].!.R.j.' i k t i S 0X0X0X0X",
"0X0X0X0X0X0X0X4 ] 4.f.'.d.K m.[. XI.Z.n.y i ..p V 0X0X0X0X",
"0X0X0X0X0X0X0X@.~ 7.{ .X2.K -. X6X X[ J.s t k r h 0X0X0X0X",
"0X0X0X0X0X0X0X%.K c.F '.f.7.#XXX X'.;.F.*Xg k h h 0X0X0X0X",
"0X0X0X0X0X0X0X<.^ f.G %.n.}.oX].*.&.d.,.G.g k ..h 0X0X0X0X",
"0X0X0X0X0X0X0X_ O.,./ q.Z.2.G.c.@.2.g.L F.8.k ..i Q 0X0X0X",
"0X0X0X0X0X0X0X>.0X8.2.&.+ O.#.2.%.^ c.P ,.5Xh ..r ! 0X0X0X",
"0X0X0X0X0X0X0X] 0X= % # # - O.*.T # - + $ H.f ..r ! 0X0X0X",
"0X0X0X0X0X0X0X` 0X0X@ - # - % + - . - - % p.4X..r R 0X0X0X",
"0X0X0X0X0X0X4 ' 0X0X> + @ % % + - % # # + & J.0 t 0X0X0X0X",
"0X0X0X0X0X0XT ` 0X0XD m + # % @ .     x x * f.`.t L 0X0X0X",
"0X0X0X0X0X0XY m 0X0Xl J N m x y O M N m N 6 F G.r e 0X0X0X",
"0X0X0X0X0X0X/ x 0X=.p l N N ; q i c z m , c 0 f.q.k 0X0X0X",
"0X0X0X0X0X0X[ c 0XQ p c > H x 6 i 7 c Y h.l u G J.g 7 0X0X",
"0X0X0X0X0X0X[ 1 0Xo.p 6 @.: ) p i p d b.Y.<.a 7 g.%.7 0X0X",
"0X0X0X0X0X0X[ T 0Xs p i H G o u p p 0 m J k.9 0 K %X:.0X0X",
"0X0X0X0X0X0XF =.0X0XQ B -.D > E r p y > %XI X y 0XQ.b.0X0X",
"0X0X0X0X0X0XH 0X0X0X0X$XF c -.0X0Xe A d.n J $ L 0XZ.U.0X0X",
"0X0X0X0X0X5 J 0X0X0X0X0Xc > : 0X0X0X0XG $.u.0X0X0X0XZ.0X0X",
"0X0X0X0X0X4 N 0X0X0X0X2 : ; : 0X0X0X0X1 : X 0X0X0X0X0X0X0X",
"0X0X0X0X0X#.v 8XOX_.^ v m z ; OXOXOXOXT ; ; =.0X0X0X0X0X0X",
"0X0X0X0X0X<., +X^ v o X ; ; , OXOXOXOXM l ; =.OXOX+X2X0X0X",
"0X0X0X2X,X&.1 +X+X+X,X,X2X2X0X0X,XOXm.N x l m.OX,X0X0X0X0X",
"0X0X0X0X0X0X0X0X0X0X0X0X0X0X0X2X,X+X@.K A U OXOX+X+X+X,X0X",
"0X0X0X0X0X0X0X0X0X0X0X0X0X0X0X0X0X0X0X0X0X0X0X0X0X0X0X0X0X"
};
