/* XPM */
static char *result[] = {
/* columns rows colors chars-per-pixel */
"50 50 212 2 ",
"   c #341C12",
".  c #2A290A",
"X  c #253409",
"o  c #28380B",
"O  c #2A3B0D",
"+  c #2B2114",
"@  c #2D2B13",
"#  c #342717",
"$  c #323212",
"%  c #2E2421",
"&  c #342421",
"*  c #392622",
"=  c #372A29",
"-  c #3E3529",
";  c #3E3F30",
":  c #4D2811",
">  c #492718",
",  c #532A15",
"<  c #5B321B",
"1  c #642F13",
"2  c #65351A",
"3  c #6A381B",
"4  c #7A3913",
"5  c #733D1C",
"6  c #472B22",
"7  c #473529",
"8  c #533B24",
"9  c #5C3B27",
"0  c #533C2B",
"q  c #463A36",
"w  c #643D26",
"e  c #723F22",
"r  c #29410E",
"t  c #2C4511",
"y  c #2E4A13",
"u  c #304C15",
"i  c #7B411E",
"p  c #594228",
"a  c #4B483B",
"s  c #564438",
"d  c #674528",
"f  c #6B452C",
"g  c #744223",
"h  c #7D4421",
"j  c #7A4827",
"k  c #7B4A2B",
"l  c #674A37",
"z  c #6E4F34",
"x  c #775638",
"c  c #7D633B",
"v  c #574B47",
"b  c #554B4A",
"n  c #5A4D4C",
"m  c #56544E",
"M  c #5B5956",
"N  c #614E49",
"B  c #685748",
"V  c #775D48",
"C  c #655B53",
"Z  c #675C59",
"A  c #59635C",
"S  c #71614F",
"D  c #676357",
"F  c #7C6758",
"G  c #5D6762",
"H  c #5B6A64",
"J  c #5C6E6B",
"K  c #5D726D",
"L  c #5C7574",
"P  c #676866",
"I  c #736F6B",
"U  c #756C68",
"Y  c #6A726D",
"T  c #627672",
"R  c #667C77",
"E  c #647E7B",
"W  c #7C7472",
"Q  c #747876",
"!  c #8C3B0B",
"~  c #963D07",
"^  c #8C461B",
"/  c #844A24",
"(  c #854C27",
")  c #8B5029",
"_  c #8B522C",
"`  c #92552A",
"'  c #97572A",
"]  c #875634",
"[  c #975E34",
"{  c #A15E2E",
"}  c #816A3E",
"|  c #99633A",
" . c #A7612F",
".. c #A46232",
"X. c #AB6532",
"o. c #A96939",
"O. c #B46A34",
"+. c #B66D37",
"@. c #BE7137",
"#. c #B5713C",
"$. c #BC723A",
"%. c #C2753A",
"&. c #C3773C",
"*. c #856448",
"=. c #996842",
"-. c #8A7244",
";. c #927948",
":. c #8E735B",
">. c #A36D43",
",. c #A97448",
"<. c #BB7741",
"1. c #B77946",
"2. c #A27552",
"3. c #847A77",
"4. c #C57D42",
"5. c #C97E42",
"6. c #5E807F",
"7. c #66817E",
"8. c #BE804D",
"9. c #BC8353",
"0. c #87827D",
"q. c #968375",
"w. c #C4834D",
"e. c #CC8549",
"r. c #CD854A",
"t. c #D18A4D",
"y. c #C68954",
"u. c #CC8D54",
"i. c #D38E52",
"p. c #CE925B",
"a. c #D59155",
"s. c #DA9355",
"d. c #D3945B",
"f. c #DA9659",
"g. c #D7985E",
"h. c #DD9A5C",
"j. c #E19D5D",
"k. c #E6A05F",
"l. c #CD9767",
"z. c #DD9E63",
"x. c #D79D69",
"c. c #E29F60",
"v. c #DFA064",
"b. c #E5A363",
"n. c #E9A665",
"m. c #EAA969",
"M. c #E6AD75",
"N. c #EAB27C",
"B. c #7C7E82",
"V. c #648383",
"C. c #678988",
"Z. c #6A8D8C",
"A. c #768C84",
"S. c #77928B",
"D. c #6B9393",
"F. c #6A9597",
"G. c #6D9B9C",
"H. c #769896",
"J. c #739D9C",
"K. c #75A09E",
"L. c #6D9FA1",
"P. c #739FA1",
"I. c #6EA1A2",
"U. c #72A4A4",
"Y. c #7BA3A1",
"T. c #71A7A9",
"R. c #75ABAC",
"E. c #7BACAD",
"W. c #76AEB0",
"Q. c #77B1B3",
"!. c #79B2B3",
"~. c #7AB8B9",
"^. c #878884",
"/. c #928B8B",
"(. c #93928D",
"). c #959A9D",
"_. c #9A9898",
"`. c #A59588",
"'. c #A29D92",
"]. c #A9A198",
"[. c #9C9EA1",
"{. c #9CA1A5",
"}. c #86B0AF",
"|. c #86B2B2",
" X c #8BB3B1",
".X c #98B8B5",
"XX c #A6A8A8",
"oX c #A8B9B4",
"OX c #B3B2B0",
"+X c #B4B7B8",
"@X c #D4B293",
"#X c #E7B684",
"$X c #ECBC8C",
"%X c #B4C2BB",
"&X c #C7C2B7",
"*X c #CCC3B4",
"=X c #CCC9BC",
"-X c #D4C6B8",
";X c #F1CEA9",
":X c #BBBFC1",
">X c #BBC3C6",
",X c #C3C5C7",
"<X c #C2CBCE",
"1X c #C3CED1",
"2X c #C6D1D4",
"3X c #CAD2D6",
"4X c #CBD5D9",
"5X c #CFDBDE",
"6X c #D0DBDF",
"7X c #D9DADA",
"8X c #D3DEE1",
"9X c #D6E1E5",
/* pixels */
"R.R.E.R.R.R.R.R.R.R.R.R.R.R.R.R.W.W.W.R.R.R.R.R.R.R.R.R.R.R.R.R.R.R.R.R.E.R.R.R.Q.R.R.R.R.Q.R.R.E.R.",
"R.R.R.R.R.R.R.R.R.T.R.R.R.T.W.R.G.D.D.U.Q.R.R.R.R.R.R.R.R.R.R.R.R.R.R.R.R.R.R.R.R.R.R.E.R.R.R.R.R.R.",
"R.R.R.R.E.R.R.R.R.R.R.R.R.Q.D.P V :.:.C L R.R.R.R.T.R.R.R.R.R.R.R.R.R.R.R.R.R.R.R.R.R.R.R.R.R.R.R.R.",
"R.R.R.R.R.R.R.R.R.R.R.R.R.6.V w.b.M.;X@X2.M G.Q.R.R.R.R.R.R.R.R.R.R.R.E.R.R.R.R.R.R.R.R.R.R.R.R.R.R.",
"R.R.R.R.R.R.R.R.R.R.R.R.A k a.n.b.n.m.#X;X9.l G.R.R.R.R.R.R.R.R.R.R.R.R.R.R.R.R.R.R.R.R.R.R.R.R.R.R.",
"R.R.R.R.R.R.R.R.R.R.R.R j s.m.b.v.p.h.j.v.m.,.M R.R.R.R.R.R.R.R.R.R.R.R.R.R.R.R.R.R.R.R.R.R.R.R.R.R.",
"E.R.R.R.R.R.R.R.R.R.W.D $.m.u.,.{ ^  .z.d.| 1.x F.W.R.R.E.R.R.R.R.R.R.R.R.R.R.R.R.E.R.R.R.R.R.R.R.R.",
"R.R.R.R.R.R.R.R.R.U.P f [ 1.5 ! ^ ~ ! u.y.k ] x D.Q.R.R.R.R.R.R.R.R.R.E.R.R.R.R.R.R.R.R.R.W.R.E.R.R.",
"R.R.R.R.R.R.R.R.R.G.1 ~ 4 | ^ ^ 4 5 _ z.p._ k x L.R.R.R.R.R.R.R.R.R.R.R.R.R.R.E.R.R.R.R.R.R.R.R.R.R.",
"R.W.R.R.R.R.R.R.R.U.P < 5 x.l.,.a.x.#Xb.4._ ( C R.R.R.R.T.R.R.R.R.R.R.R.R.R.R.R.R.R.R.R.R.R.R.R.E.R.",
"R.R.R.R.R.R.R.R.R.Q.F.x _ p.l.>.b.N.$Xz.$...w.x L Q.Q.R.R.R.R.R.R.R.R.R.R.R.R.R.R.R.R.R.R.R.R.R.R.R.",
"R.R.R.R.R.R.R.R.R.R.J.x  .1.w.8.9.d.i.$.r.n.s.1.x m V.T.R.R.R.R.R.R.R.R.R.R.R.R.R.R.R.R.R.R.R.R.R.R.",
"E.R.R.W.R.R.R.R.R.R.R.C $.g.>.| _ o.d.e.a.b.a.r.1.f x V G I.R.R.R.R.R.R.R.E.R.W.Q.Q.W.R.R.R.R.R.R.R.",
"R.R.R.R.R.R.R.R.E.T.J w <.w.` ) ..a.b.h.j.r.1.g.1.l.$X@X2.D U.R.R.R.R.R.R.R.U.Z.V.6.D.R.R.R.R.R.R.R.",
"R.R.R.R.R.R.R.R.I.D k 5 <.f.y.y.f.b.b.b.j.&.| p.m.n.n.#XN.] R ~.W.R.R.R.R.~.J q W /.C C.R.R.R.R.R.R.",
"R.R.R.R.R.R.R.I.S [ g 3 4.| | g.n.v.b.b.t.O.k u.k.z.b.k.j.` 0 K G.R.R.R.Z.Y q b [.<X3.0 Q U.R.R.R.R.",
"R.R.R.R.R.R.W.P g k ` 5 X.4.,.i.b.b.b.t.&./ _ v.f.5.a.j.$.2 | ;.l Z.W.L.B 1.w q J Z N o.>.C.Q.R.R.R.",
"R.R.R.R.R.R.U.7 k 4.%.` 5  .%.&.e.t.r.$./ _ g.b.v.t.&.@.i k M.;X@XC R.Z.] n.[ & 7 e <.c.9.R Q.R.R.R.",
"R.R.R.R.T.W.H : 1.m.4.+. ./ h ) ` ` ) 5 / a.n.v.b.b.5.' < ` h.M.$X>.B.B.[ w.p.f 2 ..d.m.2.C.!.T.R.R.",
"R.R.R.R.W.V.g 5 w.n.h.r.&.$.{ ' ^ ` )  .i.k.v.v.b.f.$.+.' h &.s.d.] - e / ( | f < ] 1.j.o.J Q.T.R.R.",
"R.T.R.E.F.N #.5 4.n.b.b.c.f.f.s.s.s.f.h.b.b.b.b.h.+.' @.+.i ' %.' e 1.d.[ e > & 6 e >.c.4.Z W.R.R.R.",
"R.R.R.W.G [ u.5 1.n.b.z.b.b.b.n.n.n.n.n.b.b.k.j.+.i X.@.@.X. .O.2 =.m.c.a.<.3 & e o.c.m.,.T Q.R.R.R.",
"R.R.R.G.*.f.i.5 o.j.b.b.c.z.c.f.i.u.a.f.h.k.a.X.3 ' %.X. .@.%.O.e p.v.5.a.4., & e | p.d.,.P Q.T.R.T.",
"R.R.W.D.z 5.j.) / #.o.[ ' o.s.<.` / h h h ( i < ` @.%.X./ $.@.X.] c.i.5.c.<., = 6 2 _ f.u.Z W.R.R.R.",
"R.R.R.U.s / f.o.3 2 5 ) $.d.n.c.c.h.t.#.{ _ ` X.&.&.$.O.2 ,.&.O.X.z.c.c.t. .6 = & > e 2.] G Q.R.R.R.",
"R.R.R.R.V.< e.y.2 e %.r.n.b.p.y.y.u.c.n.c.j.h.z.j.f.%.` m *.r.s.i.c.c.4._ 0 Z I W W 3.W I m J T.R.R.",
"R.R.R.R.R.M ` s.] w @.s.a.2.q.q.3.:.*.d.b.c.c.b.n.j.%.e D.Z.V 2.p.c.4.e n B.B.).{.XX+X+X:XXXZ H R.R.",
"R.R.R.R.R.G.l +.4.e +.c.>.n '.+Xv n 3.l f f f f x x / < G.!.I.C.B =.] s Z P P P P P P P I B.Q M R.R.",
"R.R.R.R.R.Q.6.j $./ ' o.9 6 U /.Z N '.7 = q & q = % 7 * 7.T.R.W.L.B.C.a b b b b n n n n v v v M R.R.",
"R.R.R.R.R.R.R.J k 5 6 q   U [.W 7X,XU & = q = a q = s * C C.R.R.R.!.T.L b q b b n M M Z P n m I.T.R.",
"R.R.R.R.R.R.R.R.T 6 q Z = * W :X3X0.  # @ @ @ + + + + # E R.R.R.R.T.T.~.L B.:X:X:X).:X1X2XXXH W.R.R.",
"R.R.R.R.R.R.R.J.Q N # + # + $ s a = o O y y u y y t o # J.R.R.R.R.R.R.W.J /.4X8X>X).2X8X2XOXP R.R.R.",
"R.R.R.R.R.R.R.R.U.H.; . y t O X o r y y y y y y y y X a U.R.R.R.R.T.R.W.T /.1X5X1X).2X8X>XOXQ R.R.R.",
"R.R.R.R.R.R.R.R.R.!.H . y t t y u u u y y y y y y y X - U.R.R.R.R.R.R.W.T (.<X5X1X).>X8X2X+XR T.R.R.",
"R.R.R.R.R.R.R.R.R.Q.7.o t t o r r o o o o r y y y y X ; U.R.R.R.R.R.R.R.T (.1X5X1X).1X8X1X+XY U.R.R.",
"R.E.R.R.R.R.R.R.R.R.J.- o y o X @ m K K A - o y y y X ; U.R.T.R.R.R.R.R.Y [.>X5X3X).>X8X<X+XQ U.R.R.",
"R.R.R.R.R.R.R.R.T.R.R.a X y t X 7 I.Q.W.!.R $ r y y X ; K.R.R.R.R.R.R.T.Y _.<X5X3X{.1X9X1X+X^.P.R.R.",
"R.R.R.E.R.W.R.R.R.R.W.A X y y . A W.R.R.R.E.n X r y X ; U.R.R.R.R.R.W.T.Y [.1X5X3XXX<X8X3X+XQ G.R.R.",
"R.R.R.R.R.R.R.R.R.R.W.7.. O O @ 7.Q.T.R.R.R.D.$ X r $ a I.R.R.R.R.R.R.U.I XX<X5X4X{.<X8X1X:XW D.W.R.",
"R.R.R.R.R.R.R.R.R.R.W.H.7 p p 7 C.W.R.R.R.R.R.A , x x s I.W.R.R.R.T.R.U.I XX1X5X4XXX>X8X1X:X3.Z.W.R.",
"R.R.R.R.R.R.R.R.R.T.W.H.a } 9.u 7.~.R.R.R.R.W.D.u q.} a G.W.R.R.R.R.R.I.P XX3X6X3XXX<X8X3X:X3.Z.W.R.",
"R.R.R.R.R.R.R.R.R.R.W.Z.p c ;.p 7.~.U.T.R.T.R.K.p c 9.p G.W.R.R.R.W.!.G.P :X8X8X2X{.<X8X3X1X0.Z.Q.R.",
"R.R.R.R.R.R.T.T.T.T.R.6.8 c -.p 7..X X X X X XK.8 } } d 7.Q.I.T.R.I.Q C l U XX4X6X{.>X9X3X_.s G J.R.",
"R.R.R.R.R.R.}..XoX%X0.8 c c l 8 `.-X*X=X=X*X=X'.8 p p 8 B %X%X XY.U f e 4   6 F ^.Z [.+XU , : : p Y ",
"R.R.R.R.R.R.%X*X-X-Xq.8 8 8 s `.*X*X*X*X*X*X-X].< 8 p : S *X*X*XoXY.S.F z w < < e 9 9 9 : , < 9 z A.",
"R.R.R.R.R.R.}. X.X%X%XXX'.'.OX=X&X&X*X&X*X*X*X%X'.0.^.(.XX%X.X XE.R.U.U.U.J.H.A.A.S.Y.H.A.A.J.J.K.W.",
"R.R.R.R.R.R.R.R.R.R.T.!.|.|..X}.}.}.}.}. X X|.|.|.|.~.Q.R.T.R.R.R.R.W.R.R.W.W.W.W.R.W.W.W.W.W.W.R.R.",
"R.R.R.R.R.R.R.R.R.R.W.T.W.T.T.R.R.R.T.R.T.T.T.R.R.T.R.R.R.R.R.R.R.R.R.R.R.T.R.R.R.R.R.R.T.R.T.T.R.R.",
"R.E.W.R.R.R.R.R.R.R.R.R.E.R.R.R.R.R.R.R.R.E.R.R.R.R.R.R.R.R.R.R.R.R.R.R.R.R.R.R.R.R.R.U.E.R.R.R.R.R.",
"R.R.R.R.R.R.R.R.R.R.R.R.R.R.R.R.W.R.R.R.R.R.R.R.R.R.R.R.R.R.R.E.R.R.R.R.R.R.R.R.R.R.R.R.R.R.R.R.R.R."
};
