/* XPM */
static char *result[] = {
/* columns rows colors chars-per-pixel */
"50 50 207 2 ",
"   c #2C1E09",
".  c #38170C",
"X  c #1F3004",
"o  c #262908",
"O  c #223406",
"+  c #26370A",
"@  c #2A3E0E",
"#  c #33241B",
"$  c #382719",
"%  c #2E3611",
"&  c #353A17",
"*  c #382824",
"=  c #4B1B03",
"-  c #4C2614",
";  c #492719",
":  c #532910",
">  c #4C351A",
",  c #5F3219",
"<  c #722F0A",
"1  c #67361A",
"2  c #6D391B",
"3  c #743E1D",
"4  c #442E24",
"5  c #493426",
"6  c #563827",
"7  c #4A3A37",
"8  c #513D38",
"9  c #693D23",
"0  c #713F21",
"q  c #2C4311",
"w  c #2F4A13",
"e  c #304C15",
"r  c #77411F",
"t  c #7A411E",
"y  c #4A422F",
"u  c #5E462B",
"i  c #5C4637",
"p  c #53433D",
"a  c #544B3A",
"s  c #69472C",
"d  c #7B4523",
"f  c #784728",
"g  c #68502E",
"h  c #684A38",
"j  c #764D33",
"k  c #6D5432",
"l  c #7A5539",
"z  c #7D633A",
"x  c #534746",
"c  c #5C5445",
"v  c #5C5354",
"b  c #5E595A",
"n  c #634D42",
"m  c #655244",
"M  c #6A5749",
"N  c #785947",
"B  c #675956",
"V  c #755D53",
"C  c #6E605C",
"Z  c #78655B",
"A  c #5D5D61",
"S  c #67666A",
"D  c #766A67",
"F  c #7E786B",
"G  c #797678",
"H  c #8C3B0B",
"J  c #974D1E",
"K  c #A0470F",
"L  c #834B27",
"P  c #844B26",
"I  c #8B4E26",
"U  c #8A512A",
"Y  c #955529",
"T  c #94562B",
"R  c #9C5B2C",
"E  c #895836",
"W  c #965C34",
"Q  c #A25D2D",
"!  c #81683B",
"~  c #9A6339",
"^  c #A3612F",
"/  c #A46233",
"(  c #A96938",
")  c #B36C36",
"_  c #BA6E36",
"`  c #B7743F",
"'  c #BD733A",
"]  c #C2753A",
"[  c #C67A3E",
"{  c #835E47",
"}  c #896646",
"|  c #926647",
" . c #8E7646",
".. c #886957",
"X. c #916D58",
"o. c #A56D41",
"O. c #A97348",
"+. c #AB7649",
"@. c #B37542",
"#. c #B57946",
"$. c #BD7A43",
"%. c #B77C4A",
"&. c #A17856",
"*. c #806B62",
"=. c #867367",
"-. c #917667",
";. c #937A6D",
":. c #877A76",
">. c #857D7B",
",. c #907C73",
"<. c #C47C42",
"1. c #C97F43",
"2. c #9A834D",
"3. c #BE814E",
"4. c #BC8351",
"5. c #89817E",
"6. c #9A8376",
"7. c #9D897E",
"8. c #AB896D",
"9. c #C98245",
"0. c #C3824B",
"q. c #CC864A",
"w. c #CD884D",
"e. c #D28A4C",
"r. c #C68A55",
"t. c #CC8B53",
"y. c #D28E52",
"u. c #CD905A",
"i. c #D59155",
"p. c #DA9455",
"a. c #D2935A",
"s. c #D8975A",
"d. c #DD9A5B",
"f. c #E19C5D",
"g. c #E5A15F",
"h. c #DC9C61",
"j. c #E29F61",
"k. c #DFA066",
"l. c #E4A363",
"z. c #E9A666",
"x. c #EDA967",
"c. c #EEAA69",
"v. c #F0AD6B",
"b. c #E5AB74",
"n. c #EAB27B",
"m. c #7F8185",
"M. c #888687",
"N. c #9B8D85",
"B. c #9C928D",
"V. c #989697",
"C. c #A6948A",
"Z. c #AD988D",
"A. c #A59A96",
"S. c #AFA295",
"D. c #ADA19B",
"F. c #B1A197",
"G. c #9DA0A2",
"H. c #A5A9AB",
"J. c #B7ABA6",
"K. c #BBB2AC",
"L. c #A9AEB1",
"P. c #ADB3B6",
"I. c #AFB6B9",
"U. c #BAB7B6",
"Y. c #B0B7B9",
"T. c #B3BABD",
"R. c #CFAB88",
"E. c #ECB986",
"W. c #C9BDAF",
"Q. c #C1B7B3",
"!. c #C2B9B6",
"~. c #C6BFBC",
"^. c #EFC499",
"/. c #CBC2B3",
"(. c #C8C1BE",
"). c #D2CABD",
"_. c #F4D4B0",
"`. c #B7BEC1",
"'. c #BBC2C5",
"]. c #CAC7C7",
"[. c #D4CBC3",
"{. c #D2CDCC",
"}. c #D8D1CA",
"|. c #C7D1D4",
" X c #CAD4D7",
".X c #CCD6D9",
"XX c #CED9DC",
"oX c #DBD5D1",
"OX c #D9D4D3",
"+X c #D0DBDE",
"@X c #DEDBDB",
"#X c #E2DDD7",
"$X c #E3DEDA",
"%X c #E6E1DC",
"&X c #E9E4DE",
"*X c #D2DEE1",
"=X c #D6E1E4",
"-X c #DCE4E8",
";X c #E4E1E1",
":X c #EAE6E3",
">X c #ECE9E4",
",X c #EDEBEB",
"<X c #F1EEEC",
"1X c #F3F0EE",
"2X c #F5F3F3",
"3X c #F8F7F7",
"4X c #FFFFFF",
/* pixels */
"4X4X4X4X4X4X4X4X4X4X4X4X4X4X4X4X4X4X4X4X4X4X4X4X4X4X4X4X4X4X4X4X4X4X4X4X4X4X4X4X4X4X4X4X4X4X4X4X4X4X",
"4X4X4X4X4X4X4X4X4X4X4X4X4X4X4X4X4X4X4X4X4X4X4X4X4X4X4X4X4X4X4X4X4X4X4X4X4X4X4X4X4X4X4X4X4X4X4X4X4X4X",
"4X4X4X4X4X4X4X4X4X4X4X4X4X4X3X4X4X4X4X4X4X4X4X4X4X4X4X4X4X4X4X4X4X4X4X4X4X4X4X4X4X4X4X4X4X4X4X4X4X4X",
"4X4X4X4X4X4X4X4X4X4X4X4X4X4X4X4X4X4X4X4X4X4X4X4X4X4X4X4X4X4X4X4X4X4X4X4X4X4X4X4X4X4X4X4X4X4X4X4X4X4X",
"4X4X4X4X4X4X4X4X4X4X4X4X4X;X(.K.].2X4X4X4X4X4X4X4X4X4X4X4X4X4X4X4X4X4X4X4X4X4X4X4X4X4X4X4X4X4X4X4X4X",
"4X4X4X4X4X4X4X4X4X4X4X4XD.} O.8.X...U.4X4X4X4X4X4X4X4X4X4X4X4X4X4X4X4X4X4X4X4X4X4X4X4X4X4X4X4X4X4X4X",
"4X4X4X4X4X4X4X4X4X4X@X-.o.j.c.E._.R.X.C.3X4X4X4X4X4X4X4X4X4X4X4X4X4X4X4X4X4X4X4X4X4X4X4X4X4X4X4X4X4X",
"4X4X4X4X4X4X4X4X4XOXN @.c.z.z.j.h.E.n.~ C.4X4X4X4X4X4X4X4X4X4X4X4X4X4X4X4X4X4X4X4X4X4X4X4X4X4X4X4X4X",
"4X4X4X4X4X4X4X4X4X7.Q c.j.a.%.#.h.l.a.a.E {.4X4X4X4X4X4X4X4X4X4X4X4X4X4X4X4X4X4X4X4X4X4X4X4X4X4X4X4X",
"4X4X4X4X4X4X4X4X@XN $.u.W J K H o.h.W E E J.4X4X4X4X4X4X4X4X4X4X4X4X4X4X4X4X4X4X4X4X4X4X4X4X4X4X4X4X",
"4X4X4X4X4X4X4X@X0 H I U < H < 1 / l.~ f j !.4X4X4X4X4X4X4X4X4X4X4X4X4X4X4X4X4X4X4X4X4X4X4X4X4X4X4X4X",
"4X4X4X4X4X4X4X$Xl 1 d r.o./ @.%.h.h./ d N @X4X4X4X4X4X4X4X4X4X4X4X4X4X4X4X4X4X4X4X4X4X4X4X4X4X4X4X4X",
"4X4X4X4X4X4X4X4X].f W b.8.$.c.^.E.q.Y / { !.4X4X4X4X4X4X4X4X4X4X4X4X4X4X4X4X4X4X4X4X4X4X4X4X4X4X4X4X",
"4X4X4X4X4X4X4X4XOXE W <.0.<.h.k.t.<.y.d.%.{ A.;X4X4X4X4X4X4X4X4X4X4X4X4X4X4X4X4X4X4X4X4X4X4X4X4X4X4X",
"4X4X4X4X4X4X4X4X4X..<.u.O.| W <.q.<.l.d.1.#.9 n ;.K.4X4X4X4X4X4X4X4X4X4X4X4X4X4X4X4X4X4X4X4X4X4X4X4X",
"4X4X4X4X4X4X4X4XJ.h <.@.U L ) s.j.j.p.0.h.4.%.b.R.} A.4X4X4X4X4X4X4X4X2X$X@X:X4X4X4X4X4X4X4X4X4X4X4X",
"4X4X4X4X4X4X4XZ.0 3 0.a.<.0.f.z.l.z.e./ 4.x.z.b.^.n.E {.4X4X4X4X3X4X3XB v :.C ~.3X4X4X4X4X4X4X4X4X4X",
"4X4X4X4X4X2X7.U 3 t $.~ +.z.l.f.l.p.[ U +.l.d.l.f.f.T B U.3X4X4X3X!.7.* M.'.V.h F.<X4X4X4X4X4X4X4X4X",
"4X4X4X4X4XD.9 j I 3 ) $.@.d.g.l.d.9.Q 0 t.j.9.y.f.' 1 ~ | -.,X4X!.| | 4 A S n W o.K.4X4X4X4X4X4X4X4X",
"4X4X4X4X2Xn f w.] I t ( ] <.q.e.<.R d 0.z.l.y.] ] r L n._.8.N.4X7.$.j.; * 9 / j.t.F.4X3X4X4X4X4X4X4X",
"4X4X4X4XD.- #.z.<._ Q d P I I I t t $.z.l.j.z.q.Y , Y d.n.n.| ].*.@.1.O.; E 1.v.#.J.4X3X4X4X4X4X4X4X",
"4X4X4X].j 3 0.z.f.e.1.' / Q Q R ^ q.l.l.l.l.p._ _ Q 3 ] y.e.d s L 0 L N ; 0 O.i.@.,.4X4X4X4X4X4X4X4X",
"4X4X2XV @.d $.z.l.l.j.f.f.f.p.f.f.l.l.l.l.d.) Y ] _ d R _ 3 f h.y.T , . * 2 ( h.t.;.4X4X4X4X4X4X4X4X",
"4X4XF.E y.r @.l.l.z.z.z.z.z.x.x.z.z.l.z.d.) d / _ _ ) ) Q , u.z.p.i.W ; 6 W a.v.#.C.4X4X4X4X4X4X4X4X",
"4X4X-.0.d.L R p.f.i.q.y.p.0.@.o.@.0.t.<.R 3 R ] / Q _ ] Q U l.w.w.s.d # 5 P O.t.3.;.4X4X4X4X4X4X4X4X",
"4X4X..R f.^ 3 Y I P T 0.p.@.~ T P 3 3 3 2 Y ] _ ) d ' ] Q ( j.t.j.p.I $ * - 9 1.w.;.4X4X4X4X4X4X4X4X",
"4X4XJ.: w.%.1 1 Y ) p.x.c.x.c.c.f.w.$.` <.q.q.] ^ 9 o.e.' <.j.l.y.Q s 7 7 4 8 { s B ,X4X4X4X4X4X4X4X",
"4X4X4XZ Q s.9 3 [ p.l.r.O.&.&.O.d.c.v.c.z.x.l.[ I J.6.o.y.l.l.w.U x S M.V.H.J.L.L.5.B {.4X4X4X4X4X4X",
"4X4X4XOXj 1.#.2 ' j.O.D K.V.D D } +.O.+.%.4.4.) f :X4XU.6.o.<.U x S G G m.M.M.M.V.G.G G 4X4X4X4X4X4X",
"4X4X4X4XA.I <.L ) r.j 7 V.>.$ D D # 5 * * * * 5 4 OX4X4X2XZ.7.-.x v b b b b A b b B b D 4X4X4X4X4X4X",
"4X4X4X4X3X-.I L 9 6 $ D M.M.U.V.b * x * 7 7 * p * :.{.4X4X4X4X{.B 8 7 7 x x x x x 8 B ~.4X4X4X4X4X4X",
"4X4X4X4X4X2X7.; 7 B * v V.].;XB # # # # # # # * # B.:X4X4X4X4X4X;XD M.V.G.M.V.L.I.V.B.4X4X4X4X4X4X4X",
"4X4X4X4X4X2XB.8 * * #   x D c % + @ q q q q @ o $ &X4X4X4X4X4X4X,X:.`.*X*XH.`.*XXX`.B.4X4X4X4X4X4X4X",
"4X4X4X4X4X2X$X!.4 % q @ O o O @ w w e e e e e O y 1X4X4X4X4X4X4X,X>.P. XXXH.`.XX'.H.A.4X4X4X4X4X4X4X",
"4X4X4X4X4X4X4X4XF X w q e e e e e e e e w w w O a 2X4X4X4X4X4X4X,X5.P. X+XH.I.*XXXI.G.4X4X4X4X4X4X4X",
"4X4X4X4X4X4X3X4XD.o w q + @ @ O + + + q w w e O a 1X4X4X4X4X4X4X%X5.I..X+XH.I.*X'.`.V.3X4X4X4X4X4X4X",
"4X4X4X4X4X4X4X4XOX& @ w + o 4 N.A.B.m O w e e O a 2X4X4X4X4X4X4X@X>.Y.XX+XH.L.*X|.I.A.2X4X4X4X4X4X4X",
"4X4X4X4X4X4X4X4X3Xc O e w o >.4X4X4X,Xa O w e O a 2X4X4X4X4X3X4X#X5.I..XXXL.`.=X XI.A.<X4X4X4X4X4X4X",
"4X4X4X4X4X4X4X4X4XF O e q $ OX4X3X3X4XK.o @ w O a 2X4X4X4X4X4X4X}.>.`..X+XI.`.*X.XT.N.;X4X4X4X4X4X4X",
"4X4X4X4X4X4X4X4X4XD.o % O i 2X4X4X4X4X4XZ   & $ h 2X4X4X4X4X4X4X].>.`..X*XI.P.*X X`.5.{.4X4X4X4X4X4X",
"4X4X4X4X4X4X4X3X4X{.7 g u M 2X4X4X4X3X4X(.6 z ! m ,X4X4X4X4X4X4X].>.`.+X+XY.T.*X|.'.,.OX4X4X4X4X4X4X",
"4X4X4X4X4X4X4X4X4X].u  .z k 2X4X4X4X4X4X4XZ !  .u :X4X4X4X4X3X4XU.5.].+X+XY.T.*X.X'.M.{.4X4X4X4X4X4X",
"4X4X4X4X4X4X4X4X4X~.6  .! i ,X4X4X4X4X4X4XZ z 2.i %X4X4X4X4X4X4XA.>..X*X*XP.L.*XXX|.>.].4X4X4X4X4X4X",
"4X4X4X4X4X4X4X4X#X=.g } z 6 ].:X%X%X%X&X%XV g ! s D.4X4X4X1XJ...l 6 M H.|.L.I.-X|.:.6 V Q.<X2X4X4X4X",
"4X4X4X4X<XoX).}.=.- k g 6 Z /./././.W./.W.i > > > h ).[.%X}.C.} 0 = . = h i M 5.6 . = = , 7.}.4X4X4X",
"4X4X4X4X&X}.).).S.Z M M 7./././././././.W.=.h m m 5.).).}.<X4X}.Q.Z.6.X.X.X.6.;.....6.6.F.<X4X4X4X4X",
"4X4X4X4X4X4X3X2X1X1X>X:X&X#X#X#X#X#X#X#X%X%X#X%X<X2X3X4X4X4X4X4X4X4X4X4X2X1X4X4X4X3X4X4X4X4X4X4X4X4X",
"4X4X4X4X4X4X4X4X4X4X4X4X4X4X4X4X4X4X4X4X4X4X4X4X4X4X4X4X4X4X4X4X4X4X4X4X4X4X4X4X4X4X4X4X4X4X4X4X4X4X",
"4X4X4X4X4X4X4X4X4X4X4X4X4X4X4X3X4X4X4X4X4X4X3X4X4X4X4X3X4X4X4X4X4X4X4X4X4X4X4X4X4X4X4X4X4X4X4X4X4X4X",
"4X4X4X4X4X4X4X4X4X4X4X4X4X4X4X4X4X4X4X4X4X4X4X4X4X4X4X4X4X4X4X4X4X4X4X4X4X4X4X4X4X4X4X4X4X4X4X4X4X4X"
};
