/* XPM */
static char *result[] = {
/* columns rows colors chars-per-pixel */
"50 50 196 2 ",
"   c #004C7F",
".  c #005275",
"X  c #00557D",
"o  c #00597E",
"O  c #185A77",
"+  c #26576E",
"@  c #3F5D6F",
"#  c #295F7E",
"$  c #19607D",
"%  c #39627A",
"&  c #326E78",
"*  c #51525C",
"=  c #735C5B",
"-  c #516C56",
";  c #7A6257",
":  c #627558",
">  c #485969",
",  c #5B626E",
"<  c #4E736E",
"1  c #49667A",
"2  c #59697B",
"3  c #6B6669",
"4  c #657B60",
"5  c #7E7166",
"6  c #A0543C",
"7  c #866E3C",
"8  c #BE6938",
"9  c #FC5A1D",
"0  c #FF6B1C",
"q  c #FF7F19",
"w  c #DE562D",
"e  c #C55837",
"r  c #DA5932",
"t  c #E75729",
"y  c #FF5F2A",
"u  c #E25B30",
"i  c #DC7B2F",
"p  c #CA623A",
"a  c #D86736",
"s  c #FC6424",
"d  c #FF6425",
"f  c #FF6C29",
"g  c #E57128",
"h  c #FB7826",
"j  c #E66636",
"k  c #885649",
"l  c #935C4E",
"z  c #845B53",
"x  c #8E5E55",
"c  c #935F53",
"v  c #A85D48",
"b  c #B25E46",
"n  c #91774E",
"m  c #96695A",
"M  c #9D735D",
"N  c #AB624C",
"B  c #B0714F",
"V  c #8C6966",
"C  c #867064",
"Z  c #826372",
"A  c #837E72",
"S  c #D86644",
"D  c #50827C",
"F  c #B29235",
"G  c #FC8618",
"H  c #FE8E1E",
"J  c #ED9B1F",
"K  c #FC961B",
"L  c #D7BD1F",
"P  c #FFA30E",
"I  c #FAB80C",
"U  c #FEA415",
"Y  c #FCAB14",
"T  c #FCA41D",
"R  c #F7AD1A",
"E  c #FCAB1A",
"W  c #EDB615",
"Q  c #FAB315",
"!  c #F9B317",
"~  c #FABC12",
"^  c #F7B319",
"/  c #CE8E3E",
"(  c #D09131",
")  c #FA8224",
"_  c #FA8C23",
"`  c #FF9A25",
"'  c #F69828",
"]  c #E88932",
"[  c #C8B031",
"{  c #EBAA20",
"}  c #FCA521",
"|  c #FFC306",
" . c #FECB04",
".. c #FBC50C",
"X. c #F6C90A",
"o. c #FCCC0A",
"O. c #FDD505",
"+. c #FCDB05",
"@. c #FAD50B",
"#. c #F6DD09",
"$. c #FADB09",
"%. c #FAC413",
"&. c #F5C813",
"*. c #FDE403",
"=. c #FDEC03",
"-. c #F8E608",
";. c #F7EC0A",
":. c #FBF305",
">. c #FBFB03",
",. c #9F9441",
"<. c #AB844F",
"1. c #B68A45",
"2. c #A8924F",
"3. c #BE9443",
"4. c #AAA74F",
"5. c #918465",
"6. c #005683",
"7. c #0C5780",
"8. c #005B84",
"9. c #005689",
"0. c #005D8B",
"q. c #115E89",
"w. c #005E92",
"e. c #005F9D",
"r. c #006085",
"t. c #00628C",
"y. c #0B658D",
"u. c #18658A",
"i. c #006493",
"p. c #0B6693",
"a. c #006996",
"s. c #00659B",
"d. c #006B9C",
"f. c #0B6999",
"g. c #106A97",
"h. c #00709F",
"j. c #08709F",
"k. c #1A719E",
"l. c #256888",
"z. c #396985",
"x. c #2B6F95",
"c. c #2C739A",
"v. c #3A7297",
"b. c #0166A3",
"n. c #006DA3",
"m. c #0067A8",
"M. c #006DAB",
"N. c #0072A4",
"B. c #0D72A3",
"V. c #0074AB",
"C. c #0078AE",
"Z. c #097AAE",
"A. c #1579AD",
"S. c #006EB2",
"D. c #0075B3",
"F. c #007AB4",
"G. c #0074BC",
"H. c #007CBB",
"J. c #1D7DB2",
"K. c #2B7AA5",
"L. c #436881",
"P. c #517392",
"I. c #61708C",
"U. c #72778B",
"Y. c #4478A8",
"T. c #0076C1",
"R. c #007DC2",
"E. c #007CCB",
"W. c #0077D4",
"Q. c #007FD1",
"!. c #007FEB",
"~. c #3E8181",
"^. c #0082BC",
"/. c #2181B8",
"(. c #598F94",
"). c #0082C4",
"_. c #0084CC",
"`. c #0089CD",
"'. c #0E88CA",
"]. c #0084D3",
"[. c #008BD4",
"{. c #0084DC",
"}. c #008CDB",
"|. c #1382D2",
" X c #0090D7",
".X c #0091DC",
"XX c #0085E2",
"oX c #0089E5",
"OX c #008CEC",
"+X c #0092E4",
"@X c #0096EA",
"#X c #008FF0",
"$X c #0092F4",
"%X c #009AF2",
"&X c #0097FA",
"*X c #0098F9",
/* pixels */
"b.F.H.R.R.).H.H.H.H.R.H.H.G.D.b.9.b.C.V.C.D.V.D.V.M.N.N.V.N.M.M.n.M.).[.}.}.[.[.[.]._.).R.H.F.D.M.s.",
"F.].}.}.}.}.}.[.[.]._._.).H.H.V.i.N.C.C.C.^.F.F.F.F.F.F.F.D.V.C.N.C. X@X@X@X@X@X+X+X@X+X}.[._.).H.C.",
"R.}.+X+X+X+XoX.X}.}.}.[.[._.[.).i.N.V.C.C.F.F.^.H.H.^.H.H.F.F.F.C.F.@X%X%X%X%X%X%X@X@X+X+X}.]._.R.D.",
"R.}.}..X}.}.}.}.}.[.].[._._._.R.a.h.N.N.V.C.C.F.F.F.B.C.F.C.C.C.V.F.@X%X%X%X%X%X@X@X+X+X}.}._.).D.a.",
"H._.].}.[.[.]._._.).R.H.H.R.R.F.i.d.h.h.N.N.N.N.V.C.% j.C.V.V.N.N.F.+X@X@X@X@X@X+X+X+X}.[._.F.V.b.i.",
"F._._._.).).).R.R.F.H.G.F.G.F.C.i.a.a.a.a.a.a.i.h.N.N.N.N.V.N.N.n.D.}.oX.X+X{.}.}.}.]._.H.V.n.C.H.F.",
"m.F.H.H.H.F.F.F.F.F.D.D.D.V.C.n.t.r.r.r.r.0.r.6.i.> > N.h.d.d.d.a.d.R._._.R.H.F.F.F.F.C.b.d.V.^.^.C.",
"i.M.V.V.D.V.N.M.d.d.M.N.N.M.b.i.t.0.0.8.8.r.O ; 8.= k s.p.i.a.a.t.w.N.D.N.M.N.N.M.M.M.a.i.d.N.V.N.s.",
"b.M.n.n.N.N.N.s.9.i.m.M.M.N.M.D.V.m.b.s.s.b.l.> i.> x D.D.V.M.D.M.M.M.d.b.b.b.d.s.w.i.i.i.s.d.d.s.n.",
"C.N.V.N.V.N.N.a.i.N.F.H.H.^.)._._.).).H.F.F.N.N.V.L.v.`.[.[.[.J.[.`.).).^.H.H.F.N.d.n.N.N.N.C.C.V.V.",
"C.C.V.V.V.N.h.h.a.C.F.^.).)._.`.`._.`.`._.R.^.Z.V.A.[.+X.X+X}.'. X[.`.`._.).^.F.C.s.N.V.C.C.C.C.C.C.",
"C.V.N.N.N.N.N.h.a.V.F.F.H.^.).)._.)._._.).R.H.D.n.H._./. X X[.}.[.`.).`.).^.F.C.N.i.a.N.M.N.N.N.N.V.",
"V.N.N.h.N.h.N.a.t.N.V.V.F.F.H.^.^.).A.c.R.F.F.V.a.R.K.j /.[.].`.`._.`.^.H.F.F.N.a.r.a.h.h.N.N.N.N.h.",
"a.a.a.d.d.a.a.t.t.d.N.N.V.C.C.F.F.F.k.x.F.V.N.n.i.F.C G P.[.).).).^.^.F.F.C.d.a.i.0.i.d.a.d.h.d.a.i.",
"t.r.t.t.t.t.r.r.0.a.d.h.N.N.V.V.V.V.V.V.N.d.a.a.i.D.3 b H.^.).^.H.F.F.C.N.d.a.i.t.6.r.t.t.a.i.t.t.r.",
"r.0.0.8.o r.o 8.6.r.i.a.i.a.a.d.d.d.i.i.s.i.s.0.9.s.; e B.V.N.N.N.n.a.a.a.t.r.r.6.. 0.r.0.0.r.r.r.0.",
"9.0.0.0.0.r.0.9.9.6.o 6.t.a.i.0.o X 6.X > * + 6.6.7.6 y z w.0.0.r.0.0.0.6.6.6.6.6.6.9.9.9.8.6.9.0.6.",
"N.C.F.F.H.H.F.F.V.N.N.b.s.N.C.M.0.t.b.% f f u u.n.b.b.b c b.i.9.9.0.n.V.V.C.C.C.C.C.V.V.N.M.N.N.i.9.",
"C.R._._._.[.[._._.]._.F.d.a.V.C.i.d.H.z.r j y 2 H.F.F.v 1 M.g.z # a.V.^.^.^.H.^.H.^.F.F.C.N.V.N.d.i.",
"N.^._._.)._._.`._.]._._.F.b.i.t.0.M.F.k., c.d V H.H.k.u 1 F., 9 $ d.N.C.C.F.F.F.F.F.F.F.C.C.C.V.n.i.",
"b.F.H.).)._._._._._._.).R.F.a.0.9.N.D.C.Z.B.j L.F.F.L.d V M.l.N = i.h.N.V.V.C.C.V.C.D.C.V.V.V.V.N.i.",
"i.n.C.H.H.R.R.R.R.H.F.D.M.M.V.b.t.n.C.C.V.D.z 1 G.N.b.v a u.f.1 v t.t.a.h.N.N.N.N.N.N.N.N.N.N.N.d.i.",
"0.s.d.M.D.F.D.V.M.b.b.s.s.s.s.d.t.a.N.n.b.N.j.M.l.% m.3 d p i f u + 0.o r.t.a.a.d.n.N.N.n.h.d.n.a.i.",
"6.t.i.i.i.s.s.i.i.s.i.i.i.w.i.0.0.t.i.i.i.i.i.@ w = s.x d H ..~ h e o o X o o o r.r.t.t.i.a.i.t.0.8.",
"9.i.i.s.i.s.i.0.w.i.0.w.0.i.0.9.9.9.r.9.8.9.; h ` 7 - g r _ G ) ) e 0.0.6.o 6.6.X X 9.9.0.0.0.9.0.9.",
"Q.E.].E.E.E.T.b.s.C.C.D.V.C.C.N.N.N.g.l g.i.a ` ^ T U M P.9 t ) q Z Q.G.S.S.S.M.s.9.D.E.E.E.E.E.E.E.",
"#X#X$XOX#X#XoXG.n.F._.].].[.[.]._.}.m b R.T.B } ' T / !.I.9 u s d Y.XXQ.E.E.E.E.S.s.].OXoXOXOX#X@X#X",
"#X$X$X$X#X#XoXT.M.)._._.].[.}.].}.{.B _ 3.A ] } ^  .3.XXU.0 S I.Y.{.{.{.].].E.R.G.m.{.oXoXOXOX#X#X#X",
"#X#X#XOXOXOXoXE.M.R._._._.].]._.}.P.} o. .P E o.O.O.J M ] 0 B !.{._.Q._._.E.R.T.V.s.E.XXXXoXoXOXOX#X",
"oXoXoXoXXX{.Q.E.V.H._.E._._._._.].5.| ..X.! ! O.+.+.I I Y G V E.).E.E.R.H.R.G.F.M.s.E.{.{.{.oXoXoXoX",
"{.Q.W.E.E.E.E.T.M.H.R.).R.).E.).E.2.| R R Q R Q @.*.~ W O.P m H.H.E.R.H.G.F.F.V.a.w.G.].{.{.XXQ.{.XX",
"E.E.T.G.G.G.T.G.b.V.F.G.G.D.D.D.S.<.T R ~ ! ! T R $.~ &.I H p s.S.D.M.N.M.M.b.d.0.9.D.T.R.E.W.E.E.E.",
"S.G.T.G.D.S.S.M.t.s.m.n.n.m.n.d.b.5 U ..! R T } T o.@.$.Q _ h 8 q.i.i.s.i.i.i.r.9.6.s.M.S.S.G.S.G.S.",
"e.G.H.F.F.V.m.b.d.i.i.a.a.s.a.i.9.l.{ E ~ ! } R R $.*.+.I _ } G k 9.s.n.N.N.M.d.d.i.i.i.w.w.w.w.9.9.",
"N.^.^.^.^.^.^.^.).^.^.^.^.^.F.C.d.V.1.I #.o.%.%.@.-.%.o...K K U a p.N.N.V.V.C.C.C.N.N.n.a.a.s.a.i.t.",
"C.`.[.[. X X X X X.X X X`.`.`.^.N.D.5.| -.;.:.:.:.>.@.~ ~ ~ ..U g y.N.V.V.C.C.C.D.C.D.C.C.N.M.C.V.d.",
"C.`.`.`. X X X X[. X X}. X`. X^.h.F.D o.:.>.>.>.>.>.:.~ ~ -.-. .n a.j.h.h.N.N.V.C.N.C.N.V.N.C.V.N.n.",
"N.^.).`.`.`.`.`.[.[.`.`.`.`.`.^.j.G.D O.>.>.>.>.>.>.>.-.-.:.-.O.: i.t.a.a.h.h.N.N.N.n.N.M.N.V.N.N.a.",
"n.^.^.).).`.).`.).^.^.F.F.^.^.^.a.m.~.$.>.>.>.>.>.>.>.>.>.>.:.@.4 w.o o 8.r.t.a.a.n.N.d.n.n.M.d.a.r.",
"i.F.^.F.F.F.C.N.V.N.N.N.h.h.N.h.y.i.& @.:.>.>.>.>.>.>.>.>.>.:.%.& 0.X . o o o 6.r.i.d.a.a.a.a.i.8.8.",
"0.n.n.d.d.a.a.a.i.a.s.i.i.t.a.t.X 6.O W -.:.>.>.>.>.>.>.>.:.>.F X X . . . . . . X . X X X 6.6.o 0.6.",
"w.i.i.i.i.i.t.9.0.i.i.i.i.i.i.0.9.9.9.F *.;.>.:.>.>.>.>.>.#.O.:   X X X X X 6.X 6.X X o 6.8.0.r.r.t.",
"C.V.V.N.N.N.N.d.m.].{.{.{.{.XX{.Q.].XX|.[ +.;.-.:.>.>.:.;.| ( j.b.V.D.F.F.C.D.C.F.C.b.N.N.N.N.N.N.V.",
"D.F.C.C.C.N.h.h.R.$X*X*X*X&X$X$XOXOXoX#X|.4.O.=.=.=.:.*.O.F l.N.V.F.^.H.).).).).).F.N.N.V.C.C.F.F.F.",
"V.V.N.N.N.h.d.h.R.#X$X&X&X$X$X$X#XOXOXoXoXXX(.4.[ L [ ,.< a.h.N.C.F.F.^.H.H.^.^.^.V.h.N.N.N.V.V.V.V.",
"N.N.h.h.h.h.a.d.T.OX$X#X#X$X$X#X#XOXOXoXXX{.XXW.n.y.0.i.h.a.N.N.V.C.F.F.F.C.F.C.C.N.a.h.h.N.h.N.h.N.",
"h.h.a.a.a.a.a.i.G.XXOXOX#XOXOXoXoXoXoX{.{.Q.].R.N.t.i.a.h.h.N.N.N.N.N.d.d.N.n.h.h.d.a.a.d.h.h.h.d.h.",
"i.t.t.t.t.t.t.i.S.Q.XXXXoXoXoXoXXX{.{.].Q.E.T.G.d.t.t.t.a.a.a.a.d.a.a.i.a.a.a.a.a.i.t.t.a.a.a.t.a.t.",
"8.r.8.o o o o r.m.G.T.W.E.].W.Q.Q.Q.E.E.G.S.m.s.i.r.r.r.r.r.t.t.r.r.t.t.t.t.i.t.t.t.8.r.r.r.r.r.r.0.",
"o o o o o o o X w.m.M.m.S.M.S.m.M.S.S.M.s.e.w.w.w.6.o o o 9.8.o o 0.r.r.0.r.t.t.t.6.o o o 6.8.8.o o "
};
