/* XPM */
static char *result[] = {
/* columns rows colors chars-per-pixel */
"50 50 192 2 ",
"   c #004E7D",
".  c #005275",
"X  c #00567C",
"o  c #00597E",
"O  c #0C597B",
"+  c #185D74",
"@  c #23546D",
"#  c #34566B",
"$  c #275C78",
"%  c #3F5E70",
"&  c #2E6465",
"*  c #3C647C",
"=  c #5B575D",
"-  c #6E5657",
";  c #755954",
":  c #75605C",
">  c #4A5966",
",  c #5A5E66",
"<  c #6E5F66",
"1  c #58636B",
"2  c #476578",
"3  c #5B6F7B",
"4  c #6F6E60",
"5  c #7B6766",
"6  c #766865",
"7  c #6F6B76",
"8  c #AB3B10",
"9  c #AE593A",
"0  c #BD5534",
"q  c #AE603C",
"w  c #FE5A1A",
"e  c #FF7D1E",
"r  c #D9582C",
"t  c #C55834",
"y  c #E85E28",
"u  c #FD5C26",
"i  c #E25E31",
"p  c #DE6125",
"a  c #D16636",
"s  c #DA7434",
"d  c #E76B28",
"f  c #FD6C25",
"g  c #F2652B",
"h  c #F66929",
"j  c #FE6C2A",
"k  c #EB792D",
"l  c #FF7125",
"z  c #FC7A2D",
"x  c #E26936",
"c  c #E77C36",
"v  c #F67D32",
"b  c #FA7B31",
"n  c #8E5648",
"m  c #9A5947",
"M  c #936654",
"N  c #AE6F4F",
"B  c #B76544",
"V  c #AE714E",
"C  c #806964",
"Z  c #976F61",
"A  c #9A7168",
"S  c #C76D45",
"D  c #C97245",
"F  c #74965A",
"G  c #909536",
"H  c #A99836",
"J  c #ACA432",
"K  c #B4A535",
"L  c #FF8B0F",
"P  c #FF960D",
"I  c #FC9517",
"U  c #FC931A",
"Y  c #FA9B1A",
"T  c #FCB60A",
"R  c #FDB90D",
"E  c #F9A516",
"W  c #FCAD13",
"Q  c #FAA21D",
"!  c #F9A919",
"~  c #E9B716",
"^  c #FBB214",
"/  c #F9B913",
"(  c #C58E2F",
")  c #D48328",
"_  c #C3902D",
"`  c #FF8225",
"'  c #FD842C",
"]  c #FE8D2A",
"[  c #FC9522",
"{  c #FB9826",
"}  c #FB932C",
"|  c #F78731",
" . c #F98132",
".. c #FB8C31",
"X. c #FC9231",
"o. c #CCA42A",
"O. c #CDA534",
"+. c #F8A125",
"@. c #FFCC02",
"#. c #F7C50A",
"$. c #FCC30A",
"%. c #F7CC0B",
"&. c #FACD0C",
"*. c #FFDD02",
"=. c #FAD30C",
"-. c #F9DB09",
";. c #FAC612",
":. c #FBCA11",
">. c #EED411",
",. c #FFE302",
"<. c #FCEC04",
"1. c #FAE30A",
"2. c #F6E90A",
"3. c #FAEA08",
"4. c #F7F406",
"5. c #FBF204",
"6. c #FBFB03",
"7. c #948C46",
"8. c #9D8252",
"9. c #ABA649",
"0. c #868760",
"q. c #005682",
"w. c #005B84",
"e. c #00568A",
"r. c #005D8B",
"t. c #005D92",
"y. c #295F81",
"u. c #006086",
"i. c #00628C",
"p. c #09628D",
"a. c #11668B",
"s. c #1E7085",
"d. c #006493",
"f. c #006995",
"g. c #00659B",
"h. c #006B9C",
"j. c #126993",
"k. c #01709E",
"l. c #396984",
"z. c #3E6D8B",
"x. c #326D92",
"c. c #005EA4",
"v. c #0265A2",
"b. c #006DA3",
"n. c #0067A9",
"m. c #006DAB",
"M. c #0072A4",
"N. c #0074AC",
"B. c #0078AE",
"V. c #1C74A5",
"C. c #006EB2",
"Z. c #0075B2",
"A. c #007AB4",
"S. c #0B7CB6",
"D. c #0074BC",
"F. c #007CBB",
"G. c #2C77A3",
"H. c #397EB1",
"J. c #4A6E87",
"K. c #59738D",
"L. c #4C7097",
"P. c #5E7290",
"I. c #746E84",
"U. c #717386",
"Y. c #0076C1",
"T. c #007DC3",
"R. c #007CCB",
"E. c #0076D2",
"W. c #007FD2",
"Q. c #0082BC",
"!. c #2889BF",
"~. c #4A8D9D",
"^. c #0082C4",
"/. c #0084CB",
"(. c #0089CD",
"). c #1480C7",
"_. c #0084D3",
"`. c #008BD4",
"'. c #0084DC",
"]. c #008CDB",
"[. c #0090D7",
"{. c #0091DC",
"}. c #0085E2",
"|. c #0089E4",
" X c #008CEC",
".X c #0092E4",
"XX c #0096EA",
"oX c #008EF1",
"OX c #0092F4",
"+X c #009AF2",
"@X c #0097FA",
"#X c #0098F9",
/* pixels */
"v.F.F.T.T.^.F.F.F.F.T.F.F.D.Z.v.e.v.B.N.B.Z.B.N.m.N.N.N.N.b.b.m.b.b./.`.`.].`.].`._./.^.T.F.Z.Z.m.g.",
"F./.].].].].].]._._././.^.F.F.N.d.M.B.B.A.A.A.F.A.A.A.A.A.B.N.B.M.A.{.XX.XXXXXXX.X.X.X.X].`./.^.F.Z.",
"T.]..X.X.X.X|.{.].].].`.`./.(.^.f.M.B.B.B.A.A.Q.F.F.A.A.A.A.A.A.B.A.XX+X+X+X+X+XXXXXXXXX.X].`./.^.B.",
"F.].].].].].`.].].`.`._._././.^.f.h.M.M.N.B.A.A.A.A.A.A.A.A.B.B.N.A.XX+X+X+X+X+XXXXX.X.X].]./.T.B.g.",
"F._._.`.`.`./././.^.T.T.^.T.T.F.f.f.k.k.M.M.N.M.N.N.N.N.B.N.N.N.M.A..XXXXXXXXXXXXX.X.X].`./.F.N.b.d.",
"Z././././.T.^.T.F.F.F.A.Z.Z.Z.Z.d.f.f.f.f.h.f.f.h.M.M.M.M.N.M.M.b.N.].|..X|.].`.].]._./.F.N.b.B.F.Z.",
"b.F.F.F.A.F.F.A.A.A.Z.Z.B.N.N.b.d.i.u.u.u.u.w.i.i.d.f.f.k.k.h.h.h.h.T./.^.^.F.Z.F.A.A.Z.v.h.N.F.F.B.",
"d.v.N.Z.N.N.N.b.h.v.M.M.m.b.h.g.r.e.w.w.o u.w.w.w.w.i.d.f.d.d.f.r.r.N.N.m.N.M.N.b.b.m.h.f.h.M.M.M.g.",
"b.v.b.b.M.M.M.g.e.d.b.m.m.m.N.Z.Z.b.v.g.g.g.g.d.d.t.b.Z.Z.N.N.m.b.m.b.v.h.v.v.b.g.t.d.f.f.g.g.h.g.v.",
"B.N.M.N.M.M.M.h.d.b.A.F.F.Q.^.^./.^.^.Q.F.Z.M.N.M.B.S.(.`.`.].`.`.(./.^.Q.F.A.A.M.h.b.M.M.N.N.N.N.B.",
"B.B.B.N.B.M.k.k.f.B.A.F.^.^./.(././././.^.^.S.l.M.A.`.]..X{.{.].{.`.(.(./.^.Q.A.B.g.k.N.N.N.B.B.B.B.",
"B.B.M.M.M.M.M.h.d.N.A.F.Q.F.^.^.^././.^.^.^.V.5 N.A.^..X`.[.].`.`.(.^.(.^.Q.A.A.M.d.h.M.M.M.N.M.N.M.",
"N.M.M.M.k.M.M.k.d.M.N.N.A.A.F.Q.^.F.Q.F.F.A.A.N.b.z.B G.`.(.`.(.(.^.(.^.Q.A.B.M.f.i.f.h.k.M.M.M.M.k.",
"f.f.f.h.f.f.f.i.i.h.M.M.M.A.B.A.A.A.A.A.Z.B.N.l.- : ` x S.(./.^.^.^.Q.A.B.N.b.f.d.w.d.h.h.k.k.h.f.f.",
"i.i.i.i.i.i.u.u.w.f.h.k.M.M.M.N.N.N.N.M.M.* t.M l k X.z < ^.Q.Q.F.A.A.B.M.h.f.d.i.q.i.i.i.d.d.d.i.i.",
"r.w.w.w.w.o w.o w.u.d.d.f.h.h.f.h.h.d.g.% g q c X.X.X...f * N.M.M.h.h.f.f.i.w.w.w.X w.u.u.w.u.w.u.w.",
"r.r.r.w.w.i.r.e.e.X X e.i.g.f.r.# m O q.; ' } ..p  ...X.' > d.r.i.r.w.w.w.w.q.w.q.q.e.w.e.w.w.w.w.w.",
"b.B.A.A.F.F.A.Z.N.N.M.h.f.M.Z.m.m t g.h.j.S ` ' 8 k ..k B p.d.e.q.i.b.N.N.B.B.A.B.N.B.N.M.b.m.b.g.e.",
"B.^./././.`.`././._./.A.v.h.N.B.y., A.S.Y.V.J.S y '  .2 b.M.h.g.d.f.B.A.F.F.Q.F.F.F.F.Z.B.N.N.M.h.d.",
"N.T././.^./.`./._./._.^.Z.h.d.d.t.b.Z.A.A.S.T.x.z ] V A.A.M.h.f.d.f.N.B.Z.A.A.A.A.A.A.B.B.B.N.N.b.d.",
"h.Z.T.^.^.^./././././.^.F.A.h.w.w.b.A.N.Z.N.A.M.a ` 6 Z.M.M.h.h.d.i.M.M.N.N.B.B.B.B.B.N.B.N.N.N.b.d.",
"i.b.B.F.F.^.T.T.T.F.A.N.m.m.N.v.d.b.N.N.N.N.N.N.= l N v.h.d.g.a.; r.i.h.k.b.M.M.N.M.M.M.M.b.M.M.b.f.",
"r.g.h.m.Z.Z.Z.m.b.v.v.v.g.g.g.h.i.h.b.b.b.M.b.N.+ h j n p.h.g.; y w.w.w.u.i.f.f.h.h.M.M.b.M.h.M.h.i.",
"q.i.d.d.f.g.g.f.g.g.d.d.d.t.d.r.w.i.f.d.d.d.p.p.= j  .j 9 > + r x O w.o . o X w.w.i.i.i.d.d.d.i.w.w.",
"e.d.d.g.d.g.d.r.d.t.d.t.r.t.r.e.e.w.e.t.w.e.@ r g b  .b b j 0 > # e.d.r.w.q.w.q.q.X w.e.r.r.r.e.e.e.",
"R.R._.W.R.R.Y.v.g.N.N.B.B.B.B.M.b.b.b.2 y.g.= u g b b  .b b i Y.E.R.Y.D.C.m.C.N.g.e.C.R.R.R.R.R.R./.",
"oXOXoX XoXoX|.D.b.F././._.`.`._._.`./.a u z.5 w g b b b b v j I. X'.'._.W.R.R.R.C.g._. X X X XoXoXoX",
"oXOXOXOXoXoX|.Y.b.T._./._.`.'.`.].|.).s e U.A z  .|  . .v j f P.|._.'.'._.R.R.T.D.v._.|.|. X XoXoXoX",
" X XoX X X X|.R.N.T./././._._./.(.|.U.l Y D  .X...} X.+.{ D L._._._.W././.R.T.F.Z.g.W.'.'. X|. X X X",
" X X|.|.}.'.'.R.N.F.R./././././.(.'.K.l { ^ X.{ #.^ } / ^ V W._.R./.R.T.Y.T.D.Z.m.g.R.'.'.}.|.}.|. X",
"'.W.E.R.R.R.R.D.m.F.T.R.T./.R.^.R.T.T.Z [ %.! ^ #.Q Q #.@.8.C.S.Y.T.Y.A.F.A.Z.N.h.t.D._._.'.'.'.'.'.",
"R.R.Y.D.D.Y.Y.C.v.m.F.A.Z.Z.Z.Z.Z.N.A.3 [ %.^ ^ &.Q / =.@.7.c.n.m.Z.Z.N.m.b.b.g.r.e.Z.Y.R.R.R.R.E.R.",
"C.Y.Y.D.Z.C.C.m.r.h.b.b.v.v.b.h.h.v.m.5 Y ;.^ :.2.-.1.=.E ( t.t.t.d.g.d.g.f.i.i.w.q.t.C.C.D.Z.C.C.C.",
"t.A.F.F.Z.N.m.v.g.d.d.d.h.h.g.d.X d.m.2 W Y ^ <.5.4.3.:.[ U > t.r.e.g.b.b.M.b.v.g.d.g.d.t.t.t.t.e.e.",
"N.A.Q.Q.Q.Q.Q.Q.^.Q.Q.Q.Q.Q.A.B.h.B.^.J.T I &.5.6.5.5.:.[ ] d 1 h.f.b.N.B.B.B.B.B.N.b.h.f.f.g.h.f.r.",
"A.(.(.`.[.[.[.[.{.{.{.[.(.(.(.Q.M.B.F.0.T W 3.5.6.6.5.=.I } I a f.h.M.M.M.N.B.A.A.B.B.B.N.N.b.N.N.h.",
"B.(.(.(.(.[.[.[.[.[.{.`.[.(.[.Q.M.S.7 L ^ R -.5.6.6.:.=.W U $.) p.h.k.k.k.M.N.M.N.N.N.M.N.B.N.N.N.h.",
"N.Q.(.(.(.(.(.(.`.`.(.(.(.(.(.Q.h.Z.C P E Q ;.6.6.6.^ &.-.Q @._ d.i.i.h.h.k.k.M.M.M.M.M.b.M.M.N.M.h.",
"h.F.Q.^.^.(.^.(.^.Q.F.A.Q.Q.Q.Q.f.N.5 L Y E 1.6.6.6./ &.<.1.,.H d.u.o o o u.i.f.f.h.h.b.h.b.b.b.f.w.",
"f.A.F.A.Q.B.B.M.M.M.M.k.k.k.M.k.r.f.4 T %.1.6.6.6.6.=.1.6.3.,.J r.u.X . X X o w.i.d.h.f.h.h.h.i.w.w.",
"r.h.b.h.h.h.h.f.f.f.f.d.d.d.d.i.X q.$ ~ ,.4.6.6.6.6.5.6.6.4.,.G   X . . . . . . . . . w.X w.q.o w.w.",
"t.f.d.i.t.i.r.r.e.d.d.d.t.d.d.i.e.e.e.H *.2.6.6.6.6.6.6.6.<.=.&   X X w.X q.X X o q.X o q.w.w.r.r.i.",
"Z.N.N.N.M.M.M.h.m._.].}.'.}.}.'.W.W.W.!.~ ,.4.6.6.6.6.4.5.,.F b.b.N.A.Z.A.B.A.A.A.B.v.k.h.M.M.M.M.M.",
"A.A.B.B.B.M.M.h.Y.OX@X@X#XOXOXOXoX XoXoXH.O.*.<.5.5.<.<.>.F b.k.N.A.F.F.Q.^.^.^.^.A.M.N.B.B.A.A.Q.A.",
"N.N.M.M.M.k.k.k.T.oX@XOX@XOXOXOXoX X X XoXW.~.9.o.o.K 0.s.h.k.M.B.A.S.F.F.Q.Q.F.Q.B.k.k.M.N.N.N.B.M.",
"M.k.k.k.k.h.f.h.Y. XoXOXoXOXOXoX X X X|.}.}.}.E.g.r.d.g.f.k.k.B.N.B.A.A.A.B.A.B.B.k.h.h.M.k.k.M.M.M.",
"h.k.h.f.f.f.d.g.A.|. X X X X X X X|.}.'.'.W./.T.M.f.i.f.h.k.M.M.M.M.M.h.h.b.b.k.k.h.f.h.k.k.k.h.k.f.",
"d.i.i.i.i.i.i.d.C.W.}.|.|.|.}.}.}.'.'.'.W.R.Y.C.h.i.i.i.f.f.f.h.k.f.d.d.f.f.f.f.f.d.i.d.d.f.f.i.d.d.",
"u.w.o w.o o o u.v.D.R.E.W.W.W.W.W.W.R.R.Y.C.n.v.t.i.w.u.u.u.i.u.u.i.i.i.i.i.d.i.i.u.w.w.i.w.u.u.u.w.",
"w.o o o o X o X t.b.n.n.C.m.n.m.m.C.C.m.t.g.t.t.t.w.o o o w.w.o o w.w.u.u.i.i.i.i.w.X w.o o w.w.o o "
};
