/* XPM */
static char *Untitled_designsad1676365948[] = {
/* columns rows colors chars-per-pixel */
"50 50 226 2 ",
"   c #1A140A",
".  c #1C160D",
"X  c #1D180E",
"o  c #161813",
"O  c #1D1B12",
"+  c #151B19",
"@  c #1B1F1A",
"#  c #26190B",
"$  c #211A0D",
"%  c #221D13",
"&  c #2C1C11",
"*  c #1F2017",
"=  c #1B221E",
"-  c #2E210D",
";  c #252115",
":  c #2C2414",
">  c #22231D",
",  c #292519",
"<  c #2E2A1B",
"1  c #332613",
"2  c #352A14",
"3  c #392D17",
"4  c #342C1A",
"5  c #35331E",
"6  c #0D242F",
"7  c #1A2423",
"8  c #162529",
"9  c #1B2929",
"0  c #19333A",
"q  c #242621",
"w  c #242B28",
"e  c #372D21",
"r  c #2A322F",
"t  c #36352A",
"y  c #3B392A",
"u  c #273938",
"i  c #343D36",
"p  c #49381D",
"a  c #523A1E",
"s  c #443825",
"d  c #4A3D23",
"f  c #523D23",
"g  c #3F4028",
"h  c #394539",
"j  c #54431E",
"k  c #4C4426",
"l  c #44422B",
"z  c #4C442C",
"x  c #534224",
"c  c #5A4627",
"v  c #54462A",
"b  c #55492C",
"n  c #5C4C2C",
"m  c #57512C",
"M  c #5E512D",
"N  c #434231",
"B  c #4B4A32",
"V  c #434B3C",
"C  c #494D3A",
"Z  c #554C31",
"A  c #5C4C33",
"S  c #4E523E",
"D  c #555233",
"F  c #5B5433",
"G  c #5E5A35",
"H  c #53533C",
"J  c #5A543B",
"K  c #55583D",
"L  c #5D5B3B",
"P  c #634D29",
"I  c #64542E",
"U  c #6C542C",
"Y  c #614D33",
"T  c #635533",
"R  c #685636",
"E  c #645A35",
"W  c #6C5A32",
"Q  c #645C3C",
"!  c #695D3B",
"~  c #725D38",
"^  c #5D603B",
"/  c #66623B",
"(  c #6C623B",
")  c #6A6439",
"_  c #76653B",
"`  c #0D3747",
"'  c #163A45",
"]  c #1B3944",
"[  c #093D53",
"{  c #153D53",
"}  c #253D44",
"|  c #313F41",
" . c #1B414E",
".. c #0E4357",
"X. c #0B445C",
"o. c #174557",
"O. c #28444A",
"+. c #384945",
"@. c #284C56",
"#. c #364E53",
"$. c #2C5158",
"%. c #37575A",
"&. c #054662",
"*. c #054A69",
"=. c #164D66",
"-. c #07516E",
";. c #1C556E",
":. c #024D73",
">. c #054F79",
",. c #015377",
"<. c #0A5474",
"1. c #01557C",
"2. c #01597E",
"3. c #0D5879",
"4. c #245362",
"5. c #245868",
"6. c #3A5D63",
"7. c #265C72",
"8. c #2D616F",
"9. c #37656D",
"0. c #296277",
"q. c #346777",
"w. c #434741",
"e. c #424D43",
"r. c #4A5748",
"t. c #555A46",
"y. c #435B5A",
"u. c #515A54",
"i. c #695B42",
"p. c #53644F",
"a. c #6D6441",
"s. c #6D6C44",
"d. c #67674A",
"f. c #766443",
"g. c #746A43",
"h. c #7D6D43",
"j. c #746D4A",
"k. c #7B6D4C",
"l. c #75724B",
"z. c #7B7448",
"x. c #7C724C",
"c. c #636D54",
"v. c #786D51",
"b. c #697457",
"n. c #777756",
"m. c #4C6965",
"M. c #4A7170",
"N. c #6A7663",
"B. c #826C3E",
"V. c #826D4A",
"C. c #85764B",
"Z. c #88784C",
"A. c #847555",
"S. c #847B55",
"D. c #877A59",
"F. c #917B59",
"G. c #7E9376",
"H. c #88825A",
"J. c #888563",
"K. c #978A63",
"L. c #A1936D",
"P. c #005683",
"I. c #005C84",
"U. c #005689",
"Y. c #005D8A",
"T. c #095E89",
"R. c #105F81",
"E. c #005E92",
"W. c #016086",
"Q. c #086486",
"!. c #00628C",
"~. c #176586",
"^. c #006493",
"/. c #006996",
"(. c #0C6895",
"). c #00659B",
"_. c #006C9C",
"`. c #146B92",
"'. c #00709F",
"]. c #1A789B",
"[. c #276886",
"{. c #2D708B",
"}. c #237B9A",
"|. c #0067A4",
" X c #006DA3",
".X c #0067A8",
"XX c #006CAB",
"oX c #146EA6",
"OX c #0072A4",
"+X c #0074AB",
"@X c #0C77A8",
"#X c #0078AF",
"$X c #157AA9",
"%X c #016EB3",
"&X c #0075B2",
"*X c #007AB4",
"=X c #0B7DB5",
"-X c #0074BB",
";X c #007CBB",
":X c #227BA2",
">X c #0176C2",
",X c #007CC3",
"<X c #007CCB",
"1X c #007FD1",
"2X c #0082BD",
"3X c #0D82BA",
"4X c #1485BA",
"5X c #0083C4",
"6X c #0085CB",
"7X c #008ACD",
"8X c #0C89CA",
"9X c #138AC5",
"0X c #0083D3",
"qX c #008BD4",
"wX c #0084DB",
"eX c #008DDB",
"rX c #0091DC",
"tX c #0087E1",
"yX c #008AE4",
"uX c #008CEC",
"iX c #0092E3",
"pX c #0195EA",
"aX c #0098EF",
"sX c #008FF0",
"dX c #0092F2",
"fX c #0099FB",
/* pixels */
"|.*X;X;X,X,X5X;X*X=X=X#X3X$X$X(.T.(.@X&X-X&X&X-X&X%X+X&X&X+XXXXXOXXX6X8X4X9X6X7XqX0X6X5X,X,X&X&XXX).",
"*X0XeXeXeXeXqXwX3XG.n.S c.l.K d.J.N.N.N.u.y.m.m.0.7.q.8.8.9.M.M.m.M.M.b._ J h h :XaXiXiXeXqX6X5X;X+X",
"5XeXiXiXiXiXiXyX9XG.l.l.H.H.s.x.F.V.A.F.V.F.Z.f.f.f.f.R F k _ _ h._ _ h.A.j.Z x }.fXpXpXiXeXqX6X5X*X",
",XeXeXeXeXeXeXeX8Xn.n.n.n.K.H.H.L.K.K.K.F.A.A.k.C.A.A.v.g.Q l.l.l.h.l.K.K.H.x.g.9XaXpXrXeXqX6X5X&X).",
"-XqXqXeXqXqX0X0X;XV d s t.d.C i.v.v.D.A.A e s s s s N v d J Q F G s.D.n.i.i.! W $XaXeXeXeX5X*X&X|.^.",
"&X5X6X5X5X5X5X,X,X6 $ t 4 , % % % q q % % . . . . $ % % $ & & & 4 e s e 4 % $   (.pXqX6X,X+X X+X;X*X",
"XX*X;X;X*X*X*X*X*X_.9.Z.j.k.i.' :.0 0 &.&.*.&.&.&.[ X.[ [ [ ` ` 0 6 5 / F B r [ |.;X&X+X|._.+X2X2X+X",
"^. X+X&X&X+X+X X_.OX{.C.C.j.f.4.1.% @ ` } o.3.Y.E.^./._._._.)./.).[ 4 L / Y 7.*X+X|.OX_.^._.OXOXOX/.",
".X X X X+XOXOX).I.).{.Z.Z.j.~ 5.^.* X X   $ < O.T.E.|.+X+X+XXXXX&XX.3 B / F 7.|.).!./.)./.).)._.). X",
"&X+X+XOXOXOX'._.^.XX}.Z.S.H.a.=.&Xy ; O X o % = !.&X2X6XqXqXqXqXiX3.: z ) T [.*XOX). XOXOX+X+X+X+X+X",
"#X+X+X+X#XOXOX_./.*X}.Z.A.S.i.=.4XC % O O o % 7 ^.;X7XrXiXrXrXeXpX3.2 H ) b ~.2X+X).'.+X+X+X#X#X#X+X",
"#X+X+XOXOXOXOX_.^.+X].z.C.x.Y =.3XS : ; . o X = !.;XqXeXqXqXqXqXiX3.x j.) z `.*XOX^._.OXOXOX+XOX+X+X",
"+XOXOXOX'.OX'._.^.OX].l.Z.D.A o.#XC 1 * o O . 7 T.2X7X7XqX7X7X7XqXR.c a.! z ~.+X/.!._.'.'.OXOXOXOX'.",
"/././._._././.!.!._.`.d.C._ f  .@Xr.1 ; . . . + 1.;X5X5X6X6X6X5X7XQ.b ! E d Q._.!.I./././._.'._././.",
"!.!.!.!.!.W.!.W.I./.!.t._ F c o.@Xt.: ; % o . o 1.+X;X;X2X5X2X2X5X3.b a.E z 3./.!.P.!.!.^././.!.!.!.",
"W.I.I.I.2.W.2.I.I.!.Q.c._ E Y } Q.r.: ; ; o   @ :._.+XOX+XOXOX'.+X-.z a.E g 1.I.I.1.I.I.I.W.I.I.I.I.",
"Y.Y.Y.Y.I.!.Y.U.U.1.1.t.h.! d > ] t.e , ; % . o *.Y.Y.^.!.!.Y.Y./.X.n ( ! y :.I.P.P.I.U.I.I.P.I.I.P.",
" X&X*X*X;X;X*X*X+X+X Xr.B.( s = > Q < % ; % O + I.XX_._.).).^.U.Y.o.P j.) h _.*X+X&X+X+XOXOX+X.X).U.",
"+X5X6X6X6XqXqX6X0XqX5X#.U ! n w > d , % % ; X + ).,X&X+XOXOX_.)._.X.c s.) B +X2X;X;X;X*X*X+X+XOX_.^.",
"+X5X6X6X5X5X0X6X6X6X6Xy.U E v q w A : % % ; $ + ^.*X*X*X+XOX_./._...c s.m V OX*X*X*X*X*X+X*X+X+X|.^.",
"_.*X;X,X5X5X5X6X6X6X6X6._ M p w X.u.2 % ; ; % @ !.*X&X+X+XOX_._._...I s.M e._.#X+X+X+X+X+X+X+X+XOX^.",
"E. X&X;X;X5X<X5X,X;X*X#.W n p ] !.r.1 % % % % = Y.+XOX_.)././.)._. .I M M e._.+X+XOXOXOX+XOXOXOX_./.",
"Y.)._.+X&X&X&XXX X|..X%.I n f ] !.r.2 O ; O % > T._./././.^.^.^./. .k e k V !.)._.'.OXOXOX'. X_.).!.",
"P.Y./.^./.)./.)./.^.).$.n v f u Y.t.1 % ; % O 7 2./.!.!.!.!.W.W.!.' p z j u ,.I.W.W.!.!.^.^.^.!.I.I.",
"U.!./.).^.).^.Y.!.^.^.$.b v c } P.u.4 O % % O > *.I.I.I.U.Y.Y.Y.E.] d Z d u 2.I.P.1.U.U.Y.Y.Y.U.Y.U.",
"<X1X1X1X<X<X>X|.).+X&X5.I k P +. Xy.3 % % % X 7 >.|.-X>X,X<X<X<X1Xo.p z f +..X%X).U.%X<X<X<X<X<X<X<X",
"sXdXsXsXsXsXyX-X.X;X0X0.T n P #.qX#.- % % O X q T.-X0XwXtXyXyXwXuX;.a J v | -X,X%X).1XsXyXsXsXsXdXsX",
"sXdXdXdXsXsXyX>XOX,XqX[.c b W #.0X$.& % % % X w T.-XwXwXwXtXtXwXyX=.a b c } ,X<X-X|.1XuXyXuXuXuXdXsX",
"uXuXsXuXuXsXyX1XXX,X0X~.f Z ~ +.,X6.1 % % O $ 8 ^.;X<X0XqXwX0X0XwXo.a Z f O.-X,X+X).1XtXtXyXyXuXsXuX",
"uXuXyXyXtX1X1X<X&X;XqX`.v T ~ e.-X6.1 % % X $ 8 E.XX-X>X,X<X<X<X0Xo.x n a O.-X*X.X).,XwXwXtXyXyXyXyX",
"1X1X<X<X<X>X<X>XXX&X5X`.b W ~ w.XX6.3 ; ; % X 9 T.).|.XXXXXX&X-X,X{ c b a O.&X+X).^.>X1X1XwXtX1XwXwX",
"<X<X>X>X>X-X>X-X|.+X,X(.b W f.t ^.%.1 % % %   8 P.E.E.).).).)..XXX} f b f O.|./.!.U.%X,X<X<X1X<X1X<X",
">X>X>X%X&X&X&XXXY.).+X~.L ) ( y P.%.1 O ; ; $ 7 >.I.I.Y.^.^.^.E.^.0 x A p ] ^.!.I.P.).XX%X%X&X-X-X%X",
").%X;X>X#XOXXX|.)././.3.Q E W e :.#.- O ; ; $ 9 E..X).).!.!.U.Y.U.u x v p @.XX|.).^.).^.E.E.E.U.Y.U.",
"OX2X2X2X2X2X2X2X5X2X2X].L E U r /.#.- * ; ; $ 7 _.;X&X&XOXOX_.'._.u b b f 4.&X#X+X+XOX X)./._.)./.Y.",
"*X6X7XqX7XrXrXrXqXrXiX4XL f.W i _.9.: X ; < $ 7 OX2X*X*XOX+XOX'.).i R Q x 5.*X#X*X+X#X+X+X+XOX+X+X_.",
"+X6X7X7XqXqXrXqXrXqXrX3XJ ( T y ..O.& O ; , % 7  X;X#X#XOXOX'._./.h ! A c 5.+X+X+X+XOX+X+X+X+X+X+X_.",
"+X2X7X5X7X7XqX7X7X7XqX3XJ f.P t 7 d ; X ; ; O 7 /.@X+XOX'._._._.!.h i.v c 4.OX_.OXOXOXOXOXOXOX+XOX/.",
"_.;X2X2X5X7X5X5X5X2X;X@XS h.T t w M < X ; , % 7 W.'././.^.^././.I.C x.T T @.^././._.'.'._.OX X X/.I.",
"/.*X2X;X2X#X#X+X+XOX+X/.C z.E t 9 x , O ; ; % 7 1.!.W.W.W.I.W.^.-.C n._ T O.2.I.!./._./.)._.).!.I.I.",
"!._.OX)._._.)./.^.^.).!.H g.I l ` +.4 % % % % @ ,.I.2.I.2.,.,.2.X.g D E b O.,.,.,.,.1.1.2.P.I.1.2.I.",
"E.^.^.^.^.!.!.W.Y.^.^.T.t.) I C >.%.4 . % @ X 8 :.:.,.,.,.,.,.2.X.B l E F +.I.1.P.1.1.1.I.I.I.Y.Y.!.",
"+X+XOX+XOXOX'._.XX1XyX0Xr.) ) C %Xq.& . @ $ 0 -X|.).*X;X#X+X'.OX<.l L l.a.9.*X*X*X+X XOX'.OXOXOXOX+X",
"*X*X*X#X#XOX'.'.,XpXfXuXr.) E C >X[.3 % # 9 ,X1X%X*X;X;X+XOX/.2X<.5 D s.R 9.5X5X5X*XOXOX+X#X*X*X2X#X",
"+X+XOXOXOX'.'._.,XsXfXyX+.) G y >X{.p # ] <XyX<XXX)._././././.OX<.: g / G 4.5X2X2X#X'.'.OX+X+X+X+X#X",
"OXOX'.'.'._._._.>XuXdXwX+.E E N -X{.1 { 1XyX0X<X|.!./././.'.'.2X<.< g ^ m 4.*X#X+X'._._.OX'.'.OX'.OX",
"_._.)././././.).-XtXdXwXr.D F y %X[.O.1XtX1X0X,X'./.^./._.'.'.+X2.g ) ^ I $.OX'.'././._._._._._._._.",
"^.^.!.!.!.!.!.!.%X1XyX0XV j M l %XwX>X1X1X<X,X&X).!.!.!./././._./.%.G.p.r.;.)./././.W./././././.^.^.",
"W.W.2.2.2.2.2.W.|.-X>X<X7.%.q.oX>X1X<X<X-X%X|.E.).Y.W.W.W.!.!.!.Q.Q.Q.W.!.^.!.^.^.W.W.W.!.I.W.W.W.I.",
"2.2.2.2.2.2.2.2.E.|.XX%X%X%X%X%X%X%X%X%X|.E.E.E.E.U.2.2.2.2.I.2.2.2.W.W.W.!.W.W.!.I.2.2.2.2.I.I.2.2."
};
