/* XPM */
static char *result[] = {
/* columns rows colors chars-per-pixel */
"50 50 228 2 ",
"   c #2C1B1C",
".  c #351C17",
"X  c #311C1C",
"o  c #35211E",
"O  c #301E20",
"+  c #352224",
"@  c #3A2524",
"#  c #3C2827",
"$  c #431D0B",
"%  c #4B250E",
"&  c #54280E",
"*  c #4C2412",
"=  c #492717",
"-  c #44251D",
";  c #512713",
":  c #542A13",
">  c #5A2D13",
",  c #542C19",
"<  c #4F371E",
"1  c #57321A",
"2  c #5D321C",
"3  c #642C0E",
"4  c #6A2E0E",
"5  c #71320D",
"6  c #75320D",
"7  c #7B350D",
"8  c #7B3C0C",
"9  c #642E13",
"0  c #6A3518",
"q  c #783C1B",
"w  c #462B21",
"e  c #432A24",
"r  c #522F22",
"t  c #4D3528",
"y  c #533522",
"u  c #543C25",
"i  c #593D25",
"p  c #583929",
"a  c #4B3B35",
"s  c #553D30",
"d  c #6B3D24",
"f  c #76431E",
"g  c #7B431D",
"h  c #5B4325",
"j  c #5A462D",
"k  c #4F4139",
"l  c #564837",
"z  c #58513D",
"x  c #64432C",
"c  c #6A452A",
"v  c #784525",
"b  c #6E532F",
"n  c #684935",
"m  c #754C33",
"M  c #685335",
"N  c #7C5136",
"B  c #735D36",
"V  c #775739",
"C  c #796339",
"Z  c #4D4846",
"A  c #554B45",
"S  c #5A554C",
"D  c #595757",
"F  c #6F4F40",
"G  c #645646",
"H  c #745944",
"J  c #635C56",
"K  c #5C635D",
"L  c #6F6850",
"P  c #676458",
"I  c #766957",
"U  c #5B5E63",
"Y  c #5D6762",
"T  c #5E6D6A",
"R  c #5E716D",
"E  c #636A67",
"W  c #736865",
"Q  c #63726D",
"!  c #6D756A",
"~  c #787768",
"^  c #657A76",
"/  c #687874",
"(  c #647D7B",
")  c #767975",
"_  c #82360B",
"`  c #84390D",
"'  c #8B3B0C",
"]  c #923E0B",
"[  c #983F0B",
"{  c #853B11",
"}  c #88460D",
"|  c #96400C",
" . c #9B420C",
".. c #9A4B0C",
"X. c #95530D",
"o. c #8D4313",
"O. c #83451C",
"+. c #8A461C",
"@. c #944516",
"#. c #A3450C",
"$. c #AB470B",
"%. c #A6480C",
"&. c #AD4A0C",
"*. c #B44D0D",
"=. c #B94F0C",
"-. c #BC510D",
";. c #A34C16",
":. c #AD5617",
">. c #B27012",
",. c #854926",
"<. c #8B5029",
"1. c #97552D",
"2. c #865437",
"3. c #975932",
"4. c #A55929",
"5. c #AD5E2D",
"6. c #84693E",
"7. c #C3540E",
"8. c #C67A0C",
"9. c #835E44",
"0. c #866648",
"q. c #976645",
"w. c #9B6A4B",
"e. c #8E724B",
"r. c #88735B",
"t. c #987152",
"y. c #957458",
"u. c #9D7A5B",
"i. c #A46D49",
"p. c #A77848",
"a. c #A97956",
"s. c #837564",
"d. c #847A67",
"f. c #8D7D6D",
"g. c #887E7E",
"h. c #7B826F",
"j. c #66817F",
"k. c #6A837F",
"l. c #7B8677",
"z. c #74857C",
"x. c #CE932A",
"c. c #EEAA35",
"v. c #94815A",
"b. c #A8834C",
"n. c #B58658",
"m. c #BB9454",
"M. c #96856D",
"N. c #81847B",
"B. c #938374",
"V. c #988878",
"C. c #A88869",
"Z. c #B78A65",
"A. c #B9926C",
"S. c #AC9577",
"D. c #B59471",
"F. c #BB9973",
"G. c #DC884E",
"H. c #C58D64",
"J. c #C6936A",
"K. c #D5986C",
"L. c #C79C74",
"P. c #DE9F71",
"I. c #C4A37D",
"U. c #CAA77F",
"Y. c #D8A579",
"T. c #E4AB7C",
"R. c #E9A978",
"E. c #6B8582",
"W. c #678887",
"Q. c #6A8B8A",
"!. c #788A85",
"~. c #6D908E",
"^. c #71928F",
"/. c #6C9493",
"(. c #6C9696",
"). c #6E9B9B",
"_. c #739591",
"`. c #709D9D",
"'. c #6E9FA0",
"]. c #719FA0",
"[. c #6FA2A3",
"{. c #72A4A4",
"}. c #7FA8A6",
"|. c #73A7A8",
" X c #75ABAC",
".X c #7AADAE",
"XX c #75AEB0",
"oX c #7BAFB0",
"OX c #79B1B2",
"+X c #858A8B",
"@X c #928C8B",
"#X c #959395",
"$X c #A39384",
"%X c #A2A296",
"&X c #B5A89A",
"*X c #83A9A6",
"=X c #82AEAC",
"-X c #87B1AF",
";X c #8CB1AE",
":X c #8DB3AF",
">X c #9DB7B1",
",X c #A9B6AD",
"<X c #A4BAB3",
"1X c #ABBBB3",
"2X c #B2BDB3",
"3X c #B8BEB3",
"4X c #CAAB84",
"5X c #D6AC81",
"6X c #CBB28C",
"7X c #D7B48A",
"8X c #DDBD90",
"9X c #E7B787",
"0X c #E4B789",
"qX c #F4BB89",
"wX c #C5BDAE",
"eX c #B5C1B7",
"rX c #F4C18F",
"tX c #E8C495",
"yX c #ECCA9C",
"uX c #F5C897",
"iX c #F8D19F",
"pX c #C3C1B4",
"aX c #CBC3B4",
"sX c #F4D4A3",
"dX c #FAD9A7",
"fX c #FEDDAA",
"gX c #FFE0AD",
"hX c #FDE4BA",
/* pixels */
" X X X X X X X X X X X X X X X X X X X X X X X X X X X X X X|. X X X X X X X X X X X X X X X X X XoX",
" X X X X.X X X X X XXX X X|. X|. X|.|. X X X|. X X|. X X X X X X X X X X XXX X X X X X X X X X X XoX",
" X X X X X X X X X X|. X X X X X X.XXX|. X XXXXX XXXXX X X X X X X X X X X X X X.X X X X X X X X X.X",
" X X X X X X X X X X X X X X XXX{.~.z.) z./.Q.!.z.z./.{.|. X X X.X X X X X X X.X X XXX X.X X X X X.X",
" X X X X XXX X.X X X X X X X]./.! 2...%.@.N N o.| o.V !. X X X XXX X X X X X X X X X X X X.X X X X.X",
" X.X X X X X X X X X X X|.).! G +.-.7.7.*.&.7.7.7.7.;.I |. X X X X X X X X X X X X X X X X X X X X.X",
" X X X X X X X X|. X X|.`.L o.] *.7.7.7.=.*.$.=.7.*.] m Q. X X|. X X X.X X X X X X X X X X X XXX X X",
" X X X X X X X X X X X{.) <.#. .#.&.*.;.;.,.q ] #.| ' m E. X X X X X X X X X X.X X X X X X X X X X.X",
" XXX X X X X X X X X X(.H ;. .' 7 q <.w.a.J.H.q.<.,.q J ). X X X.X X X X X X X X X X XXX X X X X X.X",
" X X X X X X X X X X[.! ,.#.] ] _ q.Z.H.J.L.5X8X0X7XM.(  X X X|. X X X X X X X X X X X X.X X X X X X",
" X.X X X X X X X XXX).H %.[ ,.{ 7 a.q.;.:.4.3.J.sX5XV.`. X|. X X X X XXX X X X X X X X X X X X X X.X",
" X X X X X X|. X X X'.H ;.1.A.a.d a.1._ ] $.] a.4Xi.6.~. X X X X X X X X X X XXX X X X X X X X X X.X",
" X X X X X X X X X X(.M o.i.Z.L.Z.J.i.q d q ,.L.D.v V (. X X X X X X X X X X X X X X X X X X X X X X",
" X X X X X X X X X[.! O.' i.a.w.J.R.P.a.9.F a.tXD.n / |. X X X X X X X X X X.X X.X X X X X XXX X X.X",
" X X X X X X X X'.E c ' ] v i.t.a.J.9XY.4X7XyXfXI.I z. X|. X X X X X.X X X X X X XXX X X X X X X X.X",
" X X X X X X).Q.T x _ 7 ] ` q 3.H.R.uXsX8XuXdXfXyXC.)  X X X X|. X X X X X X X X X X X X X.X X X X X",
" X X X X|.~.S j y 4 |  . .' 6 ;.G.R.9X9XZ.5XdXdXhX7Xg.]..X X X|. X|. X X X X X X X X X X X X X X X.X",
" X X X{.j.k < % * 6  .-.-. .&.-.7.4.4.:.3.J.9X5XiX5XH T |.|. X X X X X X X X X X X X X X X X X X X.X",
" X X XQ.k % : > : 7 &.7.-.*.-.-._ ' *.$.] 3.3.1.9.2.0 s ( |.|. X X X X X X X X X X X X X X X X X X X",
"|.XX/.z : & > : & 7 &.-.-.-.7. ._ #.=.7.*.#.' i.a.4.[ 6 a / {. X X|. X X X X X X|. X X X X X X X X.X",
" X[.K : > & : : > 7 &.*.=.7.=.7 ` #.&.&.=.&._ a.J.5.=.7 $ k j. X X X X X|. X|..X X X X|. X X X|. X.X",
"XXj.j : 1 : > : > 6  .#.=.7.&.4 ` [ [ $.$.] 4 v ,.` #._ * ; S {. X X X|. X X].^.(.|. X X X X X X X.X",
" XR < > > : > & & 4 ] ' &.=. .4 _ [ [ [ _ 4 6 _ ' _ 7 4 & & s Q.|. X|.XXXX].E A J / |. X XXXXXXX X.X",
").S : & > : : : : & 7 7  .%. .4 6 _ 7 6 6 _ #.&.&.%.' 4 % . t W. X|.XX|.^.T s p y A ~.|.).Q.( ( )..X",
"/.z % & : : : > > > > 3 ' ` ] ' 4 3 4 8  .=.-.7.7.7.7. .v t.I E  X X X{.Q D Z Z a Z E T Q E E U j..X",
"'.R t % % % % % % ; ; $ 4 4 6 7 8 X.} %.-.7.7.7.7.7.7.&.1.7X5X~ `. X X`.Y D A a Z D D D D U g.W / |.",
"XX(.P 2.V n x b x x m p ; 4 4 X.x.x.>.:.-.7.7.7.7.7.7.&.O.D.yXS.Q.|. X{.Q Z a a a A D D U U ) g.!.{.",
" X/.~ K.9X4XI.I.L.U.L.F e > 5 8.c.c.>...*.7.7.-.-.7.7.*.} b.yX6XE.|. XXX'.A = t t U ( U D D ) @X+X].",
" X/.r.Y.iXgXgXgXsX8XY.n # - 5 ;.>.&.} } &.-.-.*.*.-.7.%.8 p.tXS.( '.XX(.j.l , , k (.oX].E D +X@X!.|.",
" XQ.s.R.uXgXfXtXZ.q.2.r @ - 9 > 3 ] *.' | *.*.*.&.-.-. .2 u.yXC.d.!.E.) I r > 0 D _.XXXXW.D #X@X!..X",
"XXW.s.R.uXgXyXu.d * ; ; * = ,.2.,. .*.' | &.*.&.&.*. .' O.A.sXtX8XC.H y.a.m v d S '.XX.XE.U %X@XE.OX",
"XXW.r.R.rXdXA.1 ; * > ; , v J.K.q.2.+.7  .#.&.&.&.*.` 6 +.A.gXgXgX8Xq.9.0.D.F.u.W ^.|.|.Y U #X!./..X",
"XXW.d.R.qX8XF , ; > * , d A.qXP.a.H.w.O.[ #.#.#.#.[ 9 ; q Z.gXgXfXyXa.9.C.tXsXsX6X+X[.|.K W ) !.|..X",
"XX(.~ H.R.H., ; ; ; , 2 t.uXdXsXuXuXa.+.[  .[ [ [ 7 - w N 5XgXfXgXiXL.u.D.I.yXfX6X!.[. XW.! ! (. X.X",
" X XQ.r.n.q.: ; > ; > d 5XfXfXfXdXqXw.9 6 { ] [ ' 9 + e q.qXdXdXdX6Xy.L.tXsXfXdXD._. X X X( Q. X X.X",
" X X/.r.q.y : > : > 9 t.yXgXfXfXdX5Xn @ - , 9 7 6 , @ e q.qXuXiX7XC.u.u.I.sXgXsXM./.XX|. X{.{. X X.X",
" X X_.v.m.< % * ; 9 d a.iXdXfXfXiXY.n + + + e - - - + @ 9.P.9X5X5X4Xy.6XyXdXdX4Xl.). X X X X X X X X",
" XXXk.u.m.u   . - , 2 H.qXuXiXdX9Xw.r @ + # # + O + @ O s y.H.P.5XL.m q.F.8X7Xd.(. X X X X X X X X.X",
" X X!.b.m.<       . w i.K.P.T.9XJ.n # + O + # +   + + X Z Q.~ a.a.w.v g <.q.r.z.{. X X X X X X X X.X",
" X).h.m.m.i o X X   @ r p d N m h e # + O O @ + O O + . Z ].]._.W q ,.O.f A k.]. X X X X X X X X X.X",
" X/.I m.m.b.p.6.d e < h u h y h b b V V j w w u < h < k T {. X_.G g g f c ^ [. X X X X X X X X X X.X",
" X'.k.z.z.v.~ ~ G u x C C C n P ! I L I ! A < b C C b J ~.XX XQ.x g g 0 G ). X X X X X X X X X X X X",
" X X{.[.'.).(.[.W.k M B C M j.`.{.`.(.`.{.R k b C C M k.|. X X`.P 0 9 i / {. X X X X X X X X X X X.X",
" X X X XXX X X X/.l B 6.b h J E W.|..X X X( z C 6.b M P j.`. X X).Q S K ). X X X X X X X X X X X X.X",
" X X X X X X.X*X^ j B e.6.C C C z N.,X<X<Xl.z C 6.6.C 6.M E =X=X.X{.(.). X X X X X X X X X X X X X.X",
" X X X.X>X,X3X,X~ < < h h h h h = f.wXaXaXV.j y h h h h < z %XeX2X1X>X-X X X X X X X X.X.X X X X X.X",
" X X X.X,X3XpXwX&XV.B.M.f.f.M.B.V.&XaXaXaX&X$XV.B.M.M.B.B.$X&XpXpX3X<X-X.X X X X X X X X X X X X X.X",
" X X|. X.X;X:X:X>X<X<X,X,X,X1XeXeX2X2X2X2X3XeXeX1XeX<XeXeX>XeX>X;X;X.X X X X X X X X X X X X X X X.X",
"|. X X|.XX X X X X X}..X.X.X=X=X=X*X=X=X-X=X=X=X.X=X}..X|. X X|.|. X X X X X X|. X X|. X X X X X X.X",
".XoX.X.X.X.XoX X.X X.X.X.X.X.X.XoX X.X.X XoXoX X.X.XoX.X.X.X.X.XoX.X.X.X.X.X.X.X.X.X.X.X.X X.X.X.XoX"
};
