/* XPM */
static char *result[] = {
/* columns rows colors chars-per-pixel */
"50 50 242 2 ",
"   c #2A1A1C",
".  c #321D1B",
"X  c #39221E",
"o  c #311F20",
"O  c #352224",
"+  c #3B2727",
"@  c #362D2B",
"#  c #393939",
"$  c #4D260F",
"%  c #56280F",
"&  c #492718",
"*  c #522713",
"=  c #542A12",
"-  c #5A2D13",
";  c #562D19",
":  c #5B321C",
">  c #6B2E0E",
",  c #6B320F",
"<  c #74320D",
"1  c #7A360D",
"2  c #652D12",
"3  c #693518",
"4  c #793B18",
"5  c #442B24",
"6  c #4B3327",
"7  c #553727",
"8  c #4B3B37",
"9  c #5B3E30",
"0  c #653C26",
"q  c #713D23",
"w  c #79421D",
"e  c #5C4329",
"r  c #4B4439",
"t  c #594738",
"y  c #67462C",
"u  c #7A4425",
"i  c #67512E",
"p  c #654A34",
"a  c #734B34",
"s  c #675235",
"d  c #785537",
"f  c #755D35",
"g  c #796238",
"h  c #293B45",
"j  c #373D46",
"k  c #1C4759",
"l  c #2C424E",
"z  c #3A4247",
"x  c #284758",
"c  c #364954",
"v  c #38525C",
"b  c #094F6D",
"n  c #174C66",
"m  c #1B526C",
"M  c #05567A",
"N  c #01557C",
"B  c #175977",
"V  c #28546B",
"C  c #33556B",
"Z  c #245976",
"A  c #31637B",
"S  c #474A4B",
"D  c #504C49",
"F  c #49565A",
"G  c #56565A",
"H  c #6E5C4F",
"J  c #70675A",
"K  c #415865",
"L  c #585D65",
"P  c #4F6971",
"I  c #63686B",
"U  c #6D6F73",
"Y  c #81360C",
"T  c #85390D",
"R  c #8C3B0C",
"E  c #923E0B",
"W  c #853C12",
"Q  c #8E4A0D",
"!  c #97410C",
"~  c #9B420B",
"^  c #894419",
"/  c #964616",
"(  c #A3460C",
")  c #A7480D",
"_  c #AB490D",
"`  c #B34D0D",
"'  c #B94F0C",
"]  c #B7500F",
"[  c #BC510D",
"{  c #A84C13",
"}  c #A9531C",
"|  c #B6561A",
" . c #B37014",
".. c #864924",
"X. c #934F25",
"o. c #885637",
"O. c #965B36",
"+. c #A1592D",
"@. c #8A6839",
"#. c #C3540E",
"$. c #835C44",
"%. c #886648",
"&. c #99694A",
"*. c #8F714E",
"=. c #9A7759",
"-. c #A36D4A",
";. c #A7734E",
":. c #A57A58",
">. c #B47D58",
",. c #887364",
"<. c #A47D61",
"1. c #CB8216",
"2. c #EAAC38",
"3. c #A68659",
"4. c #B4815C",
"5. c #BA9455",
"6. c #978775",
"7. c #A98766",
"8. c #B68965",
"9. c #AE9575",
"0. c #BB9672",
"q. c #BDA07C",
"w. c #CC9252",
"e. c #C48C63",
"r. c #C7946B",
"t. c #D6996B",
"y. c #CE9971",
"u. c #C7A67E",
"i. c #D6A579",
"p. c #E7A877",
"a. c #005682",
"s. c #015C84",
"d. c #0B5C85",
"f. c #015D8A",
"g. c #1B5D86",
"h. c #005F94",
"j. c #215B86",
"k. c #01628C",
"l. c #09638A",
"z. c #146586",
"x. c #14658B",
"c. c #15698C",
"v. c #1B688A",
"b. c #016593",
"n. c #016996",
"m. c #0A6997",
"M. c #00659A",
"N. c #016C9C",
"B. c #146C93",
"V. c #156A98",
"C. c #00709F",
"Z. c #14729C",
"A. c #1B789E",
"S. c #2D6D8F",
"D. c #2B6A96",
"F. c #006DA2",
"G. c #046DAA",
"H. c #146DA5",
"J. c #0072A4",
"K. c #0075AB",
"L. c #0C74A9",
"P. c #0178AF",
"I. c #1477A7",
"U. c #056EB3",
"Y. c #0076B2",
"T. c #007AB4",
"R. c #0D7AB3",
"E. c #0A77B8",
"W. c #007DBB",
"Q. c #1475B3",
"!. c #167AB4",
"~. c #227BAB",
"^. c #45718A",
"/. c #677887",
"(. c #0377C4",
"). c #017CC3",
"_. c #027CCB",
"`. c #167EC5",
"'. c #017ED2",
"]. c #827F81",
"[. c #3B839E",
"{. c #0081BE",
"}. c #0D81BF",
"|. c #1481B5",
" X c #3388AE",
".X c #4C8A9E",
"XX c #7D858F",
"oX c #5594B0",
"OX c #6A98A7",
"+X c #7BA5B2",
"@X c #0182C3",
"#X c #0D84C2",
"$X c #0085CB",
"%X c #0C85CC",
"&X c #0088CD",
"*X c #1885CF",
"=X c #0587D2",
"-X c #008AD4",
";X c #0184DA",
":X c #008DDB",
">X c #0791DB",
",X c #3195D6",
"<X c #008BE8",
"1X c #148FE3",
"2X c #0193E4",
"3X c #0096EA",
"4X c #0298E9",
"5X c #1493EA",
"6X c #008FF1",
"7X c #0092F4",
"8X c #009AF2",
"9X c #4F9DCE",
"0X c #5AA2CE",
"qX c #61A0C3",
"wX c #959491",
"eX c #A49A93",
"rX c #BBA686",
"tX c #A5A29A",
"yX c #99A7A9",
"uX c #98AEB4",
"iX c #A9AAA6",
"pX c #A8B3B0",
"aX c #B8BAB3",
"sX c #D5AC82",
"dX c #CCB28D",
"fX c #D9B589",
"gX c #E8B585",
"hX c #F5BB88",
"jX c #E1BE91",
"kX c #C5B9A9",
"lX c #E8C495",
"zX c #ECCB9C",
"xX c #F5C795",
"cX c #F4CB9A",
"vX c #CAC3B4",
"bX c #EFD0A0",
"nX c #F3D3A2",
"mX c #FAD4A2",
"MX c #FBD8A7",
"NX c #FDDDAB",
"BX c #FFE1AD",
"VX c #9EB6C0",
/* pixels */
"L.E.}.#X#X#X#X#X}.}.#X#X#XE.E.I.l.I.R.R.R.R.R.R.R.I.I.R.R.L.L.I.L.L.%X>X>X>X1X>X*X%X%X%X#X}.E.!.R.~.",
"T.=X:X:X:X:X:X-X;X=X&X@X@X@XW.Y.b.G.K.K.P.W.{.T.T.W.T.T.T.P.P.T.K.T.>X2X4X4X4X4X4X4X>X4X:X-X&X@X{.|.",
"@X:X2X2X2X2X2X:X:X:X:X-X=X$X&XW.n.J.K.K.P.T.T.{.W.W.W.W.T.W.T.T.Y.T.3X8X4X8X8X8X8X4X4X4X2X:X-X$X{.|.",
").:X:X:X:X:X:X:X:X-X-X=X-X&X&X).n.C.J.K.P.P.P.T.T.T.P.P.T.P.P.P.K.T.2X8X8X8X8X8X4X4X2X2X:X;X&X).R.H.",
"W.=X;X:X-X-X&X&X$X@X_.).).)._.W.n.n.l.v.v.B.N.m.B.B.m.J.P.P.J.P.J.Y.2X3X3X3X3X2X4X2X2X:X-X$XW.Y.F.Z.",
"Y.$X@X$X@X_._.).).T.T.T.T.Y.T.K.s.V t ..^ y S t u u t Z C.J.J.J.F.K.:X2X:X2X:X;X:X:X:X@X).K.F.K.W.|.",
"G.Y.W.T.T.T.T.T.Y.Y.Y.Y.K.K.m.Z j u ' #.] ) { ] ] [ { t l.C.N.N.n.N._.$X@X@XW.W.T.Y.Y.Y.F.N.K.W.{.|.",
"h.G.K.Y.Y.K.K.F.F.F.F.F.K.m.c 4 R ' #.#.[ ' _ [ #.#.( w V b.b.b.k.h.F.Y.K.G.F.K.K.G.F.N.b.M.J.J.J.A.",
"F.F.G.F.C.J.J.N.s.M.G.G.G.m ..( ( _ ' ` { { 4 W ) ( E 4 C L.K.G.J.K.F.F.M.F.F.M.M.f.n.M.M.M.M.N.N.I.",
"K.K.K.J.J.J.C.n.b.F.T.T.L.S / ( R 1 ^ O.-.>.e.;.X...w 0 V.=X-X-X-X&X$X@XW.W.W.P.K.N.F.J.J.K.K.K.K.!.",
"P.K.K.K.C.J.J.N.n.K.W.T.Z ..E E R W &.8.0.r.u.fXfXfX0.S.&X2X:X:X:X-X&X&X@X@X{.W.K.M.N.K.K.P.P.P.P.|.",
"P.P.J.J.{.J.J.N.b.K.W.J.D { ~ ..T 4 :.O.} } } -.jXzX9.!.-X:X-X-X-X-X@X@X@X).T.T.J.b.N.J.J.J.J.J.L.!.",
"K.J.C.J.C.J.C.N.b.J.P.C.D ~ +.r.-.d :.^ Y E ( X.u.8.o.S.&X&X-X&X@X&X&X{.{.W.P.J.N.k.N.N.C.J.J.J.J.I.",
"n.n.N.N.N.n.n.k.k.N.J.c.8 / -.8.0.8.y.O.q q 4 -.fXo.0 v.@X&X&X@X@X@X{.{.P.K.F.n.k.s.b.N.N.N.C.N.N.A.",
"k.k.k.k.k.k.k.k.s.N.b.V 4 ^ &.;.;.y.p.t.=.$.%.i.lXH c L.{.{.{.{.W.T.T.P.J.N.n.b.k.a.k.k.k.n.b.k.b.B.",
"f.s.s.s.N k.N N a.M l 3 R ! ..&.-.4.t.hXsXdXlXMXmX3.K C.P.K.J.J.J.N.N.n.b.k.k.s.a.N s.s.s.k.s.s.k.c.",
"s.k.f.s.N k.k.M n h 7 T Y E T 3 O.t.p.cXcXgXzXBXNXdXJ d.h.h.h.s.k.f.s.s.s.a.a.a.a.a.s.s.s.s.a.a.a.x.",
"F.Y.T.T.{.{.c.l + & > E _ ) R R | w.t.p.t.<.lXmXNXMX<.Z F.h.h.f.a.k.F.K.K.Y.K.P.T.K.Y.K.J.J.K.G.M.V.",
"Y.@X&X&X@Xc.# & % $ < ( [ ] ~ ` #.{ E | } O.t.t.sXsX&.j x.F.F.M.b.n.K.P.W.{.W.{.W.W.W.T.Y.K.K.J.F.V.",
"K.).@X$XH.# = - - = 1 _ #.[ ` [ { Y ~ ' ` E ..X.o.o.4 ; l d.N.n.n.n.J.{.T.T.T.T.T.T.T.K.K.P.K.K.F.Z.",
"N.T.).L.c = = = = = 1 _ ` ' #.[ R W _ ' ' ` ~ X.r.;.` E & h d.N.n.k.C.J.K.K.G.U.P.K.K.K.K.K.K.K.J.V.",
"k.F.K.m & - = = = - 1 ) _ [ #._ < R ~ _ _ ` E q 4.O.{ ~ % & l k.b.k.k.n.F.F.F.G.J.K.K.J.J.J.J.J.F.A.",
"f.M.d.# - - = - = = , ~ ~ ] [ ~ > R E ~ ( E < > 4 W R R - % 5 B k.k.N s.k.k.B m B b.N.J.J.F.J.N.N.Z.",
"a.f.m 6 - - = = = % - T Y ) ` E > Y E E T > < E ~ ~ Y > $ $ X k k.k.N N M n j 7 7 k f.k.k.k.f.f.f.c.",
"f.f.k 5 % - = = - - - , , ! E E < > > 2 < R _ [ [ [ ` E 2 : 7 x a.h.f.a.n z 8 9 6 j n j.m x j x M V.",
"'._.g.5 * * $ $ = = = $ $ 1 1 R Y > 1 Q ( [ #.#.#.#.#.' / 9.q.L U._._.G.C G D 8 8 S G G G U /.G Q.*X",
"6X6X;XZ 7 : ; ; ; & ; 7 & * > > Q  . .Q ` #.#.#.#.#.#.#./ 7.lXwX~.;X<X_.Z D 8 8 D G G G L U ]./.`.5X",
"6X7X6XD.7.y.7.=.<.<.:.<.a & 2 < 1.2.2. .) [ #.#.[ #.#.[ Q @.lXdXD.'.;X'.Q.j 5 8 + j C c G L ].].`.5X",
"6X7X'.D.0.xXnXnXnXbXzXsXH 5 ; 1  .1. .Q ! ] [ [ ' [ #.[ ! +.fXrXD.(.'._.U.j 5 ; j d.(.Q.C L ].].*X5X",
"<X6X'.S.0.hXNXNXMXsX>.&.: X 5 > , < ~ ~ T _ ] [ ) ] [ ` , o.lX9.P ~.H.S.G 5 2 : c h.(.'.j.I iX/.`.5X",
"'.'._.j.r.xXMXnXr.a : - * & $ q u w ) _ T ) _ ' ( ' _ ! 1 *.zXjXdX,.G ,.<.0 q 0 h h.(.(.j.U iX^.`.1X",
"_.'.U.C r.hXMXfXa * * * * * y e.4.O.../ T ) ) ` ( _ ( < R 3.bXBXMXjX%.%.%.<.<.$.S d.U.U.C U wXD._.*X",
"U.(.U.K y.hXzX*.; * ; * * 0 8.gXy.-.>.o.Y ) ~ _ ( _ T * < ;.bXBXBXcX>.$.7.jXbXzX9.V h.m.c U U H.U.!.",
"M.(.R.j.7.p.i.0 $ = * * : &.xXMXcXjXgX-.W ~ ( E E E 2 X 0 8.nXBXMXMXy.=.9.u.bXMXrXZ b.f.V I C d.f.B.",
"J.{.W.I.L 4.-.: * ; * ; q sXNXNXMXMXgX$.> Y E E E Y 5 O a sXMXNXMXjX<.9.jXbXNXnX6.B.K.C.l.V d.M.n.B.",
"T.@X-X@XP &.y $ - * - 2 &.zXBXNXMXmXe.7 5 & 2 > Y 2 5 O a p.hXmXlX7.=.7.u.bXBXzXU C.P.P.K.F.F.G.K.A.",
"P.&X-X{.P 5.i & * * 2 3 8.nXNXNXNXcXe.6 O O + & & X + O 0 r.p.hXsXdX=.sXzXMXNXrXA F.K.K.K.K.K.K.K.I.",
"J.{.@X|.J 5.i .   & & : 8.hXxXmXmXi.$.5 O o @ + O O O O 5 H >.t.i.y.d %.0.jXsXI B.J.F.F.F.K.G.K.J.A.",
"F.W.@XI.3.5.i       . & -.y.t.p.i.>.7 O O   @ + o o O O O m C J <.&.q ^ u @.H B n.N.N.F.F.N.F.N.n.B.",
"n.T.T.v.3.5.f 6 5 . o X 5 9 q a a 7 5 6 + O X X O . O . O M f.d.v 0 ^ w u # b M k.b.N.n.N.N.N.b.k.c.",
"k.J.n.V *.5.3.3.%.y 6 7 e e e : p p a f s 7 5 7 e e e e # b M b # w u w 7 k b N N N N N a.a.s.N N c.",
"f.b.k.B B V v F v l 6 y g g g r x v v S v x 5 e g g g t n N M b 8 w w 3 # M a.N N N N N a.s.s.f.k.B.",
"Y.K.C.J.C.C.n.n.G.U.z i f f t B.(.(.'.$X;X(.V t f g s C n.F.J.N.m r : 6 B P.K.T.T.K.F.J.C.J.J.J.J.|.",
"T.T.{.P.P.J.J.C.(.`.S f *.g s G K H.1X5X1X*XV p @.g s G v B C.C.C.z.V B R.@X@X$X@XT.J.J.P.P.T.T.|.|.",
"K.K.J.J.J.Z.A.[.oXS.r i g g f f p r XXuXVXyXJ e g g f f i r ^..X X X|.T.W.{.{.W.{.P.C.C.J.J.P.K.J.|.",
"J.J.C.N.I.OXuXpXpX6.i t i i p p y s eXvXvXkX,.s p p t s t s wXaXaXuX+X XP.T.T.P.P.C.N.C.C.J.C.J.n.|.",
"C.C.N.n.m.[.OXyXuXpXiXtXyXtXwXtXtXaXaXaXvXaXiXiXtXtXtXtXtXiXiXpXuX+XoXI.F.N.C.C.C.n.n.n.N.C.C.N.N.|.",
"k.k.k.k.k.k.b.B.E.,X,X,X,X9X9X0X0X0X0X0XqXqXqXoXOX.X.X.X[.[.A.A.Z.B.m.b.n.n.n.n.N.k.k.b.n.n.b.b.n.Z.",
"k.k.s.s.M l.N k.G.U._._.'.'.'.*X%X'.%X`.(.R.G.m.m.l.l.l.l.k.k.k.k.k.k.k.n.k.n.l.n.l.k.k.k.l.k.k.l.c.",
"z.z.z.z.z.z.z.z.V.I.Q.Q.!.Q.Q.Q.Q.!.Q.Q.H.H.V.H.V.x.z.z.z.z.c.z.z.z.c.B.c.B.B.B.B.c.z.z.z.z.c.z.z.S."
};
