/* XPM */
static char *result[] = {
/* columns rows colors chars-per-pixel */
"50 50 61 1 ",
"  c #01476C",
". c #01496E",
"X c #004C72",
"o c #004E7C",
"O c #005276",
"+ c #00547B",
"@ c #00597E",
"# c #005482",
"$ c #005C84",
"% c #00578A",
"& c #005D8B",
"* c #005E92",
"= c #006186",
"- c #00628C",
"; c #006493",
": c #006995",
"> c #00649B",
", c #006C9C",
"< c #00709E",
"1 c #0066A3",
"2 c #006DA3",
"3 c #0067A8",
"4 c #006CAA",
"5 c #0072A4",
"6 c #0078A7",
"7 c #0075AB",
"8 c #0078AE",
"9 c #006EB2",
"0 c #0075B3",
"q c #007AB4",
"w c #0073BB",
"e c #007DBB",
"r c #0076C1",
"t c #007CC3",
"y c #007DCC",
"u c #007FD3",
"i c #0083B6",
"p c #0082BD",
"a c #0088BF",
"s c #0083C4",
"d c #008AC3",
"f c #0084CB",
"g c #008ACD",
"h c #0083D3",
"j c #008BD4",
"k c #0085DC",
"l c #008DDB",
"z c #0090D7",
"x c #0091DC",
"c c #0087E1",
"v c #008AE4",
"b c #008CEC",
"n c #0093E3",
"m c #0098E6",
"M c #0095EB",
"N c #0099EC",
"B c #008FF1",
"V c #0092F4",
"C c #009BF4",
"Z c #0096F8",
"A c #0099FA",
/* pixels */
">eqeteeeeetteeq4o4070077445742272>fjljjljjftte074>",
"0jzvnnljjgffeeqq&7q78peeieiqe87q70mmmNNNnnNnxlffp0",
"tnnMnnnvvllllgjf-788qiepepeeeqqeq7CCCCCCCCNmnljfs8",
"enllvllllljjjhff-<5677q8qqq8qqq777CAACCCMMnnxjhfq>",
"0jjlzjjffssestst&,<<66767777877777mMmCNmmnnvzje7,&",
"0jffssstteew0q00::<:::::<677667555nnnnllnvlfe7>7te",
"2eteeee0qq070707-;$=$$=---::55,,,>fffrw00w07,:7ps7",
"&2707757222762,:$$$@$$$$-&----;;$&707777756,;5775;",
"4222224>#*44424002>>>,>>&%400047742>>>,>>#*;;;>>>2",
"q77767,,;7qeppsfjfspeq557qpgjxzlzjfssspq7276787888",
"q777756<;qepsfgjfjjgfsse5qjnmnnxxjggsspe0;5777888q",
"8776665<-8qqesssfsffssee2qzzjzjjjgffspqq7-,5577777",
"7655556<-777qepespseeeq0:sjjjjjgfggdpqq5,$<<<56652",
":::,,,:--<557qqqqqqqq752&edsgssgsspqq72::#:,,,,,::",
"---;=-==$:,2567777755,:>*7qepssppqq86,:--+---:-;--",
"&&$$=@=$$;:::::,<5>:>:::#,q7867552<,:;---o=----$-$",
"$$$@$$##%.OO$:;$OXOOOO+X##$&$&&-;$#@OOO+Oo+#@@+#$#",
"4qepespq0772;0qq&;22225725252>*#o&78qeeeeqeq7707,#",
"7fffjjjhjjhe2;8q*2eeeeeeee00522,,:qqeseppeeq7775,:",
"4sgffsjjfhffe:-;&2qqeeqe0eqqq6,:-:88qqqqqqq8qq075&",
",ettssfffjfste,#@5q0q7q07qq07222:-6787q7q70777777;",
"-2qpesststw02707&77077707522:::,:$-,5557575756752:",
"&:>2qe052,,>>>;,&,522522,,::;:-::=$@$-::5552552,:;",
"#:>:>>>>>>>>>>**$;:::>:::>:-;--;-=$@+$@#$$-:>::;-#",
"o$*;;--&&-&&&&&$+$$&@#@@OO@+@#@$@#$$O@@@+@#$@#@#@#",
"hkhhuuu*>q7q80742222>*%##4ryyhuuuuyrw99w>owuuuuuhu",
"VVVVBBbr:thjllljlkffseq72whcvvvccckkuyytw*vvbBBBBV",
"BZVVVBbw2fffhjlllvlvlljs;wkkkvvclkkkhufyt*vvbbBBBB",
"BBBBBbbu2ffffjhhjlllllhg2wjkjkjhhhhfyftrw;hccvvBbB",
"bbvvvchu2ssffffffjjjjhhf:4wryyhuyfyttte07*ukkcvvvb",
"cuuyyryy2tsssfffftyrffff*>12339ettreeeq02$yuhkkukv",
"rrrrrwrw>0ww009007070ttt&;>>>>>17w04742>-#rwyuuyuy",
"rrrwww09$222232247224442O#@-;;*;;*>;;--=$X>wwwwwww",
"*wet05>>>&-;:;:&X&22542232>*&$%%%+2250414>*&%&&###",
"6iippaaadspaaipi2qpqpeqqeeeqq55<<:57687q8555::,,:;",
"qgzzzxxxxnxxjgga<5pstpfpsqeq655<,:5778qqqqqq07570>",
"7gggzjzjzzzjzzzg5qqqepeeqqq855<<,:<<<6667777707772",
"5ffdggjgzjjgggga:qqqqq8768855<<<:=::<<55555<57577:",
":pssdgggdsepqpas;57658552,,:-;:::-@@$=-:,5,52225:$",
";eppqq8752252,56#::;:--&$-=$=$---=OOO@@$&:5,,,2;$$",
"&55::,,,:,,::>::o#$$&-&;====@@O@@@OOOOOOOOO++@@@=$",
"&&;&&-%@$$$#%$$@#XOXXXXX. .......XO+OOOOOOo@+$#$#&",
"q08887653bbMbbMbcvBBVBBv4>fspqq77eeeeqeese256677q8",
"qqqq855:rAZAZZVVBvvvkhhy0qpp8<<<6qpssssssq577qqqqq",
"77775<5,yVZZZZZVBBBBvvkh3,,::::6qqepppppp8<5777767",
"55<,<<,:rBVBBVVBBBbvvkku1$::<<6678qqqqqqq5:<<<<666",
"<<,:::::wbbbbbbbbvvchhhy5::::<<56652225,2,:,,<,<:<",
";:---;--9hvvbbvcvchhhuy0>---::<<,:;;::::::-::::::;",
"$=@=@@@=4rruuhkuhhyur41>>&===---=-----;-:-$--==$==",
"$@@@@O@+&44393333993>>*>*@@@@@$@@$=$-&---@+@@@$$@@"
};
