/* XPM */
static char *result[] = {
/* columns rows colors chars-per-pixel */
"50 50 78 1 ",
"  c #372D24",
". c #392E25",
"X c #3A3027",
"o c #3D332A",
"O c #41362D",
"+ c #43392F",
"@ c #453B31",
"# c #493E34",
"$ c #4C4136",
"% c #4E4339",
"& c #51463C",
"* c #54493E",
"= c #564B41",
"- c #594E43",
"; c #5D5146",
": c #5E5349",
"> c #605347",
", c #62564B",
"< c #65594D",
"1 c #695C4F",
"2 c #665C51",
"3 c #6A5E52",
"4 c #6D6155",
"5 c #6F6458",
"6 c #716456",
"7 c #726559",
"8 c #75695D",
"9 c #7A6C5D",
"0 c #766C60",
"q c #7B6E61",
"w c #7E7164",
"e c #827365",
"r c #877867",
"t c #847669",
"y c #86796B",
"u c #8A7B6D",
"i c #8D7E71",
"p c #90806D",
"a c #8F8072",
"s c #938475",
"d c #978877",
"f c #998876",
"g c #968778",
"h c #978879",
"j c #9B8A7B",
"k c #A08F7E",
"l c #A2917E",
"z c #9E8E81",
"x c #9F9083",
"c c #A49382",
"v c #A89784",
"b c #AC9A86",
"n c #A69688",
"m c #AD9C8B",
"M c #B19E8A",
"N c #B19F91",
"B c #B4A28C",
"V c #B9A68E",
"C c #B5A392",
"Z c #B9A793",
"A c #BDAA93",
"S c #B7A698",
"D c #B9A79A",
"F c #BDAB9B",
"G c #C1AD96",
"H c #C1AE9B",
"J c #C5B29C",
"K c #C8B49F",
"L c #C0AFA0",
"P c #C5B3A2",
"I c #CAB6A2",
"U c #CCB9A5",
"Y c #CAB7A9",
"T c #CDBBA9",
"R c #D1BEAD",
"E c #D4C0AF",
"W c #D4C1B0",
"Q c #D8C5B6",
/* pixels */
"ei7@1A&:=X-ttq=X+>#-z#@#.=t633;#.+=,:=%7e###+78O47",
"GGJZs-qWIjNZvMGn6f9+64GM@rGHHJUYj*MAGGPqqHGHHHLzcG",
"jcbBZliAMM>>>=3f1.tLM,3;.egfjkbZKS<issu%vGBMMNGJee",
",eassqsgis:yms=,u6DGBM4..;460eijcAq*257,;iffgfjc7O",
"3*<-@*zt0=&Mmc1.e3usit4+X...@38qsh*ecGRIMO&30eq0&>",
"IJy%uUIIU9kci4uji+O#%&+k>6Hc;O;,2*-UFMMMbO+O.Oo ;J",
"bMVf8BBvMvuw2uHGH7.1e7=8@iMAKLLDPU1lhhssreYL-Ozu&f",
"7is6%issq%iZf9sgfz>MmmZq.8sfcMMMBbs:,72=7KGBs3JGi.",
"X,#..;2<O.;8e=;&:3X*eiu->-&38eissftqSTz#AZvjs6ZviO",
"yTZ2 $h% *i+OjA:ecO o$#Ore....&54<*HAAG<vft0=whsr+",
"Vvy*7;h3<WQDe33Ohq9xASusO4FDs# X28rMvjzu*92+.#:;&k",
"se2**O%>uTHKUL<%z3pBcksc#IPIYFmL4 >sssiu#-tu7*=;-M",
"-Ore.33:qGMmmMfNWP%,39,$XBAAAAGHG,X&274>X3PIUPUY6;",
"Cz-&&Zz 6MjhffyDGGuOO<2X eccccvbMb#j$*74OuVBBBBBu,",
"IIc@O>&.9jffgi30VmlwqEEu1&ugggffh9X8eFTKs+usshsi-v",
"Zvc9 zPo$uuyq8#OhhhfAGGlseX%5qqq8o=RIGVBk+O>87271k",
"ggs9@WWL@2723&O.9ew57VVlX*f*+,44@.mGBchgu% ;s,+vf<",
"8w9*#GAHq.o8AZMz%982pxjp.-l3sp$5q9vvhst08=#7i9&*6o",
"o#OOOvmMBfoo$-,6o94ouhhy98%O*5*$;e>te7=%@XCIKKIF- ",
"  .iqfggjj#8mDh2%,%$wagy;w*dCFAc.o.O@O7u#-vmbBVAi ",
"FRs#o9iiswofmbBGUP#o7885ooZAVVAA1 O8Cmuy;+9eyuye<+",
"PGIy.:88328qgghklmuo=888*+dhhhdf-+MRJPGs<XX$&$+O.9",
"vvMCeO&#o%e*qiuiaaw*;<4:B7:5542:-qKGAAZZF> 8jgq8<$",
"-ahjMZqX,Lc*.#,2:= uso X=%X4sk$+M9ABzfss8X9GZAZAG*",
"+;qisfaoiRIP9 9A2@7r1%@$sw$jjh6=qO>373,%..8vkjkjf&",
"7v@-22,%2AVBVM8u&NRUUEEr X7nmh-o@.6jiq@ >M337808>.",
"2#@4:Ogs-issiseX;GBBMvbk>:VAZGGmu&-e=+#6<q,...oo.7",
"QsX%NC3.=,222;3-@sghssst&:ypsdlcBV ,nCUUPso uYYr#R",
"IIe;mJP9#O6,o.rc+*,2455; o;=:50yuyXMGAZBZM1XZRJeOF",
"AVG6#cbHB6@@1>=,.   +81o:+ceoX@%@OOrvgietu37HVv;.s",
"klbi.qfjMZOhIJIRc06# =g4v=8a:$%@.ssX#%%*=<=zZje+@k",
"ssg4 o9wifObAVVVAGJk+xEsX1EIUIIF>12XX*r1.ibict<iiu",
"784;C%o=:1X&49yyuuy6#BAl-6Vvckhsw&NDPRTIM&o<w8,vf&",
"%:@X:$  7F6  X+@$8,@;Mkrl$4e084:OeABmvlkf9.$2-#7=.",
"   ;nm9q&4&9ht=XXsM9<su#+7GeX X#o-st97>>,O-+o$##O.",
"X8NFJCCCkXnIJJJm8*+o&2@7r<w33X&BlOOo8ck=.=B2nGGFV-",
"+Vmkse7w8 vAbvvBCCc+.o <9oqPRC--7o.&9eq03#2&flhsf$",
" :74;@o&# sjsauyisqX+qhtXfKGGGZ7@ ,IPFHIK9X1<&*;*X",
"  .*4@hIbe*=;;:<2:O#mRIA+PBvvvbMe.fGABBMl*.,3,&&t<",
",093%X4CVBs= X,8# %mIVMs.Zjste95=O&kjsit$#yTUTUjse",
"EKJUUme-wuw=  $42XmKbjd<&22%#oXX1j.#503X.vGbvjcs v",
"VBvvvmBV*+=amLmu$.8sse;%B&   %jyO,jN0#..#<ee983@ v",
"juwwwwwe$wUKAVBcj&cj;&X<%+smmFJGkeGGHGe-RYuXo.6s#f",
"$$+X oO XuAvjdsuw@cmeXuF@9KGZMcck1jkcvv6GGJcu=<k1+",
"h4+jc7 ,p*961;;;# #=$.9k+-bvduw07+-eyt7=sjzvMn1#*h",
"48X49*OO:@ #cl& -cYHFf*#<t#O++o;-O.-*+:jo&,897#.X*",
"ee;>>tFFh;oo<t%8UKGABbuO+>-37dSIHv#q@&>i0is8@X%tjs",
"KJG9 sAVVZh61#oJGMvlhsu#.qHIKGBblu*OiPLUUHFM=.fIJJ",
"paw4<2uaauaw0:=;ww888825peBlsa94<ms.9kkfaa8%4q1ffs",
"+oX=uoo$&*$ooX2$w4%u1o $8.++ooOjs==.X+&-;$X %w+X++"
};
