/* XPM */
static char *result[] = {
/* columns rows colors chars-per-pixel */
"50 50 230 2 ",
"   c #17140C",
".  c #171814",
"X  c #1C1A14",
"o  c #281708",
"O  c #221D16",
"+  c #262016",
"@  c #262519",
"#  c #2B251B",
"$  c #2D2B1D",
"%  c #332718",
"&  c #322D1D",
"*  c #32311E",
"=  c #112529",
"-  c #0C2B36",
";  c #102C33",
":  c #2F2C22",
">  c #262E29",
",  c #312E23",
"<  c #2C332D",
"1  c #353122",
"2  c #3C3623",
"3  c #3C3B25",
"4  c #33332B",
"5  c #3A3529",
"6  c #35392B",
"7  c #3D3B2B",
"8  c #2A3936",
"9  c #343A34",
"0  c #383D35",
"q  c #463B1F",
"w  c #513E1E",
"e  c #423623",
"r  c #453726",
"t  c #443B25",
"y  c #4C3D24",
"u  c #433D2B",
"i  c #4A3D2A",
"p  c #523F24",
"a  c #463F33",
"s  c #3C4234",
"d  c #3B453B",
"f  c #4F411D",
"g  c #4B4225",
"h  c #494326",
"j  c #46432B",
"k  c #4B422A",
"l  c #4D4A2D",
"z  c #534425",
"x  c #594525",
"c  c #544A26",
"v  c #5A4925",
"b  c #53452A",
"n  c #594729",
"m  c #554B2D",
"M  c #5B4C2D",
"N  c #54522F",
"B  c #5D512D",
"V  c #434432",
"C  c #4C4631",
"Z  c #4C4A32",
"A  c #43463B",
"S  c #464A39",
"D  c #524531",
"F  c #534C32",
"G  c #5A4D32",
"H  c #524E3B",
"J  c #4E5337",
"K  c #545333",
"L  c #5C5334",
"P  c #5C5A35",
"I  c #54533B",
"U  c #5B533A",
"Y  c #5D5A3C",
"T  c #634B27",
"R  c #63532D",
"E  c #6B572E",
"W  c #70582D",
"Q  c #625533",
"!  c #665635",
"~  c #645A35",
"^  c #6B5B33",
"/  c #635C3B",
"(  c #6A5D3A",
")  c #725E35",
"_  c #6D6135",
"`  c #64623C",
"'  c #6C633C",
"]  c #6A673D",
"[  c #736136",
"{  c #7A6436",
"}  c #73653C",
"|  c #7A6639",
" . c #73683E",
".. c #7B6B3E",
"X. c #07364A",
"o. c #123E54",
"O. c #253E41",
"+. c #194757",
"@. c #284748",
"#. c #2B454B",
"$. c #354947",
"%. c #3B4A43",
"&. c #38524D",
"*. c #2A4D54",
"=. c #2D525C",
"-. c #3D5454",
";. c #35555A",
":. c #3D5D5C",
">. c #094B67",
",. c #1A5669",
"<. c #015276",
"1. c #00557D",
"2. c #00597E",
"3. c #0F5879",
"4. c #175A75",
"5. c #2C5A67",
"6. c #365A62",
"7. c #2B5D71",
"8. c #0E617E",
"9. c #37646B",
"0. c #2B6475",
"q. c #326673",
"w. c #464C45",
"e. c #495449",
"r. c #565947",
"t. c #5A5C43",
"y. c #54574B",
"u. c #435A56",
"i. c #4A5C53",
"p. c #675D43",
"a. c #715D40",
"s. c #54614C",
"d. c #5B634C",
"f. c #496158",
"g. c #4C645A",
"h. c #586754",
"j. c #53695A",
"k. c #59705C",
"l. c #666342",
"z. c #6C6543",
"x. c #6E6B44",
"c. c #6B6A4C",
"v. c #736342",
"b. c #746C43",
"n. c #756B47",
"m. c #796C42",
"M. c #7B6C4A",
"N. c #7D7143",
"B. c #7A714B",
"V. c #78744A",
"C. c #666C55",
"Z. c #6E7759",
"A. c #7C7352",
"S. c #797953",
"D. c #496865",
"F. c #556B62",
"G. c #4C746F",
"H. c #697663",
"J. c #816E4D",
"K. c #837243",
"L. c #87774C",
"P. c #907F4F",
"I. c #837353",
"U. c #857855",
"Y. c #8B7B5A",
"T. c #728369",
"R. c #898259",
"E. c #8C8762",
"W. c #9A8A65",
"Q. c #999264",
"!. c #005682",
"~. c #005B84",
"^. c #0E5B87",
"/. c #005789",
"(. c #005D8A",
"). c #175D82",
"_. c #005E93",
"`. c #006086",
"'. c #00628C",
"]. c #156387",
"[. c #006493",
"{. c #006996",
"}. c #00659B",
"|. c #0A6598",
" X c #006B9B",
".X c #116E9C",
"XX c #09709E",
"oX c #11729B",
"OX c #2B6881",
"+X c #3D7C89",
"@X c #0267A4",
"#X c #006DA3",
"$X c #006CAB",
"%X c #0072A4",
"&X c #0074AB",
"*X c #0C76AB",
"=X c #0078AF",
"-X c #1679A9",
";X c #006EB3",
":X c #0074B3",
">X c #007AB3",
",X c #0073BB",
"<X c #007CBB",
"1X c #0B7AB8",
"2X c #0076C1",
"3X c #007DC3",
"4X c #007CCC",
"5X c #007FD1",
"6X c #0280B6",
"7X c #0083BD",
"8X c #1B82B5",
"9X c #2386B3",
"0X c #5E908D",
"qX c #0082C4",
"wX c #0084CB",
"eX c #008ACD",
"rX c #0083D4",
"tX c #008BD4",
"yX c #0083DB",
"uX c #008DDB",
"iX c #0090D7",
"pX c #0091DA",
"aX c #0087E2",
"sX c #008AE5",
"dX c #008CEC",
"fX c #0092E3",
"gX c #0095EA",
"hX c #008FF1",
"jX c #0091F2",
"kX c #0097F8",
/* pixels */
"@X>X<X3X3XqX<X<X6X6X*X*X8X-X-X.X^.XX*X&X;X;X,X,X:X:X&X:X&X$X$X$X$X$X7X9X8X1XqXiXtXwXwXwX3X<X,X=X$X}.",
":XtXuXuXuXuXuXtX0XT.s.d.Z.s.l.T.Z.H.H.F.g.g.D.0.0.0.0.7.q.G.G.G.D.D.k.M./ V d q.fXfXfXfXuXtXwXqX>X=X",
"3XuXfXfXfXfXsXuXT.c.x.U.R.x.z.Y.J.J.Y.M.J.I.K.v.a.v.( U b Q m.m...| m.M.A.Y g :.gXgXgXgXfXuXtXwXqX>X",
"3XuXuXuXuXuXuXtXT.V.S.S.R.E.U.W.W.Y.W.Y.Y.I.J.M.I.Y.A.n./ x.x.x.B.b.R.Q.R.U...+XkXgXfXfXuXtXwX3X:X}.",
",XtXtXtXtXtXtXwX:.c V I C.Y t.A.I.Y.Y.p.5 r i r i k m j F ( ~ L ' A.U.z.a.p.} 0.gXfXfXuXtXwX>X:X@X[.",
":XwXwXwXqX3X3X3Xo.  , * & + O : : , , : X . X O X X # O # # # % 5 7 u , : O o O.uXpXtXwX<X&X#X=X<X>X",
"#X,X<X<X<X>X>X>X@X4.V.m./ p.> X.- = - X.X.; =     X   . X   = ; . @ K K m , X.1.>X>X>X:X@X X=X<X<X=X",
"[.#X&X:X&X&X&X$X#XoXS.L.M.I.$.d 4 8 6 s t , 5 , @ , $ # % $ > 8 X @ I ` ~ w.&X&X&X@X#X X{.{.#X&X%X{.",
"@X#X#X#X%X%X%X}./.].S.L.x.n.%.h.m.F.C.N.K.Q p.z.j P } F Q Q b Y 3 * s P ^ e. X@X}._.[.{.{.}. X{.}.@X",
"=X&X&X%X%X%X X X{.XXS.P.U.M.9 F.m.D.c.B.N./ p.t.u Z  .U l.U t K Z @ 2 P _ -.<X>X%X X#X%X#X&X=X=X=X=X",
"=X=X&X&X6X%X%X X{.*XZ.L.S.M.8 j.K.D.C.S.B.' I z.3 F b.S t.m j F 5 $ j ' Q &.<X>X=X}.%X&X&X=X6X%X=X=X",
"=X=X%X%X%X%X%X X{.*XZ.K.I.v.9 g...h.C.A.m.~ U l.K z.' A r.F j L 7 5 z.b.M =.6X>X%X'.{.%X%X%X=X%X&X%X",
"%X%XXX%X%XXXXX X{.XXC.K.I.a.8 g.{ y.C.B.' Q t.p.~ n.' S s.P u ~ 9 s ' ' c =.>X%X{.(.{. X X%X%X%X%X X",
"{.{.{. X X{.{.'.'. Xh.K.B.G < j.{ C.h.c.} ( r.U L / ~ d h.P * L 0 s ! / v =.%X X[.(.{. X X X X X{.{.",
"'.'.'.'.'.`.'.`.`.{.u.{ Q b 9 j.) H r.A.} ^ I d.z.( ^ %.h.L & g d s } / v +. X'.(.~.'.'.'.{.[.'.'.`.",
"(.(.~.~.2.`.2.~.~.(.f...( ^ 0 f.| p.e.B.n.} c.U M v.Q %.f.~ t g A 5 z.' c +.'.(.~.<.~.`.~.(.`.(.`.(.",
"(.(.(.(.(.`.(././.1.u.K._ G , S  .n.r.l.M.} t.U n ' ~ 9 e.Q g k 0 3 ( _ b +.(.~.!.!.!./.~.~.!.(.~.~.",
"#X=X>X>X>X<X<X>X&X&X5.| n.g + m } Q F ' | v.D U ! } ' u K G F g < k } m.f 3.>X=X&X=X=X=X%X#X$X#X}./.",
"&XqXwXwXwXtXtXwXwXyX7.T } G : e.n.( m m n m.! F ! ] _ g L L b e < u ] ] v ].qX<X7X<X>X>X=X&X&X%X X[.",
"&X3XwXqXwXwXwXwXwXuXOXT _ m 1 S | ) G b n } Q b Q z.P i M Q z e 1 t b.P c 4.7X>X>X>X>X:X=X=X&X&X#X[.",
" X>X7X3XqXwXwXwXwXtXOXE [ g , S [ ^ F Y ^ } M U _ ] L A e.R b i 5 i m.P m 4.>X&X=X=X=X&X&X&X&X&X#X[.",
"[.@X:X<X<XqX3X3X<X4X4.E Q q < :.^ Q H I ^ ^ L r._ ~ R e.6.Q h i t l ~ L B 3.=X%X&X%X&X%X%X#X%X&X#X[.",
"/.{. X#X=X:X:X&X#X$X7.M B z < :.E ^ U H Q [ L r./ 2 v e.u.^ M u u h t 2 M ,. X}. X X%X%X%X X%X X{.'.",
"!.'.{.}.}.}.[.|.[.}.4.M M x < ;.) ^ L H G ^ F r.i 3 h w.g.[ m t 0 , t g t >.~.1.~.(.'.'.[.[.[.'.`.~.",
"/.[.{.[.}.{.[._.(.}.,.n l v 9 ;.Q W G r.U R U y.k Z g O.h.( G F A 5 b F 2 >./.~.1.1.~./.(.(.(././.(.",
"4X5X5X5X4X4X2X}.}.:X].L h x A 6.E ! n t./ E U y.k i b e.u.T G m 9 5 g k y ^.:X;X}./.;X4X4X4X4X4X5X4X",
"hXjXjXhXhXhXsX,X@XqX.XU B v w.9.Q R R U ! ) r.w.b G n e.-.c m b O.a G G y ^.5X2X:X_.rXdXdXdXdXhXhXhX",
"hXjXjXjXhXhXsX2X#XwX*XF R T y.6.b M ! G F E y.%.y m n %.&.z Z D #.7 n G q _.5X4X,X$XrXsXsXdXdXhXhXhX",
"hXhXhXhXdXhXsX5X&X4X*XC n ! H 6.m g ! L L ^ s.%.y b p w.$.m Y C #.6 z M e |.4X<X:X}.5XaXaXsXdXdXdXdX",
"dXsXaXaXaX5X5X4X&X3X*XC G ^ H ;.( b ( Q ! [ i.&.n i p w.d c y l #.7 m b 5 |.3X:X$X}.2XyXyXyXaXaXsXdX",
"5X5X4X4X4X4X4X2X$X<X:XA ! ) t.*.b.R [ ~ L W u.$.x y p a s h 2 F #.u M p e }.<X&X}.[.3X5XrXyXyX5XyXyX",
"4X4X2X2X,X2X2X;X}.:X&XS R | D @.x.( { / ! ^ i.$.w p n 7 7 t h F #.e n x r [.#X}.`./.;X2X4X5X5X5X4X4X",
",X2X2X,X;X;X:X$X_.}.}.e.E m.k 8 K Q { B / ^ i.%.w m i i t j l h @.2 Q p 5 !.{.'.~.!.}.$X;X;X,X;X;X;X",
"}.;X<X,X:X&X#X@X}.[.[.s.^ _ u 8 j x R M / W i.-.q n r i e h N K 8 3 G y 5  X$X}.}.[.[.[._._._._././.",
"%X>X7X7X7X7X7X7XqX7X6Xs.R W u +.k y R M Q { -.i.G i p D t t h K #.i b p 7 $X=X=X:X%X%X@X{.{.{.{.{.(.",
">XeXeXtXiXiXpXiXpXpXpXs.' ^ t ,.j w R Q ( [ u.h.! Q M D t t q K @.G ! v s %X>X=X>X=X=X=X=X#X&X&X&X X",
">XeXeXeXtXiXiXiXuXpXiXf.^ ( C #.j z R M Q ) :.d.! Q n U i G m F @.I ( x A #X&X%X&X&X%X&X&X&X&X&X&X X",
"&X7XqXeXeXeXeXeXeXeXeXu.^ ^ u > t h M m ! m.j Y p.G n U b n M k @./ G n A  X%X#X%X%X%X%X#X&X#X&X%X{.",
" X>XqXqXqXeXqXqXqX7X<Xu.m.~ V 8 l g B U / n.l ~ v.! Q D i r p F d Y Y Q V ~.[.{.{. X%X#X#X#X#X#X[.`.",
"{.>X6X<X>X>X=X=X&X%X&X&.} v.k 8 j h B M '  .h ~ c.n.! G g e y g s A.v.) V <.2.~.`.{.{.{.{. X{.'.(.2.",
"(. X%X X X X{.{.{.{.}.&.} ' h < l g m R _ ' V ` K ! F m m l t g 2 U ' ! s >.<.<.<.<.1.1.2.2.~.~.~.~.",
"_.[.[.[.[.'.[.`.(._.}.;.' ^ m $.U B Q ~ U ] &.Y Z c Y F m j y g 3 l m L j 3.!.1.!.!.1.2.!.~.~.~.(.'.",
"=X&X&X%X#X%X%X X$XrXaXq._ _ m :.Z c _ ~ N ] 6.d.P ` n.U l h j t 3 N Y b.I *X>X>X>X=X@X%X#X%X#X&X%X=X",
">X>X:X=X=X%XXXXX3XdXkXq.^ x.G ;.Z h P B m ` 6.t.K z.x.U m l y t * J x.z.d.*XwXqXqX>X%X%X&X=X=X>X6X=X",
"&X&X%X%X%XXXXX X2XdXkX7._ ` h $.Z m g B c Y =.K 3 N ` j m N g l * 3 ` ` J =X3X<X7X=XXXXX%X=X&X&X&X&X",
"%X%X X X X X X X3XdXkX7.B ` k @.H P P L l J 9.N 3 J ` h Z m y Z $ * K ` V %X>X=X=XXX X X X%XXXXX%X%X",
" XXX X{.{.{.{.}.,XaXhX7.c ` k %./ c R P g Z ;.f P ` P q j j y b * l J ` V |.%X X X X{.{. X X X X X X",
"{.'.'.'.'.'.'.'.;X5XsX9.c K t d } I 9.d.d =.5.d h.h.-.@.@.,.*.&.&.V.] _ Z {.{.{.{.{.'.{.{.{.{.{.{.'.",
"`.`.~.2.2.2.2.~.@X,X4X5.p L e.).-X-X4X1X;X;X|._._.^.2.(.`.`.'.'.8.9.9.5.4.'.'.{.'.'.~.`.`.`.`.`.~.`.",
"2.2.2.2.2.2.2.1._.#X$X@X).].@X;X;X;X;X;X@X_.}._._./.2.1.2.2.~.2.`.`.(.`.`.`.`.'.'.~.1.2.2.~.~.~.2.2."
};
