/* XPM */
static char *result[] = {
/* columns rows colors chars-per-pixel */
"50 50 193 2 ",
"   c #004F7F",
".  c #005275",
"X  c #00557D",
"o  c #00597E",
"O  c #0D587C",
"+  c #185876",
"@  c #35596D",
"#  c #315A74",
"$  c #376B63",
"%  c #625358",
"&  c #795A54",
"*  c #425867",
"=  c #505D6C",
"-  c #785C63",
";  c #5B626B",
":  c #4A6276",
">  c #487570",
",  c #626369",
"<  c #6A666C",
"1  c #7B6769",
"2  c #636C75",
"3  c #AE6E3F",
"4  c #BF763A",
"5  c #CB5E39",
"6  c #DA5B30",
"7  c #E55A2D",
"8  c #FD5D2D",
"9  c #CD6739",
"0  c #D46639",
"q  c #D77338",
"w  c #FF6225",
"e  c #FC6927",
"r  c #FD642C",
"t  c #F76C2A",
"y  c #FF7723",
"u  c #F97A24",
"i  c #F87A27",
"p  c #F77329",
"a  c #FE742A",
"s  c #F77C2A",
"d  c #EC6134",
"f  c #E4673A",
"g  c #F66432",
"h  c #F36F30",
"j  c #88584E",
"k  c #82625C",
"l  c #8E7354",
"z  c #917450",
"x  c #A76247",
"c  c #B76F47",
"v  c #AC7044",
"b  c #A96452",
"n  c #856E67",
"m  c #9D7560",
"M  c #C86A45",
"N  c #D66441",
"B  c #6A8D5C",
"V  c #628B6A",
"C  c #BD982F",
"Z  c #BA9732",
"A  c #B8B72F",
"S  c #A9B23A",
"D  c #FB8A1A",
"F  c #FC8C1D",
"G  c #FA961C",
"H  c #FF9C1C",
"J  c #FFBB07",
"K  c #FFB50C",
"L  c #F5A517",
"P  c #FCA415",
"I  c #FCAD15",
"U  c #FCA51B",
"Y  c #F7AD1D",
"T  c #FAAB1A",
"R  c #FCB316",
"E  c #FABC13",
"W  c #FAB319",
"Q  c #CD883A",
"!  c #D88D36",
"~  c #FC8323",
"^  c #FC8D21",
"/  c #FA872B",
"(  c #F68C28",
")  c #FD8D2A",
"_  c #FA9425",
"`  c #FA9C24",
"'  c #F69228",
"]  c #FA952A",
"[  c #DFBC29",
"{  c #C2A234",
"}  c #FAA322",
"|  c #F8AA23",
" . c #FFC206",
".. c #FBCC06",
"X. c #FBC30B",
"o. c #FBC90C",
"O. c #FDD306",
"+. c #FDDB06",
"@. c #FAD40D",
"#. c #F7DA08",
"$. c #FADD0A",
"%. c #F9C812",
"&. c #FED410",
"*. c #FDE403",
"=. c #FCEC04",
"-. c #FAE408",
";. c #F6EA09",
":. c #F7EA09",
">. c #F8E809",
",. c #F6F606",
"<. c #FBF304",
"1. c #F7F906",
"2. c #FBFB03",
"3. c #82994D",
"4. c #84955D",
"5. c #B1864E",
"6. c #BAAD43",
"7. c #83A466",
"8. c #C68941",
"9. c #005683",
"0. c #005B84",
"q. c #005689",
"w. c #005D8B",
"e. c #115780",
"r. c #165E85",
"t. c #005E93",
"y. c #005D9A",
"u. c #006086",
"i. c #00628C",
"p. c #01688F",
"a. c #17638B",
"s. c #006494",
"d. c #006996",
"f. c #0F6B96",
"g. c #00659B",
"h. c #006B9C",
"j. c #096C9E",
"k. c #176C95",
"l. c #00709E",
"z. c #28698B",
"x. c #356F8D",
"c. c #2B7094",
"v. c #397F94",
"b. c #0166A2",
"n. c #006DA3",
"m. c #0065A8",
"M. c #006DAB",
"N. c #0072A4",
"B. c #0E72A2",
"V. c #0074AB",
"C. c #0078AE",
"Z. c #006EB2",
"A. c #0075B2",
"S. c #007AB4",
"D. c #0978B2",
"F. c #0074BC",
"G. c #007CBB",
"H. c #2A7AAB",
"J. c #2174B0",
"K. c #456E80",
"L. c #447697",
"P. c #687782",
"I. c #607190",
"U. c #0076C1",
"Y. c #007DC2",
"T. c #007CCB",
"R. c #007FD1",
"E. c #0077DA",
"W. c #0082BC",
"Q. c #1280BC",
"!. c #458EA4",
"~. c #0082C4",
"^. c #0E80C5",
"/. c #0084CB",
"(. c #0089CD",
"). c #1683C8",
"_. c #0084D3",
"`. c #008BD4",
"'. c #0085DC",
"]. c #008CDB",
"[. c #0090D7",
"{. c #0091DB",
"}. c #0086E1",
"|. c #0089E4",
" X c #008CEC",
".X c #0093E4",
"XX c #0096EA",
"oX c #008FF1",
"OX c #008DF9",
"+X c #0092F4",
"@X c #009AF2",
"#X c #0097FA",
"$X c #0098F9",
/* pixels */
"b.G.G.Y.Y.~.G.G.G.Y.Y.Y.G.G.S.b.q.b.V.V.V.A.V.V.V.M.N.V.N.V.n.M.h.n.~.].].`.].].`././.~.~.G.S.A.M.g.",
"S./.].].].].].`._././.~.Y.G.G.V.s.N.A.V.C.G.G.G.S.S.S.S.S.V.V.V.V.S..X.X.XXXXXXX.X.X.X.X].`./.Y.G.A.",
"Y.]..X.X.X.X|.{.].].].`.`./.`.Y.s.N.C.C.S.S.G.W.W.G.G.G.G.S.S.G.V.S..X@X@X@X@X@X@XXXXXXX.X]._./.~.V.",
"Y.].].].].].].].].`.`._./././.~.d.l.N.N.N.C.C.S.S.S.C.C.S.C.C.C.V.S.XX@X@X@X@X@XXXXX.X.X].`./.~.A.h.",
"G._.`.].`.`._./.~.~.T.Y.Y.Y.Y.G.d.d.N.l.N.N.N.V.N.C.V.C.V.C.V.V.V.A..XXXXXXXXX.X.X.X.X].`./.G.V.n.t.",
"A.~./.~.~.~.~.Y.G.G.G.S.S.S.S.A.d.d.d.d.d.d.d.d.l.N.N.N.N.N.N.N.n.V.]..X.X|.].].].].`./.G.V.n.V.G.S.",
"M.S.G.G.S.G.G.A.S.S.A.V.V.V.V.n.s.i.u.0.u.0.u.i.i.i.s.d.l.l.h.h.h.h.Y./.~.~.G.S.G.G.A.V.b.h.V.G.G.V.",
"y.n.V.A.V.V.V.n.b.n.n.V.M.n.h.g.w.0.0.0.u.0.0.0.0.w.i.s.s.d.s.s.w.w.V.V.V.M.n.V.M.b.n.h.d.h.N.V.N.h.",
"n.n.n.n.N.N.N.g.q.s.n.M.V.M.M.A.A.n.h.g.g.g.g.s.i.s.n.V.A.V.V.V.n.M.n.b.h.b.b.h.g.t.s.d.d.g.g.h.g.n.",
"V.V.V.V.N.N.N.h.s.n.S.G.G.W.~.~.~.~.Y.G.G.A.V.N.V.B.k H.].`.].`.`.(./.~.W.G.G.S.n.h.n.N.N.V.V.V.V.V.",
"V.C.V.V.C.N.l.l.d.C.S.G.~.~./.(._.(._.(.~.~.W.S.V.c.5 )..X{.].].].`.(.(./.~.W.S.V.h.l.V.V.V.C.C.C.V.",
"C.C.N.N.N.N.N.h.s.V.S.G.G.G.~.~.~././.~.~.W.G.S.M.S.Q.].].[.].`.`.(.(.~.~.W.S.S.N.s.h.N.N.N.V.N.V.V.",
"V.N.N.N.l.N.N.l.s.N.V.V.S.G.W.W.~.G.W.G.G.G.C.V.h.G.`.`.(.(.(.(.(.~.(.W.W.S.C.N.h.i.h.h.l.l.N.N.N.l.",
"d.d.d.h.d.d.d.i.i.h.N.N.N.C.C.S.S.S.S.S.S.V.N.h.s.C.~.~./.(.(.~.~.~.W.G.C.V.n.h.i.0.s.h.l.l.l.h.d.d.",
"i.i.i.i.i.i.u.u.u.d.h.l.N.N.N.V.V.V.V.N.N.j.y.g.s.B.G.G.W.~.~.G.G.G.S.C.N.h.d.i.i.9.i.i.s.s.s.s.i.i.",
"w.0.0.0.0.o 0.o 9.u.s.s.s.h.h.d.h.h.s.d.O 3 Q v e.b.1 x.V.N.N.N.z.f.h.d.d.i.u.u.9.X 9.u.0.0.u.0.0.0.",
"w.i.w.w.0.w.w.0.q.X 9.0.i.d.d.w.X X X q.% H @.I x & 6 # s.t.w.t.@ + t.0.0.0.0.0.9.9.0.0.0.q.9.0.0.9.",
"n.V.S.S.G.G.G.A.A.V.n.g.d.N.A.N.w.s.h.n.: _ I ] ) G 0 ; z.g.r.# q.w.n.V.V.V.V.A.V.A.A.V.V.N.N.n.g.q.",
"A.~./././.`.`./././.~.G.b.g.V.V.s.h.A.G.c.0 N h ( %.~ 8 2 A.b k g.s.C.D.G.G.W.W.G.G.G.S.V.V.V.N.h.s.",
"V.G./.~.~./._.`./._._.~.S.h.s.s.e.j.A.G.S.H.D.c a Y ' 8 f K.N , h.d.V.C.S.S.S.D.G.S.S.V.S.V.V.V.N.i.",
"h.S.~.Y.~.~.~././._./.~.G.S.h.w.O n.A.A.S.S.S.1 r s ^ p r G y - n.i.n.N.C.V.C.C.V.V.V.V.V.V.V.V.n.s.",
"s.b.V.G.Y.Y.Y.Y.Y.G.S.V.n.V.M.b.s.n.V.V.V.N.B.V.x r s L r i P q = u.p.d.l.N.N.N.N.N.V.N.N.N.N.N.n.d.",
"w.g.h.M.V.S.A.M.M.n.b.b.g.g.g.g.i.h.n.n.n.j., n.< r p ^ r u T D 6 u.o 0.0.i.s.d.l.h.N.N.N.l.n.l.h.i.",
"9.w.d.d.d.g.g.g.s.s.s.s.y.s.s.w.0.i.d.s.s.s.# f.a.d y F g r 7 6 & u.o o X o o 0.0.i.i.i.s.s.s.i.0.9.",
"q.i.s.g.s.g.s.t.t.s.s.t.w.s.w.w.q.0.w.0.w.9.9.q.+ d t p r 8 * 0.q.0.w.0.q.9.9.9.9.9.q.0.w.w.w.0.w.0.",
"T.R._.T.T.T.U.g.g.V.V.V.V.V.V.n.n.n.M.B.r.g.0.q.j e g r N L.T.T.T.T.Y.F.Z.Z.Z.Z.g.q.Z.T.T.T.T.T.T.R.",
"oX+X+X XoX X|.F.n.G././._.`.].`._.`.T.n q 2 G.k.t ^ t w I.OX}.}.'.'.'._.R.T.T.Y.Z.g.R. X X X XoXoXoX",
"oX+X+X+XoXoX XU.n.~._._._.`.]._.].).5.K X.` P.M D D t w n  X'.'.'.'.'.'._.T.~.T.F.b._.|. X X XoXoXoX",
" XoX X X X X|.T.V.Y./././._.(.`.^.8. .o.X.| ) / / s u e f ^.|.'._.R.R./.T.T.Y.U.A.b.T.}.}.|. X X X X",
" X X|.}.}.'.R.T.M.Y.T.~.T././._.H.) W ..R ] | } ] _ / u g J.J.L._.T.T.Y.G.Y.G.S.n.g.Y.'.'.'.}.}.|. X",
"'.R.E.T.T.T.T.U.M.G.Y.Y.~.Y.~.T.Y.m U X.` R R ` _ R ` ( y 3 9 9 U.T.G.G.S.F.A.V.h.y.U.R.'.'.'.R.'.'.",
"T.U.U.F.F.F.U.F.g.A.G.F.S.D.A.A.F.M.! } Y E _ ` T ....R ) H o.D k S.M.M.V.M.n.g.w.0.Z.U.Y.T.E.T.R.T.",
"F.U.U.F.A.Z.Z.m.t.h.b.n.n.n.b.b.h.b.8.R } ` ` ` o.+.-.E ' ' L J 9 w.g.s.g.d.i.i.9.9.g.M.Z.Z.A.Z.F.Z.",
"y.S.G.G.S.N.M.n.g.s.d.d.g.g.d.s.9.y.{ R ` ` } U @.-.-.R G I L D 3 9.g.n.n.N.n.b.g.d.g.s.y.t.y.t.q.q.",
"N.W.W.W.W.W.W.W.~.W.W.W.W.W.W.C.h.A.4.I | W U Y $.=.=.E T O. .4 d.d.n.V.C.C.V.C.V.N.N.n.h.d.d.d.d.w.",
"S.(.(.(.[.[.[.[.[.[.{.[.(.(.(.W.N.V.L.Y +.-.%.%.,.2.2.@.I #.J z n.d.N.N.N.C.C.S.S.A.C.V.V.V.n.V.V.h.",
"V.(.(.(.[.[.[.[.[.[.[.`.`.(.(.W.N.A.v.%.=.<.<.<.2.2.2.<.@.>.K l h.s.l.l.l.N.V.N.N.V.V.N.V.V.V.V.V.h.",
"V.W.(.~.(.(.`.(.`.(.(.(.(.(.(.W.n.A.V @.<.2.2.2.2.2.2.-.<.;.X.z d.i.i.d.d.l.l.N.N.N.N.N.n.N.N.V.N.d.",
"h.G.~.W.W.(.~.~.~.W.W.G.W.W.W.W.d.M.V *.1.2.2.2.2.2.2.$.-.>.O.v s.u.0.o 0.u.i.d.h.h.h.n.n.h.n.n.d.u.",
"d.S.G.G.G.C.C.C.V.N.N.l.l.l.N.N.i.y.B *.2.2.2.2.2.2.2.<.&.>.*.C w.u.. X o o o 9.i.s.h.d.h.h.h.i.0.0.",
"i.n.n.h.h.h.h.g.d.d.d.s.s.s.s.i.O 9.$ +.<.2.2.2.2.2.2.2.#.:.O.Z X X . . . . . . . . X X X 9.9.0.0.9.",
"t.s.s.i.i.s.w.0.w.t.s.y.t.s.s.i.q.q.q.C =.,.2.2.2.2.2.2.=.:. .%   X X 9.9.X X X o 9.X X o 0.0.0.w.i.",
"V.V.V.V.N.N.l.h.M._.'.].'.'.'.'.R._.oXJ.[ =.<.2.2.2.2.1.:.*.C d.n.V.S.V.S.V.A.S.S.V.n.N.N.N.N.N.N.C.",
"S.C.C.S.V.N.N.l.U.+X#X$X#X#X+X+XoX X XoX).6.+.=.<.<.<.=.O.Z k.N.V.S.G.W.~.~.~.~.~.G.N.N.V.C.S.S.S.S.",
"V.V.N.N.N.l.l.l.Y.oX+X#X#X+X+X+XoX X X|. XE.!.7.S A S 3.> d.l.N.C.S.G.G.G.G.W.W.W.C.l.N.N.V.C.N.N.C.",
"N.N.l.h.h.l.d.h.U. XoXoXoX+XoXoXoX X X|.|.'.}.E.b.w.y.b.h.l.l.C.V.C.S.C.S.S.S.C.V.l.h.l.l.l.N.N.N.N.",
"h.h.h.d.d.d.s.d.F.|. X XoX X X X X|.}.'.'._.R.Y.n.i.i.d.h.l.N.N.N.N.N.h.n.h.l.n.N.d.s.d.h.l.l.h.l.h.",
"s.p.i.i.i.i.i.s.Z.R.}.|.|.|.|.}.}.'.'._.R.T.Y.Z.h.p.i.p.d.d.d.d.l.d.s.s.d.d.d.d.d.s.i.p.d.d.s.p.s.i.",
"u.u.o 0.o o o u.b.F.U.R.R.R.R.E.R._.T.T.U.Z.b.g.g.0.u.u.u.i.i.i.u.i.i.i.i.i.i.s.i.i.0.i.u.w.u.u.u.0.",
"9.o o o o o o X t.b.Z.m.Z.m.M.M.M.M.Z.M.g.y.y.y.w.o o o o o 0.o o 0.u.u.0.i.i.i.i.o X o o o o 0.0.o "
};
