/* XPM */
static char *result[] = {
/* columns rows colors chars-per-pixel */
"50 50 199 2 ",
"   c #004D7F",
".  c #005275",
"X  c #00567D",
"o  c #08527C",
"O  c #00597E",
"+  c #105B7E",
"@  c #335C6B",
"#  c #2D5472",
"$  c #326778",
"%  c #39637C",
"&  c #5B595D",
"*  c #6A5957",
"=  c #6A5A5B",
"-  c #725755",
";  c #735E5E",
":  c #576956",
">  c #45596A",
",  c #58636E",
"<  c #4E766C",
"1  c #44667B",
"2  c #586A7A",
"3  c #656261",
"4  c #686469",
"5  c #7A6362",
"6  c #756C73",
"7  c #76727C",
"8  c #BC633F",
"9  c #B87D34",
"0  c #CD5910",
"q  c #FF5D1E",
"w  c #FF681C",
"e  c #FA741E",
"r  c #D65225",
"t  c #CD593E",
"y  c #D05E3A",
"u  c #FB5C2A",
"i  c #E95B31",
"p  c #D96934",
"a  c #E36A26",
"s  c #F66A24",
"d  c #FF642D",
"f  c #EC7928",
"g  c #FD7224",
"h  c #F97526",
"j  c #F47A25",
"k  c #F67D2B",
"l  c #E47634",
"z  c #F97931",
"x  c #94594A",
"c  c #A35542",
"v  c #B35D41",
"b  c #8A604F",
"n  c #8A6158",
"m  c #9E6557",
"M  c #BB6747",
"N  c #AB6554",
"B  c #AF7753",
"V  c #866968",
"C  c #C36542",
"Z  c #63845F",
"A  c #B4AB28",
"S  c #BDA733",
"D  c #E68E1F",
"F  c #FA881D",
"G  c #E6951A",
"H  c #FF9711",
"J  c #FE9119",
"K  c #FA9D1B",
"L  c #EEAD0B",
"P  c #F4B10D",
"I  c #FFB30B",
"U  c #FFBD0E",
"Y  c #E7A91F",
"T  c #FBAB17",
"R  c #FCA21D",
"E  c #FBA81A",
"W  c #EFB913",
"Q  c #FCB515",
"!  c #F6BC13",
"~  c #FBBD12",
"^  c #F8B31A",
"/  c #D3992C",
"(  c #C19E33",
")  c #E78323",
"_  c #FB8524",
"`  c #F68925",
"'  c #FC8A2C",
"]  c #E89F25",
"[  c #F49526",
"{  c #FA9424",
"}  c #FE9C21",
"|  c #FA932C",
" . c #FD992B",
".. c #FB8531",
"X. c #CFAB27",
"o. c #C3A32E",
"O. c #FCA323",
"+. c #F6AB27",
"@. c #FFCC05",
"#. c #FCC20D",
"$. c #F9C80C",
"%. c #FED406",
"&. c #FDD904",
"*. c #F8D30D",
"=. c #FADC0C",
"-. c #E6CD14",
";. c #F8C117",
":. c #FACC12",
">. c #FCE504",
",. c #FDEC03",
"<. c #F7E30A",
"1. c #FAE40A",
"2. c #FBE809",
"3. c #F7F406",
"4. c #FCF504",
"5. c #F7F805",
"6. c #FBFB04",
"7. c #F7F208",
"8. c #959649",
"9. c #9E9B58",
"0. c #9C8568",
"q. c #D39241",
"w. c #005682",
"e. c #005B84",
"r. c #005689",
"t. c #005D8B",
"y. c #0F598A",
"u. c #005E93",
"i. c #005F99",
"p. c #006085",
"a. c #00628C",
"s. c #0F698A",
"d. c #1B6386",
"f. c #176989",
"g. c #006493",
"h. c #006995",
"j. c #096A97",
"k. c #00659B",
"l. c #006B9C",
"z. c #0D6F9C",
"x. c #176696",
"c. c #00709E",
"v. c #10719F",
"b. c #26688E",
"n. c #3B6785",
"m. c #2B6B90",
"M. c #306E91",
"N. c #23759F",
"B. c #39769A",
"V. c #0065A3",
"C. c #006DA3",
"Z. c #0067A8",
"A. c #006DAA",
"S. c #106FA3",
"D. c #0072A4",
"F. c #0074AB",
"G. c #0E77AC",
"H. c #0078AE",
"J. c #1B75A9",
"K. c #006EB2",
"L. c #0075B3",
"P. c #007AB4",
"I. c #0074BC",
"U. c #007CBB",
"Y. c #1C7CB9",
"T. c #2D7EB0",
"R. c #4B728E",
"E. c #4173A6",
"W. c #0076C1",
"Q. c #007DC2",
"!. c #007CCB",
"~. c #007ED2",
"^. c #0082BD",
"/. c #1883BF",
"(. c #2182B7",
"). c #3784B2",
"_. c #638C8B",
"`. c #0082C4",
"'. c #0D85C7",
"]. c #0084CB",
"[. c #0089CD",
"{. c #0084D3",
"}. c #008BD4",
"|. c #0084DC",
" X c #008CDB",
".X c #1180D1",
"XX c #0090D7",
"oX c #0090DB",
"OX c #0086E3",
"+X c #0089E4",
"@X c #0087EC",
"#X c #008CEC",
"$X c #0092E4",
"%X c #0096EA",
"&X c #008EF1",
"*X c #0092F4",
"=X c #009AF3",
"-X c #0097FA",
";X c #0098F9",
/* pixels */
"V.P.U.Q.Q.`.U.U.U.U.Q.Q.U.P.P.V.r.Z.F.F.L.L.F.F.F.A.D.F.D.D.C.A.C.C.]. X X}. X}.}.}.[.`.`.U.P.L.A.k.",
"P.{. X X XoX X}.}.[.].`.Q.Q.U.F.g.D.L.F.H.P.U.U.U.L.L.P.U.H.F.H.F.L.XX$X$X%X%X%X$X$X$X+X X}.].Q.P.L.",
"Q. X$X$X$X$X+XoX+X X X X{.].[.U.h.D.H.H.H.P.U.^.^.^.U.U.P.U.L.P.F.P.%X=X=X=X=X=X=X%X%X$X$X X{.[.`.L.",
"Q. XoX X X X X X}.}.}.{.}.[.].Q.h.c.D.D.H.H.H.L.H.H.H.H.P.P.H.H.F.P.%X=X=X=X=X=X%X%X$X$X X{.[.`.L.l.",
"P.{.}.}.}.}.[.[.].!.Q.Q.Q.Q.Q.U.g.h.D.c.D.D.F.D.D.H.H.H.H.H.H.D.D.P.$X%X%X%X*X%X%X$X$X X}.[.P.L.C.u.",
"L.].{.].].Q.Q.Q.U.U.P.P.P.P.P.F.h.h.h.h.h.h.h.h.c.D.z.j.D.D.D.D.C.L.}.$X X$X X}. X X{.[.U.F.D.F.U.P.",
"Z.P.U.P.P.P.P.P.P.P.L.L.L.F.F.C.g.a.p.p.p.e.p.a.a.k.* - D.l.l.l.h.l.Q.].].Q.P.P.P.P.P.L.V.l.F.U.U.H.",
"g.C.F.L.L.F.F.A.l.C.C.D.D.Z.l.k.t.e.e.e.e.p.e.e.e.t.= = Z.a.h.h.a.t.A.F.F.F.A.F.F.V.C.l.g.h.D.F.D.h.",
"Z.C.C.C.D.D.D.k.r.k.Z.A.F.A.A.L.F.Z.k.j.k.k.j.g.g.u.% b.m.L.F.F.A.A.C.l.V.V.l.l.k.u.k.g.g.k.l.h.k.C.",
"L.F.F.D.D.D.l.l.g.D.H.U.U.^.`.`.[.`.Q.U.U.N.n D.D.D.y 6 (.+X'.}.}.[.[.`.U.U.U.H.D.h.C.D.D.F.F.F.F.F.",
"H.H.H.H.D.H.D.c.h.H.U.^.`.`.[.[.[.[.[.].{.R.v 4 L.R.q 7 ;X7 m  XXX}.[.[.[.`.^.U.F.h.D.F.F.F.H.H.L.F.",
"F.H.D.D.D.D.D.c.h.D.L.P.U.U.`.`.].`.].].`.Y.2 M.D.m u T.XX6 /. X}.[.`.[.`.U.P.H.D.g.h.D.D.F.H.D.F.F.",
"D.D.c.D.c.D.D.h.h.D.F.F.L.U.^.U.U.Q.`.U.U.P.P.L.A.5 N }.'.}.}.[.[.[.`.^.^.U.H.D.h.a.l.c.c.D.D.D.D.c.",
"h.h.l.l.l.h.h.a.a.l.D.D.D.H.H.P.P.P.2 G.P.F.A.l.V.m.R.[.[.[.].`.`.^.^.U.H.F.l.l.g.t.g.h.h.l.c.l.h.h.",
"a.a.a.a.a.p.a.p.e.h.l.c.D.D.F.F.H.D.; z.D.l.h.k.g.F.N.P.^.`.^.^.U.P.L.H.D.l.g.a.a.w.a.a.h.g.g.g.a.a.",
"t.e.e.e.O p.O e.e.e.g.h.h.h.l.h.l.l.k.g.g.g.g.a.r.d.; F.D.D.D.D.D.c.l.h.h.a.a.a.w.. e.p.e.e.p.e.e.p.",
"e.a.t.e.e.p.t.r.r.X X w.a.h.g.t.X X X X e.w.e.X r.> & k.t.t.t.a.t.t.t.e.w.e.e.e.w.w.r.t.e.w.w.t.w.e.",
"C.L.P.L.U.U.U.L.L.F.D.V.k.D.L.D.t.g.l.l.l.V.l.C.C.C.d.j.C.k.u.y.o u.C.D.H.L.F.H.F.F.F.F.D.D.F.C.k.r.",
"L.`.].].[.{.{.[.].[.].P.C.h.F.F.g.C.P.P.P.I.P.I.G.S., i R.C.C.$ & k.H.P.U.^.^.^.^.^.U.L.H.F.F.D.l.g.",
"F.Q.[.`.`.[.{.[.].{.].].P.l.g.g.t.C.L.L.N V P.P.V u f _ t D.l.g.f.h.D.H.P.P.L.P.L.P.P.L.H.L.F.F.D.g.",
"l.P.Q.Q.`.`.].[.].].].Q.U.P.l.e.r.D.P.4 g g R.F.C d J J t l.C.l.h.g.l.D.F.F.H.F.H.H.F.F.F.F.F.F.C.g.",
"a.C.F.U.U.`.Q.Q.Q.U.P.L.Z.F.F.V.a.D.m.f +._ 5 n.x d C , 1 g.d.% h.e.g.l.D.D.D.D.D.D.D.D.F.D.D.D.C.g.",
"t.h.V.D.L.P.L.A.C.Z.V.k.k.k.k.k.t.C., g  .' M c r d 8 g.k.k.> x g.a.e.O p.a.g.h.l.l.D.D.D.c.C.l.l.a.",
"w.g.g.g.g.k.k.k.g.g.g.k.u.g.g.u.y.g.d.b p ..z a s z J 3 g.g.3 s @ p.O O X O X e.p.a.a.a.g.g.g.a.e.e.",
"r.g.g.k.g.k.g.t.u.g.g.u.t.g.t.r.w.e.t.u.- g g O.' [ U 9 # u.& e = u.y.r.w.w.w.e.X X r.w.t.t.t.t.t.r.",
"!.~.{.!.!.!.W.V.k.F.F.F.L.F.F.F.D.C.C.V.x.; - k ' O.T E s v i i J.!.W.I.K.K.L.A.k.r.L.!.!.!.!.!.!.!.",
"&X*X#X*X&X#X+XI.C.U.].].{.}.}.{.{.{.{.].Q.W.D.l ' [ ` ` s g J g E.+X|.{.{.!.!.!.K.V.~.#X#X#X#X&X*X*X",
"&X*X*X*X*X#X@XW.A.Q.].[.[.{.}. X X X}.+X}.}.'.l  .| ' _ g e ;.I 7 @X{.|.{.!.!.Q.P.V.|.+X+X#X#X#X*X#X",
"@X&X&X@X#X#X+X!.A.Q.].].].{.[.{.{. X X X}.+XY.[ #.U K j F e F #.B ~.{.].!.!.Q.I.K.k.~.OX|.+X@X#X#X#X",
"#X#X+XOXOX|.{.!.F.Q.].!.!.].].].{.}.'.{.OX~.0.R W $.L 0 K e e H C !.!.Q.Q.Q.U.P.A.k.W.|.|.OXOXOX#X+X",
"|.~.~.!.!.!.!.W.A.U.Q.!.Q.].!.Q.!.B.M B.0.q.} O.Q %.P f ` e j w 6 !.W.P.P.P.L.F.l.u.Q.~.{.|.~.|.|.|.",
"!.W.W.I.I.W.W.K.k.L.P.P.L.L.L.L.I.6 w ` T Q ;.:.*.$.T K { ` R f x.P.L.F.A.A.C.k.t.r.L.W.!.~.~.!.!.!.",
"I.W.W.I.P.K.K.A.t.l.C.Z.C.Z.V.l.C.n.h ~ $.*.1.,.,.=.E } T T $.G y.g.k.k.g.g.g.a.w.w.k.A.K.I.K.I.I.K.",
"k.L.U.P.L.F.A.V.k.g.g.h.h.l.h.g.e.u./ @.! 1.4.6.4.2.^ R ! &.#.D + w.h.V.C.D.C.l.k.k.g.g.u.u.u.r.r.r.",
"D.^.^.^.^.^.^.^.`.^.^.^.^.^.^.H.C.S.] U ^ 1.4.6.6.1.^ Q =.2.U ) s.h.D.F.H.H.H.H.F.D.D.D.h.k.h.l.g.t.",
"L.[.[.}.XXXXXXXXXXoXXXXX[.[.[.^.D.v.Y Q ^ =.5.6.6.3.:.=.,.2.#.) s.l.D.D.F.F.H.H.L.L.H.H.F.F.D.F.F.l.",
"H.[.[.[.XXXXXXXX XXXXX}.[.[.XX^.D.F.S U E =.6.6.6.6.6.6.6.4.&.W b.h.c.c.c.D.D.H.F.D.F.F.F.F.F.F.F.l.",
"F.^.`.[.[.[.[.[.[.[.[.[.[.[.[.^.C.L.8.Q ;.1.6.6.6.6.6.6.6.6.4.%.$ g.p.h.h.c.D.c.D.D.D.C.C.D.F.F.D.h.",
"l.^.^.^.`.[.`.`.[.^.^.U.^.^.^.^.h.A.8.@.<.2.6.6.6.6.6.5.4.6.4.-.f.a.O O p.p.h.h.l.l.D.C.D.C.C.l.g.p.",
"g.L.^.U.P.P.H.H.D.D.D.c.l.c.D.D.t.k.Z @.<.6.6.6.6.6.6.6.6.6.4.-.+ p.O O O . O O p.h.h.h.h.h.h.g.e.e.",
"t.l.D.l.k.l.h.h.g.h.g.g.g.g.h.a.o w.@ Q 1.4.6.6.6.6.6.6.6.5.4.A . X . . . . . . . X X X X X e.e.e.e.",
"u.g.g.g.g.a.g.e.r.g.g.g.u.g.g.a.r.w.r.( >.7.6.6.6.6.6.6.6.3.%.:   X X e.X X e.O w.X X O e.e.w.w.t.a.",
"F.F.H.D.D.D.D.l.A.{.|.+X|.|.|.|.~.{.OX).U 4.3.5.6.6.6.5.3.,.o.S.C.F.F.L.L.H.H.L.L.F.l.D.c.D.F.D.D.H.",
"U.L.H.L.F.D.D.l.Q.*X-X;X-X-X*X*X&X#X+X&X).Y &.,.,.4.,.,.&.o.f.D.D.U.^.^.`.`.`.`.`.U.D.D.H.H.P.L.P.P.",
"F.H.D.D.D.c.c.c.Q.*X*X*X-X*X*X*X&X#X#X#X@X~._.9.( X.o.8.< h.l.D.H.P.U.U.^.U.^.^.^.H.c.D.D.D.H.H.D.H.",
"D.c.c.c.l.c.h.l.I.#X*X*X&X*X&X&X&X#X@X+X+X@X~.~.V.r.g.k.c.c.D.D.F.H.P.L.H.L.L.L.H.c.l.c.c.D.D.c.D.D.",
"l.c.h.h.h.h.h.g.I.+X#X#X#X@X@X#X+X+XOXOX|.~.{.W.D.a.a.j.h.c.D.D.D.D.D.c.l.C.D.l.l.l.h.h.c.h.l.c.l.l.",
"g.g.a.a.a.a.a.g.K.{.OX+X+X+X+X+XOX|.|..X~.~.W.L.h.a.g.a.h.h.h.h.h.h.h.g.h.h.h.h.h.h.p.h.h.h.g.g.h.a.",
"p.p.O e.O O O p.Z.I.W.!.~.~.~.~.~.~.!.!.W.K.V.k.g.t.e.p.p.a.a.a.a.p.a.a.a.a.a.h.a.a.e.t.p.a.p.e.p.p.",
"O O O O O X O X t.Z.A.K.K.Z.K.Z.A.K.K.Z.k.i.u.i.u.e.O O O O e.O e.e.p.p.e.a.p.a.a.e.X O O O e.O e.O "
};
