/* XPM */
static char *result[] = {
/* columns rows colors chars-per-pixel */
"50 50 218 2 ",
"   c #161716",
".  c #2D170D",
"X  c #2C1C18",
"o  c #371D14",
"O  c #2F221A",
"+  c #3C2117",
"@  c #3B231B",
"#  c #221F20",
"$  c #092B3B",
"%  c #122D37",
"&  c #252A2E",
"*  c #3A2925",
"=  c #36332B",
"-  c #252D33",
";  c #3C3538",
":  c #4B220E",
">  c #442314",
",  c #45241B",
"<  c #4B261A",
"1  c #4C2818",
"2  c #532916",
"3  c #552916",
"4  c #532C1C",
"5  c #5A2F1D",
"6  c #5E311C",
"7  c #78340F",
"8  c #642E16",
"9  c #64321C",
"0  c #6A3418",
"q  c #6C361C",
"w  c #763513",
"e  c #71371A",
"r  c #743A1C",
"t  c #7C3D1C",
"y  c #432923",
"u  c #4B2B24",
"i  c #4C2D29",
"p  c #512D24",
"a  c #512F29",
"s  c #463029",
"d  c #533025",
"f  c #5C3323",
"g  c #55322C",
"h  c #5A342C",
"j  c #5F3D2C",
"k  c #5A3630",
"l  c #663621",
"z  c #653926",
"x  c #6D3923",
"c  c #623729",
"v  c #6B3B2A",
"b  c #733C23",
"n  c #7B3E23",
"m  c #753F2A",
"M  c #6C3D31",
"N  c #4F473B",
"B  c #54453A",
"V  c #7D4024",
"C  c #734129",
"Z  c #7B462C",
"A  c #7C4834",
"S  c #69513D",
"D  c #05354A",
"F  c #153443",
"G  c #143A4E",
"H  c #003B56",
"J  c #013E5B",
"K  c #163E53",
"L  c #0E4159",
"P  c #174358",
"I  c #2E474B",
"U  c #3E4746",
"Y  c #2E4E55",
"T  c #044768",
"R  c #154863",
"E  c #18526D",
"W  c #024D75",
"Q  c #005275",
"!  c #00547C",
"~  c #0D507B",
"^  c #00597E",
"/  c #335363",
"(  c #3A646E",
")  c #494941",
"_  c #49564F",
"`  c #595643",
"'  c #655C47",
"]  c #5B654F",
"[  c #556257",
"{  c #6A6147",
"}  c #7A6846",
"|  c #636C5D",
" . c #766E51",
".. c #7C7455",
"X. c #455A67",
"o. c #527775",
"O. c #6D786E",
"+. c #853A11",
"@. c #813F1C",
"#. c #913F14",
"$. c #85411D",
"%. c #8B441E",
"&. c #924015",
"*. c #93471D",
"=. c #96481E",
"-. c #994A1E",
";. c #844222",
":. c #894421",
">. c #86482C",
",. c #974B23",
"<. c #97502D",
"1. c #874B34",
"2. c #8C5233",
"3. c #985534",
"4. c #A45227",
"5. c #B55B2E",
"6. c #A65932",
"7. c #B75F32",
"8. c #B96438",
"9. c #C66839",
"0. c #D76D39",
"q. c #DC723D",
"w. c #EB783D",
"e. c #F27C3F",
"r. c #876A4E",
"t. c #897348",
"y. c #93704A",
"u. c #807859",
"i. c #B76441",
"p. c #A6774B",
"a. c #C96B41",
"s. c #CC7F4A",
"d. c #DA7342",
"f. c #E47945",
"g. c #EC7B44",
"h. c #F37E44",
"j. c #FA7F43",
"k. c #8D815D",
"l. c #9A8D5C",
"z. c #AE8F5C",
"x. c #918563",
"c. c #998C68",
"v. c #B88C60",
"b. c #A79769",
"n. c #B8A46D",
"m. c #B6A474",
"M. c #F78145",
"N. c #FC8345",
"B. c #FE8648",
"V. c #FF8949",
"C. c #C6AB6B",
"Z. c #D2B672",
"A. c #DDC27B",
"S. c #E8C475",
"D. c #F1CF7A",
"F. c #F5D47F",
"G. c #005582",
"H. c #005C84",
"J. c #00578A",
"K. c #005C8A",
"L. c #135C83",
"P. c #005E92",
"I. c #006086",
"U. c #00628C",
"Y. c #146C8F",
"T. c #006593",
"R. c #006996",
"E. c #00659C",
"W. c #006C9B",
"Q. c #00719F",
"!. c #0066A4",
"~. c #006DA3",
"^. c #0568A9",
"/. c #006CAB",
"(. c #0072A4",
"). c #0074AB",
"_. c #0078AE",
"`. c #006CB2",
"'. c #006DBA",
"]. c #0075B2",
"[. c #007AB3",
"{. c #0074BC",
"}. c #007DBB",
"|. c #456F80",
" X c #0175C3",
".X c #007DC2",
"XX c #007CCC",
"oX c #017FD2",
"OX c #007AD8",
"+X c #0081BD",
"@X c #0082C3",
"#X c #0085CB",
"$X c #0089CD",
"%X c #0083D3",
"&X c #008BD4",
"*X c #0084DC",
"=X c #008CDB",
"-X c #0091DD",
";X c #0087E1",
":X c #0089E4",
">X c #0087E8",
",X c #008CEC",
"<X c #0092E4",
"1X c #0096EA",
"2X c #008FF0",
"3X c #0092F4",
"4X c #009AF2",
"5X c #0097FA",
"6X c #D1BD8B",
"7X c #D9C082",
"8X c #FEDC83",
"9X c #E4CD95",
"0X c #ECD395",
"qX c #FFE184",
"wX c #FFE38D",
"eX c #FFE69B",
"rX c #EFDFB0",
"tX c #FEF5D1",
/* pixels */
"!.[.}..X.X@X}.}.}.}..X.X}.{.{.!.J.!.).).).].).).]./.).).(.~.~.).~.~.#X&X=X&X=X=X&X$X#X#X.X}.[.]./.E.",
"].&X=X=X=X=X=X&X&X%X#X.X@X}.}.).T.~._.)._.+X}.[.[.[.[.[.[.[.).).(.[.=X1X1X1X1X1X<X<X<X:X-X&X$X.X}.].",
".X=X<X<X<X<X:X-X=X=X=X&X&X$X&X}.R.(._._._.[.[.+X}.}.[.[.[.[.[.[._.[.1X4X4X4X4X4X4X1X1X1X:X=X&X#X.X).",
".X=X=X=X=X=X=X=X=X&X&X&X$X#X#X.XR.Q.(.(.)._.[.[.[.[.[.[.[.[._.[.).[.<X4X4X4X4X1X1X1X<X-X=X&X#X@X].W.",
"{.&X&X&X&X&X&X#X#X@X.X}..X.X@X}.T.W.Q.Q.(.).).(.).).).).)._.).).).].<X1X1X1X1X1X1X<X:X-X&X$X}.].!.T.",
"].#X#X#X@X@X.X.X}.}.}.{.[.].[.).T.R.R.R.R.R.T.W.W.(.(.(.).(.(.(.~.).=X<X-X:X=X&X=X=X&X#X}.).~.).}.[.",
"~.{.}.}.{.}.}.].[.[.].).].).).~.T.U.I.I.I.I.I.I.U.T.T.W.Q.W.W.W.W.W..X$X#X.X}.[.{.}.].).!.W.).}.+X).",
"T.~.).).).).).~.!.~.~.).(.!.!.E.K.H.H.H.^ H.H.H.I.H.U.T.R.T.T.R.U.K./.)./.)./.).(.~.~.W.T.W.(.(.~.W.",
"!.~.~.~.Q.(.(.E.J.T.~././.~./.).].^.W.E.E.E.E.T.P.T.~.].].]./.).).~./.^.W.!.~.W.E.P.T.R.T.E.W.R.E.~.",
"_.).).(.).(.Q.W.T.~.[..X@X+X@X#X#X@X}.}.[.].(.(.(.).}.$X&X&X&X&X&X$X@X@X}.}.[.[.(.E.~.(.(.).).).).).",
"_.).).).).(.(.W.W._.}.U.E..X$X&X&X&X-X&X&X#X+X}.).[.$X-X<X-X=X-X-X$X$X$X#X@X+X[.).R.(.).).)._._._._.",
"_.).).(.).(.(.Q.T.).}.U * _ X.X.P / / / P L T ! T.}.&X-X&X&X=X&X&X$X#X@X@X+X[.[.(.T.R.(.(.).(.).(.).",
").(.Q.(.Q.(.(.R.T.(.Q 3.9.n &.&.w 3 7 +.7 7 2 y ) - W #X&X&X$X$X#X#X#X+X+X[._.(.R.K.R.(.Q.(.(.(.(.(.",
"R.R.W.W.W.R.R.U.U.T Z w.M.<.t =.,.@.9 @.,.,.$.> 2 +.u - R ).#X$X@X@X+X+X_.).~.R.R.H.R.R.W.W.Q.W.R.R.",
"U.U.U.U.U.I.I.I.L >.j.N.B.q.b $.*.*.t 2 r w t e 4 ;.r 2 0 = H.[.+X[.[._.).W.R.T.U.G.U.U.T.T.T.T.I.U.",
"I.H.H.H.^ I.I.J Z N.N.N.M.B.9.C *.*.:.8 2 %.*.%.4 a x b r r * H R.(.R.T.T.U.U.H.G.! H.H.I.H.I.H.K.H.",
"K.K.K.H.J.K.T c h.B.h.N.N.N.N.<.l n n @.e r %.@.2 1 *.b o b e o F H.K.H.H.G.J.H.! G.J.H.K.H.G.H.H.G.",
"~.].[.[.[.}.Y 0.N.g.M.N.N.M.B.0.v z %.,.@.3 e %.@.0 x q q @.%.l 2 F W.).).).)._.[.).).).(.(.^.(.T.J.",
").@X#X#X&XK.3.N.g.a.g.N.M.N.N.N.1.e *.*.@., r -.%.5 3 -.$.3 *.5 6 d Q +X}.+X+X+X}.@X}.[.).).).(.W.T.",
").@X#X#X@X/ 0.V.q.a.d.N.M.N.M.B.6.x :.n b @.0 r n e e -.%.3 t p 1 9 & I.[.[.[.W.Y.W.[.[.[.).).).~.T.",
"W.[.}.#XP.A V.h.0.i.i.B.N.M.M.N.e.Z g n :.-.4 5 %.*.;.:.r u 1 4 q $.8 % R.+XQ ] l.I I.(._._.).).(.T.",
"P.~.).@XL.4.V.N.f.1.3.g.N.N.M.N.N.Z l *.-.@.5 9 %.,.q < 1 1 9 =.w $.q O L I._ C.Z.Z.| I.).(.(.(.~.T.",
"K.E.^.^.X.g.M.8.3.>.M a.B.N.M.N.N.m @.,.;.x t 5 t r + > %.t 2 *.: 2 6 . - % z.l.Z.eX9XU H.(.Q.Q.R.T.",
"G.I.R.G.B B.7.} b.C.r.i.h.N.N.N.N.;.l b b :.*.6 1 q > q -.w . 0 + 0 t 6 2    .u.D.F.qXz.E U.T.U.H.H.",
"K.K.E.G.l B.C ..6XtXrXr.0.V.M.N.N.>.a v :.*.%., + *.0 0 $.> + $.6 t $.f q   ` S S.qXF.F.) W U.L.K.K.",
"XXoX*X^.C N.y.{ x.tXtX] 5.V.M.N.N.>.p ;.*.t x 9 > ,.9 < b 9 4 -.4 q 6 4 ;.+ = ..n.F.wXD.) '.#XXXXXXX",
"2X,X5XXX<.N.z.B S rXwXS 8.B.M.N.N.V i n n x :.@.+ V e i ;.$.4 b @ 9 $.l x o { c.b.8X7XO.~ *X2X,X2X2X",
"3X3X5XoX<.N.v...N 0XF.} 9.B.M.N.N.m i h b %.*.$.< c ;.C :.e o e l r q , q 1 N x.b.b.} R OX3X,X2X2X2X",
",X2X3X XZ N.v.l.' 9X8Xt.9.B.N.N.N.A i z *.*.*.n l n %.*.m , + -.b z 1 < ;.9 O u.b. .l.b.|.^.2X,X,X,X",
">X>X2X Xz N.p.b.x.0X8Xp.q.N.N.N.w.m i c ;.n b n :.*.*.*.n d 5 =.x V b 4 6 i @ ..x...C.wX7X|.,X:X:X>X",
"*XOX%X`.B N.2.x.m.7Xn.s.j.N.N.N.<.i k k f b ;.*.*.*.*.*.%.c h b h c j a u u S k.n.Z.9XqXS.( *XOX*X;X",
"XX X.X'.X.e.8. .u.u.{ 9.B.N.N.N.1.i h c m %.*.*.*.*.*.%.z g g h g g g a d y u.m.A.8X8XqXC.L.OXXXXXXX",
"'.{.{..X~ 4.V.<.l * 2.M.N.M.N.0.v g h m %.*.,.#.,.:.:.c g a a h g h c g y = [ { b.8XF.D.[ !.].].{.`.",
"E.].}.@XK.S M.B.q.<.9.B.M.N.B.6.i h g h x ;.;.%.$.n c g g h h g c h 9 u X D G.J _ Z.S. .W U.P.P.J.J.",
"(.+X+X+X@XE 9.B.M.d.M.M.M.B.q.v h h g g g h c v c h h h g g c f a p u @ $ ~._.[.U.X.o.^ R.R.E.R.T.U.",
"_.$X&X$X&X#Xs q.V.M.M.B.N.M.<.i h h h g h g g g h g h h a a f p u u y % T._._._.[.(.(._.).(.(.).).E.",
"_.$X$X$X&X-X).) 0.N.B.j.N.9.j g h g a a g h g y i i i i a h k a y # G I.).(.).(.).).).).).).).).).W.",
"(.+X$X@X$X$X-X(.U 9.g.N.q.C g k g u i u g k g a g a i g p u s & $ W U.R.R.Q.Q.(.Q.(.(.~.~./.(.).(.W.",
"W.+X+X@X@X+X+X$X].R ' 5.8 , 4 < > , p < p < , < < > @ ; - $ L U.U.I.H.H.H.I.U.R.W.Q.(.~.~.~.~.(.R.H.",
"E.[.+X[.+X+X_.)./.).P.J K P P P G K K K K G G G G D H W K.J.I.U.U.I.Q Q Q ^ ^ H.I.T.R.R.R.W.R.U.H.H.",
"K.W.(.W.W.E.W.T.T.W.R.W.~.W.~.W.J.J.I.H.I.U.K.U.I.K.I.H.^ Q ! Q ! ! Q Q Q W Q Q Q Q Q G.^ G.H.^ H.H.",
"P.T.T.T.U.T.U.H.K.T.T.P.K.T.T.K.J.G.H.J.J.J.G.G.W W ! ! ! ! Q Q ! ! ! ^ ! H.! ! G.G.! Q G.H.H.I.K.U.",
"].).).(.).~.(.W./.OX=X;X*X;X*X*XOX%X*X*X*X*X*XXX!.E.[.}.).).(.Q.!.).].].[.).).[.[.).~.Q.Q.(.(.).(.(.",
"[.[.[._.).(.(.W. X1X5X5X5X3X3X3X1X,X,X,X;X*X*XXX].[.+X[.).(.Q.Q.).[.+X+X@X@X#X@X@X[.).).)._.[.[.+X[.",
").(.(.).(.Q.Q.Q..X3X3X5X5X3X3X3X3X,X,X,X;X*X*XXX/.W.~.W.R.R.Q.(._.[.+X[.}.+X+X+X+X).Q.(.(.(.).).(.).",
"(.(.Q.Q.W.Q.R.W.{.>X3X3X2X3X2X2X2X,X>X:X;X*X*XXX!.K.U.R.R.Q.Q._.)._.[.[.[._.]._._.(.R.Q.(.Q.(.(.(.(.",
"W.W.R.R.R.R.T.W.{.:X,X,X,X,X,X>X>X:X;X*X*X%X%X.X~.R.R.R.R.Q.(.(.(.(.(.Q.W.~.(.W.Q.W.R.R.W.Q.Q.W.W.W.",
"T.R.U.I.U.U.U.U.).OX;X>X:X:X:X:X;X*X*X%XoXXX.X`.W.U.U.U.R.R.R.R.W.R.T.T.R.R.R.R.R.T.U.U.R.R.R.U.R.U.",
"H.I.^ H.^ ^ I.H.!.{. X XoXOXOXoXoXoXXXXX{./.!.!.T.K.H.I.I.I.U.U.I.U.U.U.U.T.T.U.T.I.H.I.I.I.H.I.H.I.",
"H.^ ^ ^ ^ Q ^ ! P.~.`.`./././././.`.`./.E.E.P.P.P.H.^ ^ ^ H.H.^ ^ H.I.I.H.I.U.U.I.H.G.^ ^ H.H.H.H.^ "
};
