/* XPM */
static char *result[] = {
/* columns rows colors chars-per-pixel */
"50 50 239 2 ",
"   c #2C1B1C",
".  c #351D19",
"X  c #39221D",
"o  c #301F21",
"O  c #352224",
"+  c #3A2525",
"@  c #3B2929",
"#  c #353131",
"$  c #393838",
"%  c #4C250F",
"&  c #55270E",
"*  c #4B2513",
"=  c #49291A",
"-  c #522613",
";  c #552A12",
":  c #5A2C13",
">  c #532C19",
",  c #48311F",
"<  c #5B321A",
"1  c #642D0F",
"2  c #6B2E0E",
"3  c #6C2E0D",
"4  c #73330D",
"5  c #7C350C",
"6  c #66361D",
"7  c #773A17",
"8  c #472B24",
"9  c #493429",
"0  c #583726",
"q  c #523A24",
"w  c #493B37",
"e  c #563E33",
"r  c #673C25",
"t  c #753E21",
"y  c #7C431D",
"u  c #58432B",
"i  c #48443C",
"p  c #5A4939",
"a  c #67472B",
"s  c #7B4626",
"d  c #684635",
"f  c #6F4E32",
"g  c #6C5532",
"h  c #6E543E",
"j  c #775535",
"k  c #725B33",
"l  c #796339",
"z  c #183A4D",
"x  c #333D44",
"c  c #1B4A5D",
"v  c #3B4346",
"b  c #294859",
"n  c #364A54",
"m  c #304D56",
"M  c #154C6A",
"N  c #12506C",
"B  c #034E73",
"V  c #01557C",
"C  c #0B5579",
"Z  c #00597E",
"A  c #175879",
"S  c #274D62",
"D  c #285266",
"F  c #385569",
"G  c #255775",
"H  c #2E627A",
"J  c #3B6372",
"K  c #4B4C4A",
"L  c #4B5556",
"P  c #575657",
"I  c #6F5541",
"U  c #735A48",
"Y  c #736957",
"T  c #4A5D6B",
"R  c #4E6773",
"E  c #746D6A",
"W  c #6C7073",
"Q  c #8C3907",
"!  c #84390C",
"~  c #8C3C0C",
"^  c #923E0B",
"/  c #813C14",
"(  c #8F4D0F",
")  c #96410D",
"_  c #9B420B",
"`  c #8A4419",
"'  c #964616",
"]  c #A4460B",
"[  c #A74A0A",
"{  c #AC4A0C",
"}  c #B44D0C",
"|  c #B94D0B",
" . c #BB510D",
".. c #A74E13",
"X. c #B77215",
"o. c #8A4B25",
"O. c #90522A",
"+. c #85583B",
"@. c #84673C",
"#. c #96613F",
"$. c #86703F",
"%. c #AA6C3B",
"&. c #C3540E",
"*. c #C35611",
"=. c #885C42",
"-. c #8B6548",
";. c #996948",
":. c #917253",
">. c #A56B45",
",. c #A5734D",
"<. c #A87755",
"1. c #B27952",
"2. c #957B6A",
"3. c #837771",
"4. c #A47F67",
"5. c #C57642",
"6. c #D79420",
"7. c #9D8354",
"8. c #B78C5A",
"9. c #97836E",
"0. c #A78667",
"q. c #B88B66",
"w. c #AB9070",
"e. c #BA9874",
"r. c #D8A54F",
"t. c #C6936A",
"y. c #D1956A",
"u. c #C79D74",
"i. c #C8A47C",
"p. c #D4A57A",
"a. c #E9A877",
"s. c #F4B27E",
"d. c #005683",
"f. c #005B84",
"g. c #045888",
"h. c #005C8A",
"j. c #155B89",
"k. c #005E92",
"l. c #235B85",
"z. c #01628C",
"x. c #0B668A",
"c. c #0B658C",
"v. c #12658B",
"b. c #006493",
"n. c #0B6495",
"m. c #016996",
"M. c #0B6B93",
"N. c #00659B",
"B. c #006B9C",
"V. c #0A6D9A",
"C. c #176A94",
"Z. c #07719D",
"A. c #1F719F",
"S. c #2D708F",
"D. c #006DA3",
"F. c #096AA5",
"G. c #006CAB",
"H. c #146EAD",
"J. c #0072A4",
"K. c #0974A5",
"L. c #0074AB",
"P. c #0A75AB",
"I. c #0278AE",
"U. c #097AAD",
"Y. c #1779A4",
"T. c #026DB3",
"R. c #0075B3",
"E. c #017AB4",
"W. c #097DB4",
"Q. c #0977B8",
"!. c #007CBB",
"~. c #4E6D83",
"^. c #657C89",
"/. c #007EC1",
"(. c #087BC5",
"). c #007CCD",
"_. c #3A839D",
"`. c #0582BB",
"'. c #0882BB",
"]. c #1680B2",
"[. c #2E85AB",
"{. c #3988A7",
"}. c #758594",
"|. c #4C91AD",
" X c #77A2AF",
".X c #0182C4",
"XX c #0A84C7",
"oX c #0085CB",
"OX c #0189CE",
"+X c #098ACC",
"@X c #0085D2",
"#X c #0B85D4",
"$X c #018BD4",
"%X c #088DD4",
"&X c #0185DD",
"*X c #008CDA",
"=X c #0B8BDC",
"-X c #168AD6",
";X c #0391DC",
":X c #0991DB",
">X c #2E92D2",
",X c #068BE4",
"<X c #008BEC",
"1X c #0293E4",
"2X c #0797E7",
"3X c #0195EB",
"4X c #1595E6",
"5X c #179CED",
"6X c #008FF1",
"7X c #0092F4",
"8X c #0499F4",
"9X c #5F9FC8",
"0X c #54A4D8",
"qX c #938F89",
"wX c #ABA596",
"eX c #99A6A7",
"rX c #95AFB7",
"tX c #A4AAA8",
"yX c #ADB3AD",
"uX c #A5B4B3",
"iX c #B3BAB4",
"pX c #D1AE85",
"aX c #D8B489",
"sX c #E9B989",
"dX c #F3B986",
"fX c #C3BAAC",
"gX c #F5C08D",
"hX c #E7C496",
"jX c #EDCB9C",
"kX c #F3C998",
"lX c #F7D09E",
"zX c #CEC5B6",
"xX c #E7C8A3",
"cX c #FAD5A3",
"vX c #F8D6A5",
"bX c #FEDEAB",
"nX c #FFE0AD",
"mX c #FEE1B0",
"MX c #8EB2C5",
/* pixels */
"D.R.!././././.!.!.!././.!.R.R.D.d.D.G.L.I.R.L.L.L.G.G.L.L.D.D.G.B.D.oX$X*X*X;X;XOXOXOX.X/.!.R.I.G.N.",
"R.%X%X;X:X;X*X%X$X+X+XoX.X(.`.I.n.L.W.I.I.U.!.`.!.W.W.W.W.I.I.W.I.U.*X2X2X2X2X2X2X2X2X;X;X*X#XXX!.I.",
"/.2X4X2X2X2X2X=X;X=X=X%X%X+X%XXXV.U.U.U.`.'.'.'.'.'.'.`.`.W.'.W.W.`.2X8X8X8X8X8X2X8X2X2X2X%X%X+X.XI.",
"/.=X:X*X*X*X*X*X*X*X$X@X@XOXoX/.b.B.J.J.I.I.I.I.E.E.I.I.R.I.I.I.I.E.1X7X8X8X8X8X8X3X1X1X*X$X@X/.R.N.",
"!.%X%X*X$X$X@XoXoX.X.X/./..X/.!.b.m.Z.Z.J.J.I.J.L.L.L.I.L.I.I.L.J.E.1X3X3X3X3X1X1X1X1X*X$XoX!.L.D.b.",
"R.XX+X.X.X/..X/.!.!.R.!.R.R.R.L.m.m.m.m.m.m.m.B.B.D.J.J.J.B.J.J.D.I.*X1X;X1X*X*X*X;X$XoX!.L.D.L.!.R.",
"G.Q..X!.!.!.!.R.R.R.R.L.R.L.L.D.b.z.z.z.z.z.N v p p m S p d K D z.B./.oXoX/.!.E.E.!.R.R.D.B.I.!.!.I.",
"k.K.P.L.L.L.L.D.D.D.D.L.L.D.B.N.h.h.Z f.Z Z i [ } } ] ' [ &.} ' v M F.L.L.G.D.L.L.D.D.m.b.m.J.L.J.m.",
"D.K.K.D.Z.J.D.N.h.b.D.G.L.G.L.R.T.D.D.N.N.j.r { &.&.&.|  .*.*.&.^ t K k.F.D.D.D.N.k.b.N.b.N.m.m.N.D.",
"R.U.U.G.I.J.Z.m.b.G.E.!.!.`..X.XoX.X/.`.E.G 7 ^ ] [ / ~ ..{ | | ] ] ` H !.R.E.E.L.m.J.J.J.L.I.I.I.L.",
"I.W.U.L.I.Z.J.B.b.I.E.`..X.XoXOXoXOXoXoX.XC.u o.` O.<.8.,.;.o./ ! ^ { p F..X!.E.L.m.D.L.I.L.I.I.I.I.",
"I.U.U.J.I.J.J.B.b.I.E.E.!.!..X.XoX.XoX.X.X!.G e.sXaXaXu.t.t.<.O.Q ^ ^ ' F W.E.E.J.b.m.J.J.J.J.I.L.L.",
"J.P.K.J.J.Z.Z.B.b.J.L.L.E.E.!.`.`.!..X!.!.E.C.w.kXpX#.....' ,.;.5 o.' } d B.E.J.m.z.m.B.B.J.J.J.D.B.",
"m.V.V.m.m.m.m.z.z.m.J.J.L.I.E.E.E.E.E.E.E.L.G o.4.u.^ ] ^ 4 #.;.+.u.,.' p M.J.m.b.f.m.m.B.B.Z.B.m.m.",
"z.M.c.z.z.z.z.z.z.m.B.Z.J.J.J.L.I.I.L.J.D.D.l.0 ;.sX=.6 r o.8.p.e.q.1.O.r j.m.z.z.V z.b.z.m.b.b.z.z.",
"h.x.x.d.f.f.Z Z d.z.b.b.m.m.m.B.m.m.b.b.k.k.k.z :.lXpX:.2.t.a.a.<.>.;.` ! i C f.f.V Z z.f.f.z.f.f.z.",
"h.c.c.f.f.h.h.h.d.V f.d.z.m.b.h.d.V V d.d.d.C P e.vXmXlXsXsXsXt.1.;.t ^ Q 4 $ N d.g.g.d.d.d.f.h.d.d.",
"D.W.!.E.!.!.!.R.R.L.J.N.N.J.E.D.h.b.B.B.B.B.c.3.xXmXbXaXpXkXdXa.5.7 5 ^ ^ ~ < $ b v.L.I.J.D.L.D.N.h.",
"L.XX+XoXOX@X$XoXoX@XoXR.D.N.L.I.b.B.R.E.!.R.G 9.vXhXgXp.;.5.1.%.*...~ {  ._ 3 - % $ A K.I.L.J.J.B.b.",
"G.XX+X.X.XoXoX@XoX@X@X.XE.B.b.b.h.D.R.!.E.A 9 o.,.>.>.%.~ | ] Q ] &.{  .&.{ 5 ; ; : 8 M I.I.I.I.J.b.",
"B.W.XX!..X.XoXoXoXoXoX/.!.E.B.d.h.D.E.L.A @ 5 ' ;.<.~ ^ }  . .^ ! } &. . .} 5 ; ; : ; 9 A `.I.J.D.b.",
"b.K.W.!.!..X/././.!.R.R.D.G.L.D.z.D.E.A @ % ) } 1.e./ ] | { { ^ 4 ) &. .{ { 5 ; ; ; : ; # x.J.J.D.b.",
"h.V.F.D.R.R.R.L.D.B.j.j.k.N.N.N.z.m.B.x & : ^ ^ / t 2 ! ] { ^ _ 4 !  . .[ _ 4 ; ; ; ; 1 , S Z.Z.m.z.",
"d.M.V.b.N.b.b.N.k.c w 9 b k.k.h.h.z.C 8 % & 3 5 ^ ^ ! 3 5 ^ ^ ^ 4 ! { } ~ ~ 1 ; ; ; ; < & x z.z.z.f.",
"d.n.n.M b S j.C M x 0 e w b C g.f.f.N 9 > : ) { |  .| ^ ! 3 3 3 3 ~ _ ^ 4 3 ; : ; ; - : - # N k.d.h.",
").#X(.F E W P L L P w w P T j.P.D.B.D w.e.` { &.&.*.&.| } ^ 4 4 4 ^ 5 ! : - & ; ; & % * * x F.).).).",
"6X7X-X^.3.^.P P P P K w e n H.,X$XQ.W jXe.O. .&.&.&.&.&. .[ X.X.( 5 2 : * < > - < = > r w H.<X<X6X6X",
"6X8X-X^.qXP P F S n 8 9 8 G ).).*XQ.wXjX,.(  .&.&.&.&.&. .[ 6.r.6.( 1 = r 0.0.0.0.0.q.y.3.Q.6X<X6X6X",
").5X).^.qXE n H.L.F.w > 8 D !.oX@XF.qXhX%.! | &. .} *. .{ ! ( X.X.) - 8 d p.kXcXvXbXvXdX2.T.<X<X<X<X",
"5X).).~.tX^.l.T.R.P.v : : e R S.A.~.9.jX:.3 [  .} {  .} _ ( { ~ 1 2 - O 8 +.;.u.lXnXvXdX2.H.,X,X,X<X",
").).).l.tXW l.T.G.G.n y s =.0.U :.aXhXvX0./ ^ { { ] } { ) ^ } ` s +.< * - - % a w.nXlXdX2.F.&X@X&X&X",
").).(.H.}.3.n F.N.v.E w.i.w.U =.i.nXbXbXq./ 3 ) } [ } ] _ ! O.+.<.a.;.> : - & % a aXlXs.4.n.).).).).",
"(.(.(.T.R E F n.h.J aXnXlXpX:.,.sXbXbXbXq.6 * 4 ] ] ] ] ^ ` 4.t.t.sXsX=.> - : - - :.kXs.4.l.R.R.T.T.",
"H.(.(.(.v.T l.B.b.S.wXnXhXi.e.0.aXbXbXnXp.f O = ~ ^ ^ ^ Q o.t.lXcXcXcXpXr : - > * r y.t.P C k.k.g.g.",
"J.'.(.!.`.V.`.`..XY.9.mXnXjXi.:.0.hXnXvXdX+.+ 8 5 ^ ~ 4 : > ;.kXbXbXmXlX=.: - : - < =.:.D m.N.N.b.b.",
"E.+X+X%XOX;X$X;X;X.XW lXnXjXaXw.0.i.hXdXa.j + + - : > = + O =.sXbXbXbXbXq.r : : : * +.,.H L.D.I.L.m.",
"R.+X+XOX$X;X;XOX;X*XY.w.lXjXi.-.q.aXa.y.<.9 O @ o O @ @ o + d t.lXcXlXkXy.r & * . . $.8.J L.L.L.L.D.",
"J.XX+X.XOXOX$XOXOX$X.XR 7.:.o.y #.t.1.E G # o O o O @ O o @ 8 ;.sXdXdXa.t.< . .   . @.8.T J.J.L.J.m.",
"B.'.XX`.`..XOX`..X`.!.P.F q s y y L l.M.B.$ . O   o @ o   + + 9 j =.+.f r X     . . @.r.Y M.J.B.m.f.",
"b.'.'.`.`.E.I.I.L.J.J.J.m.m y y ` i C B.n.z 8 q 0 9 8 = e f f d d 0 0 0 9 9 = a $.$.8.8.Y C m.b.f.Z ",
"h.K.K.m.B.m.m.b.b.m.b.b.b.A 0 7 ` r c d.d.M p k l k q # m K p n m i k l l a 9 i L I L F S N Z z.f.f.",
"k.M.B.b.b.b.z.h.f.b.N.b.b.g.v ; 6 x d.g.d.B b g l k u z Z B B B B N u k l g # B B Z B V Z Z f.f.h.z.",
"L.W.U.J.L.D.J.B.G.).,X,X&X,XT.G C.(.<X).H.F P g $.$.i G ].].Y.v.m L p k $.l i x.`.E.J.Z.Z.J.J.J.J.I.",
"R.W.W.I.L.J.Z.J./.7X7X8X7X7X6X4X4X>X0X9XL u j g k k u E uXyXwXP q g k k k g i R |.[.[.].I.I.E.I.E.E.",
"L.U.U.J.J.J.B.Z.(.6X7X7X7X7X5X0XuXiXzXtX-.h I I k g Y w.zXzXfX2.g h h h g h I qXzXyXeX|.I.I.J.I.I.L.",
"K.K.K.B.Z.m.m.B.(.<X7X6X6X7X7X5X0X9XMXMXMXrXuXrXtXyXyXuXiXyXiXyXuXtXtXeXeXeXrXeX X X|.Y.B.Z.J.Z.J.J.",
"Z.Z.V.m.m.m.b.N.T.<X<X<X<X<X,X<X<X,X,X,X-X-X>X[.[._._._._.|.{.{.{.{.{.[.[.Y.Y.Z.B.m.m.B.B.B.m.m.m.Z.",
"b.V.C.c.x.M.M.n.Q.).,X4X,X,X4X,X,X=X#X#X#X(.(.Q.B.c.M.M.M.V.V.Z.Z.B.M.z.Z.M.Z.V.V.M.M.M.V.V.V.Z.m.z.",
"z.x.x.x.A x.A M.F.Q.XX(.#X-X).).-X#X(.#X(.Q.H.F.V.v.v.M.v.M.M.M.x.M.x.M.M.M.M.M.M.M.x.x.v.c.x.M.x.Z ",
"Z V V V Z Z Z Z k.B.T.G.T.T.G.G.T.T.T.F.N.k.k.k.h.d.V Z V Z Z Z Z Z z.z.Z x.z.z.z.Z V Z Z Z f.Z Z Z "
};
